<svg version="1.1" xmlns="http://www.w3.org/2000/svg" xmlns:xlink="http://www.w3.org/1999/xlink" width="384" height="230" viewBox="0,0,384,230"><g transform="translate(-48,-65)"><g data-paper-data="{&quot;isPaintingLayer&quot;:true}" fill-rule="nonzero" stroke="none" stroke-linecap="butt" stroke-linejoin="miter" stroke-miterlimit="10" stroke-dasharray="" stroke-dashoffset="0" style="mix-blend-mode: normal"><path d="M48,295v-230h384v230z" fill="none" stroke-width="0"/><g fill="#ffffff" stroke-width="1"><g><path d="M170.32222,195.8533v-42.82948h25.31413v5.36966h-20.07232v13.16847h18.02673v5.36966h-18.02673v13.42416h21.47866v5.36966h-26.72046z"/><path d="M223.63532,195.8533l-8.69376,-11.37859l-8.69373,11.37859h-6.13676l11.88997,-15.21406l-12.52921,-15.72544h6.90385l8.56588,11.76214l8.69376,-11.76214h6.776l-11.88997,15.72544l11.25073,15.21406z"/><path d="M238.21012,191.25073v21.09511h-5.24183v-31.57875c0,-8.0545 6.13676,-16.6204 15.72544,-16.6204c9.71654,0 17.00394,6.13676 17.00394,16.23685c0,9.84438 -7.41526,16.6204 -15.8533,16.6204c-4.09116,0 -9.58866,-1.78988 -11.63426,-5.75321zM260.20016,180.38355c0,-6.90385 -4.47471,-10.99502 -12.40135,-10.61147c-3.83547,0.12786 -9.71654,2.94052 -9.20514,12.7849c0.12786,3.19624 3.45193,9.20514 10.73933,9.20514c6.26462,0 10.86716,-3.57976 10.86716,-11.37857z"/><path d="M270.17239,195.8533v-30.93951h5.24183v3.32409c2.55697,-2.94052 6.52031,-3.96333 10.73933,-3.96333v5.62535c-0.63924,-0.12786 -6.90385,-0.89495 -10.73933,7.2874v18.79382h-5.24183z"/><path d="M287.55988,180.38355c0,-8.94945 6.39245,-16.23685 15.21404,-16.23685c10.99502,0 15.08621,7.2874 15.08621,16.6204v2.55697h-24.54704c0.38355,5.88107 5.62538,8.94945 10.48364,8.82159c3.57978,-0.12786 6.0089,-1.15064 8.56588,-3.70762l3.45193,3.57978c-3.19624,3.06838 -7.2874,5.11395 -12.27352,5.11395c-9.333,-0.12786 -15.98114,-7.03169 -15.98114,-16.74823zM302.39037,169.38853c-4.98612,0 -8.82159,4.34685 -9.07728,9.07728h19.04951c0,-4.60257 -3.32407,-9.07728 -9.97223,-9.07728z"/><path d="M320.54496,191.50642l3.83547,-3.45193c-0.12786,0 1.91774,2.04557 2.17343,2.17343c0.89495,0.76709 1.7899,1.2785 2.94055,1.53419c3.32407,0.89495 9.33297,0.63926 9.84438,-3.96331c0.25569,-2.55697 -1.66205,-3.96333 -3.83547,-4.85828c-2.81269,-1.02279 -5.88104,-1.40633 -8.69373,-2.68483c-3.19624,-1.40633 -5.24183,-3.83545 -5.24183,-7.41523c0,-9.333 13.29633,-10.86719 19.30523,-6.52031c0.25569,0.25569 3.19624,2.94052 3.06838,2.94052l-3.83547,3.06838c-1.91774,-2.30128 -3.70764,-3.45193 -7.79881,-3.45193c-2.04559,0 -4.85826,0.89495 -5.36966,3.06838c-0.76709,3.06838 2.68483,4.21902 4.98612,4.85826c3.06838,0.76709 6.39247,1.2785 9.07731,2.94055c3.70762,2.30128 4.60255,7.2874 3.19621,11.12288c-1.53419,4.21902 -6.13676,5.88104 -10.22792,6.0089c-4.85826,0.25569 -9.07728,-1.2785 -12.52921,-4.73043c-0.25569,0 -0.89495,-0.63924 -0.89495,-0.63924z"/><path d="M347.52114,191.50642l3.83547,-3.45193c-0.12786,0 1.91774,2.04557 2.17343,2.17343c0.89495,0.76709 1.78988,1.2785 2.94052,1.53419c3.32407,0.89495 9.333,0.63926 9.8444,-3.96331c0.25569,-2.55697 -1.66205,-3.96333 -3.83547,-4.85828c-2.81269,-1.02279 -5.88107,-1.40633 -8.69376,-2.68483c-3.19624,-1.40633 -5.24181,-3.83545 -5.24181,-7.41523c0,-9.333 13.29633,-10.86719 19.30523,-6.52031c0.25569,0.25569 3.19624,2.94052 3.06838,2.94052l-3.83547,3.06838c-1.91774,-2.30128 -3.70764,-3.45193 -7.79881,-3.45193c-2.04559,0 -4.85826,0.89495 -5.36966,3.06838c-0.76709,3.06838 2.68483,4.21902 4.98612,4.85826c3.06838,0.76709 6.39245,1.2785 9.07728,2.94055c3.70762,2.30128 4.60257,7.2874 3.19624,11.12288c-1.53419,4.21902 -6.13676,5.88104 -10.22792,6.0089c-4.85826,0.25569 -9.07731,-1.2785 -12.52923,-4.73043c-0.25569,0 -0.89493,-0.63924 -0.89493,-0.63924z"/><g><path d="M372.45172,164.91379v-3.32407h-1.15064v-0.63924h3.06838v0.63924h-1.15064v3.32407z"/><path d="M378.20493,164.91379v-3.06838l-1.15064,3.06838h-0.25571l-1.15064,-3.06838v3.06838h-0.63924v-3.96331h1.02279l1.02281,2.68483l1.02279,-2.68483h1.02279v3.96331z"/></g></g><g><path d="M134.78015,195.8533l-3.83547,-10.22795h-20.71156l-3.83547,10.22795h-5.4975l16.62037,-42.82948h6.00893l16.49254,42.82948zM120.3332,159.16058l-7.79881,21.22297h16.23685z"/><path d="M143.4739,195.8533v-42.82948h5.36966v42.82948z"/><path d="M156.89806,195.8533v-30.30025h5.36966v30.30025z"/><path d="M159.83859,163.25177c-0.12786,0 -0.25569,0 -0.38355,0c-0.12786,0 -0.25569,0 -0.38355,0c-0.12786,-4.09116 -3.45193,-7.41526 -7.54309,-7.54312c0,-0.12786 0,-0.12783 0,-0.25569c0,-0.12786 0,-0.12783 0,-0.25569c4.09116,-0.12786 7.41523,-3.45195 7.54309,-7.54312c0.12786,0 0.25569,0 0.38355,0c0.12786,0 0.25569,0 0.38355,0c0.12786,4.09116 3.45193,7.41526 7.54309,7.54312c0,0.12786 0,0.12783 0,0.25569c0,0.12786 0,0.12783 0,0.25569c-4.09116,0.12786 -7.41523,3.45195 -7.54309,7.54312z"/></g></g></g></g></svg>