<svg version="1.1" xmlns="http://www.w3.org/2000/svg" xmlns:xlink="http://www.w3.org/1999/xlink" width="384" height="230" viewBox="0,0,384,230"><g transform="translate(-48,-65)"><g data-paper-data="{&quot;isPaintingLayer&quot;:true}" fill="none" fill-rule="nonzero" stroke-miterlimit="10" stroke-dasharray="" stroke-dashoffset="0" style="mix-blend-mode: normal"><path d="M48,295v-230h384v230z" stroke="none" stroke-width="0" stroke-linecap="butt" stroke-linejoin="miter"/><path d="M149.57299,188.52273c-4.68435,4.5897 -12.19479,4.5386 -16.81625,-0.11441c-4.62147,-4.65301 -4.62147,-12.16363 0,-16.81664c4.62147,-4.65301 12.13191,-4.70411 16.81625,-0.11441M161.50481,186.30682l18.75,12.44318l18.75,-12.44318v-12.61364l-18.75,-12.44318l-18.75,12.44318zM199.00481,173.69318l-18.75,12.61364l-18.75,-12.61364M161.50481,186.30682l18.75,-12.61364l18.75,12.61364M180.25481,173.69318v-12.44318M180.25481,198.75v-12.44318M212.64118,191.93182h8.52273c6.58976,0 11.93182,-5.34205 11.93182,-11.93182c0,-6.58976 -5.34205,-11.93182 -11.93182,-11.93182h-8.52273zM260.36845,191.93182h-15.34091v-23.86364h15.34091M255.25481,180h-10.22727M274.00481,191.93182v-23.86364h10.22727c3.76558,0 6.81818,3.0526 6.81818,6.81818c0,3.76558 -3.0526,6.81818 -6.81818,6.81818h-10.22727M318.32299,191.93182h-15.34091v-23.86364h15.34091M313.20936,180h-10.22727M350.70936,168.06818v23.86364l-18.75,-23.86364v23.86364" stroke="#ffffff" stroke-width="3.5" stroke-linecap="round" stroke-linejoin="round"/></g></g></svg>