<svg version="1.1" xmlns="http://www.w3.org/2000/svg" xmlns:xlink="http://www.w3.org/1999/xlink" width="384" height="230" viewBox="0,0,384,230"><g transform="translate(-48,-65)"><g data-paper-data="{&quot;isPaintingLayer&quot;:true}" fill-rule="nonzero" stroke-linecap="butt" stroke-linejoin="miter" stroke-miterlimit="10" stroke-dasharray="" stroke-dashoffset="0" style="mix-blend-mode: normal"><path d="M48,295v-230h384v230z" fill="none" stroke="none" stroke-width="0"/><path d="M196.81818,217.50967c-3.76136,0 -6.81818,-3.04545 -6.81818,-6.81818v-48.86364l22.72727,17.04545v38.63636h-15.90909" fill="#ffffff" stroke="#ffffff" stroke-width="0.5"/><path d="M267.27273,178.87331l22.72727,-17.04545v48.86364c0,3.76136 -3.04545,6.81818 -6.81818,6.81818h-15.90909" fill="#ffffff" stroke="#ffffff" stroke-width="0.5"/><path d="M273.63636,144.55513c6.73864,-5.05682 16.36364,-0.25 16.36364,8.18182v9.09091l-22.72727,17.04545v-29.54545" fill="#ffffff" stroke="#ffffff" stroke-width="0.5"/><path d="M212.72727,178.87331v-29.54545l27.27273,20.45455l27.27273,-20.45455v29.54545l-27.27273,20.45455" fill="#ffffff" stroke="#ffffff" stroke-width="0.5"/><path d="M190,152.73694c0,-8.43182 9.61364,-13.23864 16.36364,-8.18182l6.36364,4.77273v29.54545l-22.72727,-17.04545v-9.09091" fill="#ffffff" stroke="#ffffff" stroke-width="0.5"/></g></g></svg>