<svg version="1.1" xmlns="http://www.w3.org/2000/svg" xmlns:xlink="http://www.w3.org/1999/xlink" width="384" height="230" viewBox="0,0,384,230"><g transform="translate(-48,-65)"><g data-paper-data="{&quot;isPaintingLayer&quot;:true}" fill-rule="nonzero" stroke="none" stroke-linecap="butt" stroke-linejoin="miter" stroke-miterlimit="10" stroke-dasharray="" stroke-dashoffset="0" style="mix-blend-mode: normal"><path d="M48,295v-230h384v230z" fill="none" stroke-width="0"/><path d="M107.44255,138.37341c2.52994,-1.06 7.8909,0.96802 7.92862,2.90104c0.15389,7.8809 0.08594,20.9903 0.07847,25.46723c-0.00795,4.88134 -0.00001,13.4392 -0.18654,18.83239c-0.15444,4.47394 -1.01466,8.59365 -3.47211,12.02403c-2.04933,2.86022 -5.58928,4.63503 -6.41837,3.88888c-0.74208,-0.66704 0.23725,-2.39871 0.84642,-4.96153c0.60121,-2.52894 0.93596,-5.08825 0.93596,-13.19296c0,-5.98963 0.17665,-34.68919 0.17665,-37.88618c0,-1.78779 0.03944,-2.75432 -0.78969,-2.05989c-4.46054,3.73772 -8.00478,12.25632 -7.19289,19.88c0.6282,5.90258 3.68003,6.52935 2.61152,8.38278c-0.90784,1.57737 -11.9762,-3.23333 -9.31647,-14.60969c2.10019,-8.97869 8.74989,-16.1318 14.79874,-18.66376M322.23696,176.30503c0.39547,-8.55588 -1.28538,-13.18303 -4.87637,-13.52032c-3.64074,-0.34121 -5.8394,3.44225 -6.62682,8.45196c-0.77353,4.91765 -0.72327,10.8031 0.35267,14.32711c1.97433,6.46487 6.62435,5.06844 8.8653,0.57126c1.15755,-2.323 2.09023,-5.61637 2.28524,-9.82981zM261.69919,202.44647c0.02127,-3.0468 0.00933,-4.33318 0.00933,-4.33318c-5.71753,5.64092 -9.6204,10.25767 -10.44566,14.77832c-0.93268,5.10862 3.57159,7.00489 6.9228,4.47692c2.36282,-1.78283 3.46465,-7.92115 3.51338,-14.92205zM260.78379,176.26473c0.50838,-9.52241 -1.26997,-13.47902 -4.87638,-13.47902c-3.70935,0 -5.77473,4.34211 -6.62682,9.0225c-0.65663,3.60738 -0.97448,9.33256 0.35266,13.75609c1.941,6.47431 6.62484,5.0684 8.8653,0.57125c1.08542,-2.17829 2.0803,-6.03351 2.28524,-9.87112zM225.71407,176.20604c0.45815,-8.4564 -1.28684,-13.06964 -4.87634,-13.42033c-3.4945,-0.34173 -5.73294,3.26468 -6.62686,8.35144c-0.60237,3.42785 -1.09534,9.77339 0.3527,14.42716c2.00866,6.4539 6.56315,5.03746 8.8653,0.57125c1.27244,-2.46778 2.06534,-5.86541 2.2852,-9.92981zM386.43931,180.95178c1.12967,0 1.50674,1.42699 1.25206,3.27505c-1.05705,7.67932 -4.1949,10.59786 -8.03161,10.59786c-1.79723,0 -6.95463,-0.87548 -8.73746,-8.69913c-1.3152,-5.77522 -0.99138,-16.33479 -0.84713,-19.56316c0.00399,-0.08769 -0.1134,-0.53786 -0.36609,0.03321c-0.68499,1.54849 -2.5842,5.78421 -3.72331,10.472c-1.74451,7.17848 -1.89522,12.17423 -1.80917,12.98258c0.17658,1.65842 -1.79674,1.91918 -2.74036,1.91918c-1.48338,0 -3.30498,-0.1234 -4.77988,-2.72947c-0.51681,-0.9113 -1.18938,-3.79074 -1.69275,-8.66234c-0.68547,-6.62383 -0.76891,-11.55395 -0.80585,-13.23278c-0.01791,-0.82973 -0.51238,-0.7004 -0.9506,0.08358c-0.78298,1.39927 -2.43345,4.22568 -4.20285,11.51211c-1.05407,4.34162 -0.94413,10.18356 -1.12321,13.66059c-0.06813,1.32423 -0.56659,1.83705 -1.2058,1.96642c-0.92272,0.18653 -3.41688,0.61536 -5.86227,-0.29146c-0.55264,-0.20497 -1.31221,-0.6294 -1.44255,-0.96747c-0.21389,-0.55282 -0.3492,-2.30628 -0.43525,-4.45069c-2.0584,4.87034 -4.59532,5.96624 -7.26855,5.96624c-2.56626,0 -7.04665,-1.77981 -7.9694,-7.54111c0,0 -0.55066,1.14817 -1.52114,2.47628c-4.29982,5.88653 -12.77067,7.3898 -17.15259,0.44707c-0.21341,-0.33811 -0.40889,-0.70435 -0.59591,-1.08284c-1.55199,3.39494 -4.44808,5.68118 -7.47547,5.68118c-2.58614,0 -6.94817,-1.75294 -8.8832,-7.20136c-2.8269,-7.95896 0.2706,-19.90639 0.45617,-20.64257c0.1537,-0.60939 -0.08507,-0.77899 -0.9163,-0.72477c-2.59857,0.17012 -5.03355,0.14922 -5.03355,0.14922c-1.43509,4.52618 -4.23762,10.34207 -6.85264,14.67288c-2.39965,3.974 -5.00572,7.36901 -7.31879,10.05515c0.05075,3.49894 0.11541,6.76317 0.15471,9.33039c0.09851,6.41095 -1.2446,12.90202 -3.29651,15.91791c-2.33296,3.42643 -6.1284,5.87478 -10.56054,5.52304c-4.17348,-0.33128 -9.69003,-2.85926 -9.21748,-9.66119c0.36811,-5.3345 5.37229,-9.91538 11.95336,-15.95325c1.49528,-1.37083 3.93123,-3.60543 3.93123,-3.60543l-0.12534,-3.65652c-0.15273,0.22516 -0.32733,0.47603 -0.52879,0.75257c-4.26997,5.89549 -12.77067,7.38979 -17.15255,0.44707c-0.29054,-0.46013 -0.55662,-0.94552 -0.8004,-1.45379c-2.08026,4.68335 -5.04844,6.04236 -7.92314,6.04236c-2.56678,0 -7.04967,-1.945 -7.67245,-7.51177c0,0 -0.20094,0.65461 -1.52114,2.47628c-4.27001,5.89549 -12.77067,7.38979 -17.15259,0.44707c-0.91477,-1.44916 -1.62312,-3.16284 -2.10164,-5.13351c-1.66693,4.83444 -5.47876,9.74873 -9.28065,9.74873c-5.6867,0 -8.95982,-5.01415 -9.72888,-13.87497c-4.29632,10.26005 -10.468,14.23759 -18.17229,13.97993c-1.97732,-0.06627 -5.07784,-0.64819 -6.5204,-1.29038c-1.67536,-0.74615 -3.29151,-1.5992 -2.84779,-3.21295c0.45613,-1.65846 1.25501,-2.99803 2.65181,-4.0512c0.5377,-0.40512 1.43461,-0.28952 2.02205,0.09721c1.09336,0.71988 1.55748,1.21322 2.64487,1.85175c3.73077,2.1887 5.82698,-0.06314 6.3836,-2.24819c0.72775,-2.85824 -0.36912,-5.87111 -3.70988,-9.04187c-1.43759,-1.36442 -2.87615,-2.64164 -4.15806,-3.82832c-1.83951,3.10053 -4.39979,7.40241 -7.03672,11.78974c-4.22968,7.04015 -8.17535,9.82134 -10.97441,9.82134c-3.65868,0 -6.21889,-2.60853 -5.6857,-16.68197c0.19893,-5.25889 0.49442,-11.44898 0.57845,-13.92624c0.01892,-0.56009 -0.37404,-0.53968 -0.7182,-0.19747c-1.96832,1.95791 -6.15534,7.47099 -9.36669,18.77022c-2.0628,7.25766 -2.07217,9.20367 -2.3168,11.00281c-0.20418,1.50125 -4.13258,0.99679 -4.85,0.8491c-0.77081,-0.15911 -1.23834,-0.54465 -1.64249,-1.05004c-0.40475,-0.50636 -0.73156,-1.35744 -0.93328,-2.40364c-0.20247,-1.04489 -0.25587,-3.4339 -0.25587,-5.48174l0.17288,-26.95207c0,-0.87548 0.47125,-1.31471 1.41558,-1.31471c1.98198,0 4.21094,0.92672 5.04549,1.37986c0.49256,0.26713 0.70767,0.65763 0.70767,1.06153l-0.10553,17.22718c0,0 1.22612,-3.29009 1.85026,-5.09572c4.95246,-14.32566 10.19386,-14.57286 12.01057,-14.57286c1.21374,0 3.30945,1.18836 4.29139,1.79275c1.61614,0.99485 2.58017,2.09322 2.50707,4.02128c-0.22087,5.82992 -0.49744,11.46077 -0.49744,15.2061c0,4.34449 -0.02041,8.98466 1.50375,8.98466c1.90668,0 4.42964,-4.57043 7.76943,-10.34864c1.20329,-2.08116 2.62398,-4.76485 3.65816,-6.75817c-0.13978,-0.16117 -0.27509,-0.32132 -0.39994,-0.47804c-1.71017,-2.14493 -2.17579,-4.20979 -1.30281,-6.99243c1.12672,-3.592 4.90422,-6.95664 9.48562,-5.90305c2.77272,0.63718 2.72394,3.52681 1.59427,6.05179c-1.59428,3.56461 -3.39203,5.33647 -3.39203,5.33647c3.104,2.2965 5.87821,4.39218 7.28349,5.49916c3.81432,3.004 5.93191,6.55272 4.89526,11.27834c0,0 4.82708,-3.85858 6.19754,-11.00176c-0.00074,-0.40124 -0.00448,-0.81477 -0.00448,-1.24419c0,-4.03619 0.1109,-17.10979 0.1109,-17.10979c-2.49013,-0.07512 -6.24628,-0.14724 -8.40166,-0.23083c-1.87336,-0.07161 -0.41088,-5.89907 0.94414,-5.89907c1.45845,0 6.43878,0.28501 7.89675,0.28501c0,0 0.13732,-7.45405 0.40244,-9.99896c0.17609,-1.67685 1.07743,-2.07776 3.06422,-1.6679c1.43807,0.29647 2.65133,0.57107 4.00732,1.1446c0.55764,0.23482 1.53013,0.62181 1.46595,1.37345c-0.0756,0.90183 -0.40042,9.43883 -0.40042,9.43883c0,0 3.62133,0.26799 4.92212,0.29747c1.547,0.03284 5.44938,0.24075 6.00153,0.47804c1.21822,0.52427 0.08109,4.76044 -1.09933,4.82063c-2.35333,0.12038 -3.95362,0.07859 -5.72048,0.09799c-0.68599,0.00798 -4.22822,0.06817 -4.22822,0.06817c-0.09452,1.2396 -0.65365,14.10127 -0.65365,23.13472c0,6.7816 1.56245,9.96363 3.203,9.96363c2.80354,0 6.23086,-5.46965 7.00687,-10.21531c-0.01343,-1.67114 0.09005,-3.45905 0.32434,-5.36834c0.81081,-6.60693 2.38621,-9.59155 4.33218,-12.28367c2.9841,-4.1287 6.88948,-5.13504 10.65305,-4.0178c1.39733,0.41389 3.49748,1.84201 4.80324,3.89395v-1.47987c0,-0.64219 0.67603,-1.50326 1.63756,-1.57491c0.72876,-0.0537 1.67786,0.03982 2.7772,0.294c1.05056,0.24374 3.30856,0.90186 3.32684,2.20762c0.00548,0.42532 -0.09153,2.30214 -0.14176,4.74552c-0.08657,4.24166 -0.26266,6.79201 -0.26266,12.65727c0,10.054 1.4152,12.25382 3.90238,12.25382c1.94548,0 3.6661,-3.09303 4.26452,-6.05083c-0.55465,-2.95377 -0.62976,-6.46024 -0.22288,-10.58641c0.43677,-4.42718 1.97832,-9.04885 4.33218,-12.34237c2.96224,-4.14463 6.88948,-5.13504 10.65309,-4.0178c1.39729,0.41389 3.49745,1.84201 4.80324,3.89395c0,0 0,-1.15456 -0.00485,-1.34259c-0.02485,-0.99586 0.93171,-1.83802 2.51954,-1.71417c1.25799,0.09751 2.47076,0.37706 3.49647,0.78096c1.16001,0.45666 1.71775,0.81731 1.73156,1.77238c0.00549,0.4258 -0.0925,2.2524 -0.14276,4.69578c-0.05172,2.49464 -0.16873,9.41595 -0.14075,18.21013c0.00224,0.61793 0.00559,1.2387 0.01007,1.85954c1.22322,-1.6673 2.17083,-3.23576 3.40942,-5.3524c2.31259,-3.95064 4.55252,-9.41495 5.46632,-13.59787c0,0 -2.78514,-1.61069 -2.33397,-5.0256c0.28452,-2.15191 1.03418,-3.34875 2.13549,-4.36353c1.84499,-1.69973 7.62768,-2.1315 7.0059,3.19009c-0.1184,1.01474 -0.26266,1.59028 -0.26266,1.59028c2.39069,-0.35419 5.0037,-0.81529 6.83127,-1.24408c2.56581,-0.6014 4.35057,-0.11243 5.18825,0.84462c0.91332,1.04362 1.27744,2.13251 0.82925,4.21229c-1.05109,4.87884 -2.01265,8.2512 -2.15639,13.05669c-0.21788,7.30606 1.65846,11.53055 4.24662,11.53055c1.78279,0 3.41091,-1.55338 4.28789,-5.34494c-0.72577,-3.36016 -0.85906,-7.33337 -0.45069,-11.25147c0.55864,-5.35938 1.9778,-9.08963 4.33218,-12.38315c2.9622,-4.14515 6.88947,-5.13553 10.65305,-4.0178c1.39733,0.41386 3.49748,1.84201 4.80324,3.89391c0,0 -0.00559,-0.93269 -0.00559,-1.42316c0,-0.91477 0.7173,-1.57987 1.73107,-1.63707c0.7163,-0.04078 1.63357,0.05422 2.68913,0.29949c1.0506,0.24322 3.30856,0.90134 3.32684,2.2071c0.00549,0.4258 -0.09153,2.30214 -0.14176,4.74555c-0.08657,4.2421 -0.26266,6.79245 -0.26266,12.65772c0,10.05403 1.17344,12.25382 3.66062,12.25382c2.4842,0 4.76842,-5.26176 5.47278,-9.13788c-0.00373,-0.42457 -0.00373,-0.82425 -0.00373,-1.19057c0,-8.43349 0.20098,-20.49432 0.20098,-20.63011c0,-1.03716 0.31188,-1.74899 1.58533,-1.74899c1.03217,0 3.46364,0.59838 4.69779,0.95657c0.27408,0.08008 1.1834,0.52181 1.17743,1.84746c-0.01344,3.5139 -0.02836,12.77765 -0.02836,12.77765c0,0 0.78645,-2.32255 1.91559,-5.75585c1.38934,-4.22422 2.72645,-7.78784 3.88101,-9.11202c1.33263,-1.61912 5.03355,-0.25814 6.25229,0.51136c1.87831,1.1859 2.23881,2.63443 2.25038,4.33617c0.05971,8.72201 0.54021,12.87337 0.7551,15.15786c0.03183,0.3449 0.21277,0.31475 0.23031,0.16713c0.33725,-2.85231 1.77089,-9.87362 5.43498,-18.7175c1.29681,-3.13038 3.90138,-2.17232 5.69316,-1.52166c4.16404,1.51271 4.5923,3.04877 4.50976,4.60126c-0.40393,7.55607 -0.45468,15.15214 -0.13881,19.27812c0.40192,5.24722 1.96537,7.86843 3.7054,7.86843c1.55748,0 2.76526,-1.19531 3.91433,-6.48901c0.33128,-1.52248 0.7317,-2.42695 1.6092,-2.42695" fill="#ffffff" stroke-width="1"/></g></g></svg>