<svg version="1.1" xmlns="http://www.w3.org/2000/svg" xmlns:xlink="http://www.w3.org/1999/xlink" width="246.4009" height="84.00031" viewBox="0,0,246.4009,84.00031"><defs><clipPath id="clip-1"><path d="M116.79955,137.99996h246.4009v84.00031h-246.4009z" fill="none" stroke-width="1"/></clipPath></defs><g transform="translate(-116.79955,-137.99996)"><g clip-path="url(#clip-1)" data-paper-data="{&quot;isPaintingLayer&quot;:true}" fill-rule="nonzero" stroke="none" stroke-linecap="butt" stroke-linejoin="miter" stroke-miterlimit="10" stroke-dasharray="" stroke-dashoffset="0" style="mix-blend-mode: normal"><path d="M48,295v-230h384v230z" fill="none" stroke-width="0"/><path d="M175.03977,204.41598l0.28,-16.96806c-9.18403,-1.34345 -9.35204,10.9766 -9.35204,10.9766c0.89601,7.95147 9.07204,5.99146 9.07204,5.99146M160.25571,165.94384c0,0 22.23208,-9.80004 24.86409,7.84002l-0.336,37.91214h-16.85606c0,0 -7.39202,0.28 -9.68803,-7.89603c0,0 -5.71202,-20.83207 16.80006,-24.80753l0.056,-5.09658c0,0 -4.25601,-4.53601 -11.81605,0zM363.20045,149.08778l-8.84803,56.39221l-14.11205,-60.76022zM320.3043,148.97578l-0.16801,15.90406l12.48805,0.84v7.78403l-12.15204,0.67201l1.008,23.52008c0,0 0.056,1.84857 3.86401,1.84857c3.80802,0 7.33603,-2.07201 7.33603,-2.07201v11.98349c0.168,3.64002 -5.04002,5.20858 -5.04002,5.20858c-16.68806,2.46345 -15.45606,-8.45659 -15.45606,-8.45659l-0.56,-30.40811h-7.84003l-1.84801,-12.76749l9.68804,0.33544v-17.9755zM349.3124,209.79256h7.50402l2.85601,8.23203l-6.72003,3.97546l-6.83202,-4.70402zM198.67185,165.55239c12.09605,-3.80857 18.53607,-3.75258 20.27208,13.83149l4.31202,30.07211h-11.42404l-0.728,-17.41607l-1.064,-12.37605c-0.28,-8.68003 -8.17603,-6.49602 -10.58404,-5.43145l0.61601,35.16756l-10.92004,-0.392l-1.792,-68.09569l11.08804,-2.91257zM162.99972,158.49581l-15.96006,17.52806l10.58404,38.13613h-11.48004l-8.45603,-29.2321l-8.00803,7.72803l0.112,21.50408l-12.99205,-0.44744v-61.43278l12.99205,-3.30401v26.1521l21.95208,-20.94407zM283.68016,199.43252c5.76802,0.672 10.69603,-4.59258 10.36003,-11.20005c-0.336,-6.66458 -3.02401,-10.80859 -8.45603,-10.92003c-5.43202,-0.11256 -8.73603,6.10346 -8.12003,13.32748c0.504,5.48802 3.92001,8.5126 6.21603,8.7926M284.96817,168.46385c10.52804,0.224 19.54407,9.01603 20.16007,19.65607c0.672,10.69604 -7.84003,20.21608 -18.98407,21.33608c-11.14404,1.12 -20.16007,-7.67147 -20.16007,-19.65607c0,-11.98405 8.51203,-21.50408 18.98407,-21.33608M251.31204,189.51993c-0.448,5.54458 -3.92001,8.56803 -6.21602,8.79259c-5.76802,0.672 -10.69604,-4.53657 -10.36004,-11.20004c0.336,-6.66458 3.02401,-10.8086 8.45603,-10.92004c5.43202,-0.11256 8.73603,6.10347 8.12003,13.32749M243.80802,167.39985c-10.47204,0.168 -19.48808,9.01603 -20.16008,19.65607c-0.616,10.6966 7.89603,20.21663 18.98407,21.33664c11.14404,1.12 20.16007,-7.72803 20.16007,-19.65663c0,-11.98349 -8.51203,-21.50351 -18.98407,-21.33607" fill="#ffffff" stroke-width="1"/></g></g></svg>