<svg version="1.1" xmlns="http://www.w3.org/2000/svg" xmlns:xlink="http://www.w3.org/1999/xlink" width="384" height="230" viewBox="0,0,384,230"><g transform="translate(-48,-65)"><g data-paper-data="{&quot;isPaintingLayer&quot;:true}" fill-rule="nonzero" stroke="none" stroke-linecap="butt" stroke-linejoin="miter" stroke-miterlimit="10" stroke-dasharray="" stroke-dashoffset="0" style="mix-blend-mode: normal"><path d="M48,295v-230h384v230z" fill="none" stroke-width="0"/><g fill="#ffffff" stroke-width="1"><path d="M163.29028,150.93406c0,4.41835 -3.98997,8.00076 -8.91224,8.00076c-4.92118,0 -8.91224,-3.58242 -8.91224,-8.00076c0,-4.41831 3.99106,-8.00074 8.91224,-8.00074c4.92227,0 8.91224,3.58243 8.91224,8.00074"/><path d="M141.4077,170.98709l5.46895,-8.50689c0,0 7.69619,5.97401 10.02641,8.00076c2.32912,2.02564 6.48233,5.46894 6.38044,11.03868c-0.10189,5.56974 -1.72219,10.43176 -3.03904,13.77426c-1.31575,3.34141 -9.92452,20.96322 -9.92452,20.96322l-13.16623,-8.20341c0,0 12.66228,-11.71245 17.52101,-18.83676c1.51952,-2.22834 3.34141,-8.10156 -1.82298,-11.14058c-5.16548,-3.03795 -11.44404,-7.08927 -11.44404,-7.08927"/><path d="M158.32068,165.92284c0,0 7.19005,-4.65826 14.2804,-24.10415c2.02456,0.70882 12.25364,3.44332 12.25364,3.44332l-3.34251,6.17774c0,0 15.29378,-4.65825 28.45893,-4.65825c0,0 7.19113,-0.30347 12.76196,1.51951c5.56976,1.823 11.24246,5.57086 12.66009,11.64672c1.41763,6.07587 2.93605,26.33247 0.1008,44.66199c0,0 -0.60803,4.25509 -4.55746,8.00184c-3.94943,3.74676 -8.70956,5.56974 -17.11564,5.56974c-8.40612,0 -12.86277,-1.62031 -12.86277,-1.62031l1.72219,-7.09033c0,0 5.16548,1.92486 9.21569,1.92486c4.05133,0 7.49461,-1.7211 9.3176,-3.84753c0,0 1.6214,-2.43104 1.72221,-4.45669c0.10079,-2.02562 0.20268,-40.91519 -0.20269,-42.23208c-0.40534,-1.31683 -0.91149,-6.27962 -7.19113,-7.4946c-6.27856,-1.21497 -11.24135,-0.40536 -12.76087,-0.1008c-1.51843,0.30349 -11.03869,2.63262 -15.79882,4.55641c1.82298,0.608 5.36816,1.51949 5.36816,1.51949c0,0 -1.62031,3.34247 -4.55746,6.58312c4.05132,-0.1008 30.98961,0 30.98961,0v6.07697h-17.31724v8.10153h17.11567v6.07699h-17.11567v12.86166c0,0 2.83526,0 6.98737,-3.24061c-0.30346,-2.22833 -0.20268,-2.53289 -1.21496,-5.77354c2.63368,-0.60693 7.89997,-2.4299 7.89997,-2.4299l6.58312,16.30604l-9.82484,3.84753l-1.82297,-6.58312c0,0 -2.93606,3.34251 -10.1272,5.47005c-10.01216,2.96127 -16.40575,2.83526 -18.12794,2.7345c0,0 -4.86091,0.20051 -7.79807,-1.11529c-2.93825,-1.31574 -7.19114,-4.35369 -7.19114,-13.06433c0,-2.93606 0.70882,-5.36706 0.70882,-5.36706l12.35553,0.1008c0,0 -0.60693,4.3559 -0.60693,5.46894c0,1.11418 -0.91259,5.8743 7.99965,5.77243c0,-6.37935 -0.1008,-15.09 -0.1008,-15.09l-17.6218,-0.1008v-6.07697h17.52101v-7.69728h-4.45667c0,0 -4.86092,4.55856 -7.59541,7.29303l-5.0636,-4.45668c0,0 5.84362,-6.07587 9.82374,-14.88732c-2.32913,0.91149 -6.38044,2.73447 -6.38044,2.73447c0,0 -2.83636,3.64595 -6.38043,7.39274c-2.53181,-1.41764 -8.71066,-4.35479 -8.71066,-4.35479"/><path d="M265.06609,160.657l-0.1008,5.77353h56.81594c0,0 6.17667,-3.74788 6.17667,-7.39384c0,-3.64597 -4.75905,-4.65825 -8.00075,-4.86091c-3.24062,-0.20268 -12.35552,-0.30346 -19.85015,0.60802c-7.4935,0.91149 -24.71105,2.93605 -35.04091,5.8732M250.98835,174.63284v-24.81186h13.87506v3.13983c0,0 19.85013,-2.73447 21.97659,-2.73447v-7.09032h15.698v5.36813c0,0 10.02641,-0.91151 16.60953,-0.91151c6.5831,0 14.27822,1.1131 17.21644,2.12644c2.93824,1.01339 6.48232,3.54518 6.48232,8.81148c0,5.26625 -3.95054,10.7352 -11.84936,16.00148c-2.43097,-2.431 -4.25288,-4.15212 -4.25288,-4.15212l0.10081,2.32913h-24.10306v8.20343h27.6471v6.48123h-27.6471v19.344h37.57277v8.00075h-89.42697v-8.00075h35.64897v-19.14134h-24.61027v-6.68389h24.7111v-8.10263h-21.57126v1.82298h-14.07772v0h-0.00003h-0.00002h-0.00003z"/><path d="M329.17987,197.21799c0,4.36246 -3.94505,7.89886 -8.81035,7.89886c-4.8653,0 -8.81036,-3.53641 -8.81036,-7.89886c0,-4.36242 3.94505,-7.89885 8.81036,-7.89885c4.8653,0 8.81035,3.53643 8.81035,7.89885"/></g></g></g></svg>