<svg version="1.1" xmlns="http://www.w3.org/2000/svg" xmlns:xlink="http://www.w3.org/1999/xlink" width="384" height="230" viewBox="0,0,384,230"><g transform="translate(-48,-65)"><g data-paper-data="{&quot;isPaintingLayer&quot;:true}" fill-rule="nonzero" stroke="none" stroke-linecap="butt" stroke-linejoin="miter" stroke-miterlimit="10" stroke-dasharray="" stroke-dashoffset="0" style="mix-blend-mode: normal"><path d="M48,295v-230h384v230z" fill="none" stroke-width="0"/><path d="M240,203.27658c6.46571,0 11.96157,-2.263 16.48757,-6.789c4.526,-4.526 6.789,-10.02186 6.789,-16.48757c0,-6.46571 -2.263,-11.96158 -6.789,-16.48758c-4.526,-4.526 -10.02186,-6.789 -16.48757,-6.789v23.27658l-16.48758,16.48757c2.263,2.13369 4.8008,3.79861 7.61338,4.99476c2.81259,1.19616 5.77065,1.79424 8.8742,1.79424zM240,218.79429c-5.36654,0 -10.4098,-1.01835 -15.12978,-3.05505c-4.71997,-2.0367 -8.8257,-4.8008 -12.31719,-8.29228c-3.49149,-3.49149 -6.25558,-7.59722 -8.29228,-12.31719c-2.0367,-4.71997 -3.05505,-9.76323 -3.05505,-15.12977c0,-5.36654 1.01835,-10.4098 3.05505,-15.12978c2.0367,-4.71997 4.80079,-8.8257 8.29228,-12.31719c3.49149,-3.49149 7.59722,-6.25558 12.31719,-8.29228c4.71997,-2.0367 9.76323,-3.05505 15.12978,-3.05505c5.36654,0 10.4098,1.01835 15.12977,3.05505c4.71997,2.0367 8.8257,4.8008 12.31719,8.29228c3.49149,3.49149 6.25558,7.59722 8.29228,12.31719c2.0367,4.71997 3.05505,9.76323 3.05505,15.12978c0,5.36654 -1.01835,10.4098 -3.05505,15.12977c-2.0367,4.71997 -4.8008,8.8257 -8.29228,12.31719c-3.49149,3.49149 -7.59722,6.25558 -12.31719,8.29228c-4.71997,2.0367 -9.76323,3.05505 -15.12977,3.05505zM240,211.03543c8.66406,0 16.00264,-3.00656 22.01576,-9.01967c6.01312,-6.01312 9.01967,-13.3517 9.01967,-22.01576c0,-8.66406 -3.00656,-16.00265 -9.01967,-22.01576c-6.01312,-6.01312 -13.3517,-9.01967 -22.01576,-9.01967c-8.66406,0 -16.00265,3.00656 -22.01576,9.01967c-6.01312,6.01312 -9.01967,13.3517 -9.01967,22.01576c0,8.66406 3.00656,16.00264 9.01967,22.01576c6.01312,6.01312 13.3517,9.01967 22.01576,9.01967z" fill="#ffffff" stroke-width="1"/></g></g></svg>