<svg version="1.1" xmlns="http://www.w3.org/2000/svg" xmlns:xlink="http://www.w3.org/1999/xlink" width="384" height="230" viewBox="0,0,384,230"><g transform="translate(-48,-65)"><g data-paper-data="{&quot;isPaintingLayer&quot;:true}" fill-rule="nonzero" stroke="none" stroke-width="0" stroke-linejoin="miter" stroke-miterlimit="10" stroke-dasharray="" stroke-dashoffset="0" style="mix-blend-mode: normal"><path d="M48,295v-230h384v230z" fill="none" stroke-linecap="butt"/><g fill="#ffffff" stroke-linecap="round"><path d="M239.08811,214.50055c0,0 -14.1171,0.40389 -23.10122,0.15198c-19.47919,-0.54619 -28.43609,-9.12915 -28.49657,-35.71569c-0.03651,-16.0486 0.82444,-18.73819 0.68392,-31.15625c-0.14157,-12.51042 10.85135,-23.94243 24.925,-24.01311c24.16877,-0.12138 26.90076,21.88537 26.90076,21.88537h-22.11334zM216.31404,182.54228c14.42542,0.39474 13.19962,-16.07206 13.19962,-16.07206l-10.7375,0.13678l0.20517,4.92422l4.70828,0.00973c0,0 -1.69693,5.95373 -7.66997,5.78226c-0.8374,-0.02403 -7.55195,-1.08458 -7.75906,-8.28206c-0.05056,-1.75731 1.57496,-7.62958 7.45579,-7.56746c4.72431,0.0499 6.46722,1.98058 6.46722,1.98058l3.76646,-3.97427c0,0 -4.09361,-3.54582 -9.20574,-3.62615c-10.59188,-0.16641 -13.85084,10.17098 -13.82462,12.94304c0.08783,9.29368 8.36693,13.60781 13.39437,13.74539z"/><path d="M240.91189,145.49945c0,0 14.1171,-0.40389 23.10122,-0.15198c19.47919,0.54619 28.43609,9.12915 28.49657,35.71569c0.03651,16.0486 -0.82444,18.7382 -0.68392,31.15625c0.14157,12.51041 -10.85134,23.94243 -24.925,24.01311c-24.16878,0.12138 -26.90077,-21.88537 -26.90077,-21.88537h22.11335zM265.62451,179.0714l-10.1864,0.13044l-0.0715,3.53966l16.82295,0.05564c0,0 -0.51143,2.54294 -1.2452,3.90034c-0.90054,1.66588 -3.76091,5.36037 -3.76091,5.36037l-3.62577,-5.61964l-3.99103,-0.0157l5.18815,8.51304l-8.46265,8.69654l1.77953,2.42014l9.22952,-9.13163l5.09371,5.44337l1.90563,-3.37068l-4.5419,-4.3064c0,0 2.95128,-3.69021 3.71709,-5.04321c1.12499,-1.9876 2.61232,-6.83366 2.61232,-6.83366l4.86409,0.01608l0.10227,-3.3837l-11.94196,-0.16581l-0.0684,-3.35119l-3.55638,0.13678z" data-paper-data="{&quot;index&quot;:null}"/></g></g></g></svg>