<svg version="1.1" xmlns="http://www.w3.org/2000/svg" xmlns:xlink="http://www.w3.org/1999/xlink" width="384" height="230" viewBox="0,0,384,230"><g transform="translate(-48,-65)"><g data-paper-data="{&quot;isPaintingLayer&quot;:true}" fill-rule="nonzero" stroke="none" stroke-linecap="butt" stroke-linejoin="miter" stroke-miterlimit="10" stroke-dasharray="" stroke-dashoffset="0" style="mix-blend-mode: normal"><path d="M48,295v-230h384v230z" fill="none" stroke-width="0"/><g stroke-width="1"><g><path d="M174.91396,194.80857v-40.00702h23.64593v5.0158h-18.74956v12.30067h16.83877v5.0158h-16.83877v12.53951h20.06322v5.0158h-24.95958z" fill-opacity="0.70968" fill="#ffffff"/><path d="M224.71374,194.80857l-8.12084,-10.62874l-8.12081,10.62874h-5.73235l11.10642,-14.21146l-11.70354,-14.68914h6.44889l8.00139,10.98702l8.12084,-10.98702h6.32946l-11.10642,14.68914l10.50931,14.21146z" fill-opacity="0.70968" fill="#ffffff"/><path d="M238.32806,190.50931v19.70494h-4.89639v-29.49771c0,-7.52371 5.73235,-15.52512 14.68914,-15.52512c9.07622,0 15.88338,5.73235 15.88338,15.16684c0,9.19564 -6.9266,15.52512 -14.80857,15.52512c-3.82155,0 -8.95677,-1.67193 -10.86756,-5.37407zM258.86896,180.35828c0,-6.44889 -4.17983,-10.27045 -11.5841,-9.91218c-3.58271,0.11943 -9.07622,2.74674 -8.59852,11.94238c0.11943,2.98561 3.22445,8.59852 10.03161,8.59852c5.85178,0 10.15102,-3.34385 10.15102,-10.62872z" fill-opacity="0.70968" fill="#ffffff"/><path d="M268.18402,194.80857v-28.9006h4.89639v3.10503c2.38847,-2.74674 6.09062,-3.70215 10.03161,-3.70215v5.25464c-0.59711,-0.11943 -6.44889,-0.83597 -10.03161,6.80716v17.55531h-4.89639z" fill-opacity="0.70968" fill="#ffffff"/><path d="M284.42567,180.35828c0,-8.35968 5.97119,-15.16684 14.21144,-15.16684c10.27045,0 14.09203,6.80716 14.09203,15.52512v2.38847h-22.92939c0.35827,5.49351 5.25467,8.35968 9.79277,8.24025c3.34387,-0.11943 5.61291,-1.07481 8.00139,-3.46329l3.22445,3.34387c-2.98561,2.86617 -6.80716,4.77694 -11.4647,4.77694c-8.71796,-0.11943 -14.92798,-6.5683 -14.92798,-15.64452zM298.27884,170.08783c-4.65754,0 -8.24025,4.06039 -8.47909,8.47909h17.79415c0,-4.29926 -3.10501,-8.47909 -9.31506,-8.47909z" fill-opacity="0.70968" fill="#ffffff"/><path d="M315.23704,190.74815l3.58271,-3.22445c-0.11943,0 1.79136,1.91077 2.0302,2.0302c0.83597,0.71654 1.67195,1.19425 2.74677,1.43309c3.10501,0.83597 8.71793,0.59713 9.19564,-3.70213c0.23884,-2.38847 -1.55252,-3.70215 -3.58271,-4.53812c-2.62733,-0.95539 -5.49348,-1.31365 -8.12081,-2.5079c-2.98561,-1.31365 -4.89639,-3.58269 -4.89639,-6.92657c0,-8.71796 12.4201,-10.15104 18.03302,-6.09062c0.23884,0.23884 2.98561,2.74674 2.86617,2.74674l-3.58271,2.86617c-1.79136,-2.14963 -3.46331,-3.22445 -7.28487,-3.22445c-1.91079,0 -4.5381,0.83597 -5.0158,2.86617c-0.71654,2.86617 2.5079,3.94099 4.65754,4.5381c2.86617,0.71654 5.97121,1.19425 8.47912,2.74677c3.46329,2.14963 4.29924,6.80716 2.98558,10.38988c-1.43309,3.94099 -5.73235,5.49348 -9.5539,5.61291c-4.5381,0.23884 -8.47909,-1.19425 -11.70354,-4.4187c-0.23884,0 -0.83597,-0.59711 -0.83597,-0.59711z" fill-opacity="0.70968" fill="#ffffff"/><path d="M340.43549,190.74815l3.58271,-3.22445c-0.11943,0 1.79136,1.91077 2.0302,2.0302c0.83597,0.71654 1.67193,1.19425 2.74674,1.43309c3.10501,0.83597 8.71796,0.59713 9.19566,-3.70213c0.23884,-2.38847 -1.55252,-3.70215 -3.58271,-4.53812c-2.62733,-0.95539 -5.49351,-1.31365 -8.12084,-2.5079c-2.98561,-1.31365 -4.89638,-3.58269 -4.89638,-6.92657c0,-8.71796 12.4201,-10.15104 18.03302,-6.09062c0.23884,0.23884 2.98561,2.74674 2.86617,2.74674l-3.58271,2.86617c-1.79136,-2.14963 -3.46331,-3.22445 -7.28487,-3.22445c-1.91079,0 -4.5381,0.83597 -5.0158,2.86617c-0.71654,2.86617 2.5079,3.94099 4.65754,4.5381c2.86617,0.71654 5.97119,1.19425 8.47909,2.74677c3.46329,2.14963 4.29926,6.80716 2.98561,10.38988c-1.43309,3.94099 -5.73235,5.49348 -9.5539,5.61291c-4.5381,0.23884 -8.47912,-1.19425 -11.70356,-4.4187c-0.23884,0 -0.83595,-0.59711 -0.83595,-0.59711z" fill-opacity="0.70968" fill="#ffffff"/><g fill="#ffffff"><path d="M363.72315,165.90797v-3.10501h-1.07481v-0.59711h2.86617v0.59711h-1.07481v3.10501z"/><path d="M369.09723,165.90797v-2.86617l-1.07481,2.86617h-0.23886l-1.07481,-2.86617v2.86617h-0.59711v-3.70213h0.95539l0.95541,2.5079l0.95539,-2.5079h0.95539v3.70213z"/></g></g><g fill="#ffffff"><path d="M141.71411,194.80857l-3.58271,-9.55393h-19.34667l-3.58271,9.55393h-5.13522l15.52509,-40.00702h5.61294l15.40568,40.00702zM128.21922,160.5339l-7.28487,19.82438h15.16684z"/><path d="M149.83495,194.80857v-40.00702h5.0158v40.00702z"/><path d="M162.37446,194.80857v-28.30347h5.0158v28.30347z"/><path d="M165.1212,164.35548c-0.11943,0 -0.23884,0 -0.35827,0c-0.11943,0 -0.23884,0 -0.35827,0c-0.11943,-3.82155 -3.22445,-6.9266 -7.046,-7.04603c0,-0.11943 0,-0.11941 0,-0.23884c0,-0.11943 0,-0.11941 0,-0.23884c3.82155,-0.11943 6.92657,-3.22447 7.046,-7.04603c0.11943,0 0.23884,0 0.35827,0c0.11943,0 0.23884,0 0.35827,0c0.11943,3.82155 3.22445,6.9266 7.046,7.04603c0,0.11943 0,0.11941 0,0.23884c0,0.11943 0,0.11941 0,0.23884c-3.82155,0.11943 -6.92657,3.22447 -7.046,7.04603z"/></g></g></g></g></svg>