<svg version="1.1" xmlns="http://www.w3.org/2000/svg" xmlns:xlink="http://www.w3.org/1999/xlink" width="384" height="230" viewBox="0,0,384,230"><g transform="translate(-48,-65)"><g data-paper-data="{&quot;isPaintingLayer&quot;:true}" fill-rule="nonzero" stroke="none" stroke-linecap="butt" stroke-linejoin="miter" stroke-miterlimit="10" stroke-dasharray="" stroke-dashoffset="0" style="mix-blend-mode: normal"><path d="M48,295v-230h384v230z" fill="none" stroke-width="0"/><g fill="#ffffff" stroke-width="1"><path d="M313.3577,177.9752c-19.88792,14.65898 -48.71426,22.48007 -73.5332,22.48007c-34.80016,0 -66.12922,-12.87129 -89.83087,-34.27875c-1.86216,-1.6834 -0.19367,-3.97759 2.04094,-2.66663c25.5787,14.88243 57.20573,23.83573 89.87557,23.83573c22.03313,0 46.27108,-4.55859 68.55748,-14.01839c3.3668,-1.43015 6.18239,2.2048 2.89008,4.64796"/><path d="M321.62573,168.5154c-2.53255,-3.24762 -16.80419,-1.53442 -23.21004,-0.77466c-1.95155,0.23836 -2.2495,-1.45994 -0.49162,-2.68153c11.36667,-7.99986 30.01812,-5.69078 32.19313,-3.00926c2.175,2.69642 -0.5661,21.39257 -11.24749,30.31606c-1.6387,1.37056 -3.20293,0.6406 -2.47295,-1.17689c2.39846,-5.98872 7.7764,-19.41121 5.22896,-22.67373"/></g></g></g></svg>