<svg version="1.1" xmlns="http://www.w3.org/2000/svg" xmlns:xlink="http://www.w3.org/1999/xlink" width="384" height="230" viewBox="0,0,384,230"><g transform="translate(-48,-65)"><g data-paper-data="{&quot;isPaintingLayer&quot;:true}" fill-rule="nonzero" stroke="none" stroke-linecap="butt" stroke-linejoin="miter" stroke-miterlimit="10" stroke-dasharray="" stroke-dashoffset="0" style="mix-blend-mode: normal"><path d="M48,295v-230h384v230z" fill="none" stroke-width="0"/><g fill="#ffffff" stroke-width="1"><path d="M337.18848,177.31743c-26.34866,19.42105 -64.53944,29.78289 -97.42099,29.78289c-46.10524,0 -87.61178,-17.05262 -119.01308,-45.41445c-2.4671,-2.23027 -0.25659,-5.26974 2.70395,-3.5329c33.88813,19.7171 75.78943,31.57894 119.0723,31.57894c29.19075,0 61.30258,-6.03948 90.82888,-18.57236c4.46053,-1.89475 8.19078,2.92105 3.82895,6.15789"/><path d="M348.14243,164.78455c-3.35527,-4.30263 -22.26315,-2.03289 -30.74999,-1.02631c-2.58553,0.31579 -2.98026,-1.93421 -0.65133,-3.55264c15.05921,-10.59867 39.76973,-7.53947 42.6513,-3.98684c2.88156,3.57237 -0.75,28.3421 -14.90132,40.16445c-2.17105,1.81579 -4.24342,0.8487 -3.2763,-1.55921c3.17762,-7.9342 10.30262,-25.71708 6.92763,-30.03945"/></g></g></g></svg>