<svg version="1.1" xmlns="http://www.w3.org/2000/svg" xmlns:xlink="http://www.w3.org/1999/xlink" width="44.16667" height="44.16667" viewBox="0,0,44.16667,44.16667"><g transform="translate(-217.91667,-157.91666)"><g data-paper-data="{&quot;isPaintingLayer&quot;:true}" stroke="none" stroke-linecap="butt" stroke-linejoin="miter" stroke-miterlimit="10" stroke-dasharray="" stroke-dashoffset="0" style="mix-blend-mode: normal"><path d="M217.91668,202.08333v-44.16667h44.16667v44.16667z" fill="none" fill-rule="nonzero" stroke-width="0.5"/><path d="M240.20724,174.96899c0.05038,-0.00414 0.2512,0.02674 0.33026,0.05078c0.07537,0.02294 0.33974,0.1551 0.9643,0.48207c0.13504,0.07069 0.31616,0.16525 0.58611,0.30599c0.08856,0.04616 0.35808,0.1867 0.59895,0.31231c0.24088,0.12558 0.51621,0.26905 0.61186,0.31877c0.09565,0.04972 0.22606,0.11781 0.28983,0.15131c0.06376,0.03347 0.19418,0.10157 0.28983,0.15131c0.6303,0.3277 1.09523,0.5714 1.21728,0.63808c1.94267,1.06098 3.32202,2.94661 3.7538,5.13158c0.22171,1.12202 0.1812,2.30747 -0.11656,3.41143c-0.24605,0.91217 -0.72826,1.91807 -1.20163,2.50661c-0.16726,0.20799 -0.2073,0.23655 -0.09225,0.06588c0.21632,-0.32091 0.35773,-0.70439 0.42853,-1.16202c0.03262,-0.21085 0.03241,-0.72642 -0.0004,-0.95966c-0.08391,-0.59667 -0.27677,-1.18941 -0.49452,-1.51996c-0.3035,-0.46068 -0.78331,-0.84893 -1.47101,-1.19027c-0.53084,-0.26347 -1.14686,-0.48536 -2.27442,-0.81923c-1.15753,-0.34274 -1.30515,-0.39766 -1.60262,-0.59633c-0.16926,-0.11305 -0.26934,-0.19692 -0.42107,-0.35287c-0.19774,-0.20324 -0.35601,-0.42967 -0.46856,-0.67036c-0.04645,-0.09939 -0.32269,-0.80556 -1.46288,-3.73967c-0.50116,-1.28962 -0.50596,-1.30463 -0.49065,-1.52572c0.03552,-0.51313 0.41762,-0.92002 0.91864,-0.97824c0.04834,-0.00563 0.09657,-0.01093 0.10719,-0.01181z" fill="#000000" fill-rule="evenodd" stroke-width="1"/><path d="M241.9623,185.62362c0.05845,-0.03515 0.14975,-0.09092 0.20289,-0.12392c0.05312,-0.03297 -0.11608,-0.00291 0.75887,-0.54434c0.87495,-0.54143 1.60045,-0.98488 1.61221,-0.98549c0.02482,-0.0013 0.24712,0.09745 0.46237,0.20536c0.77962,0.3908 1.32233,0.87606 1.57709,1.41011c0.15535,0.32569 0.29944,0.83718 0.36285,1.28811c0.03281,0.23324 0.03302,0.74881 0.0004,0.95966c-0.07051,0.45576 -0.21268,0.84224 -0.4259,1.15775c-0.05246,0.07762 -0.09748,0.14706 -0.10003,0.15431c-0.01258,0.03565 -0.26583,0.31651 -0.43381,0.48101c-0.40291,0.39469 -0.66152,0.586 -1.52878,1.13096c0,0 -4.19488,2.7332 -5.87854,2.82425c-0.26214,0.01991 -0.97311,0.00876 -1.22429,-0.01938c-0.66845,-0.07433 -1.2828,-0.2259 -1.8916,-0.46641c-2.11422,-0.83561 -3.67598,-2.59194 -4.22482,-4.75131c-0.07092,-0.27902 -0.13677,-0.60527 -0.16768,-0.83083c-0.02972,-0.21688 -0.04619,-0.38276 -0.03707,-0.37355c0.00349,0.00355 0.02473,0.09628 0.04718,0.2061c0.09758,0.47719 0.28597,0.89892 0.5772,1.29209c0.12358,0.16687 0.44685,0.48988 0.61856,0.61809c0.43774,0.32683 0.94887,0.53376 1.5037,0.60866c0.20461,0.02766 0.59293,0.02755 0.79813,-0.00016c0.44077,-0.05956 0.87134,-0.21122 1.24354,-0.43795c0.49006,-0.29857 1.46674,-0.90357 1.48779,-0.92162c0.01418,-0.01216 0.11561,-0.0772 0.22543,-0.14451c0.10979,-0.06734 4.43431,-2.73699 4.43431,-2.73699z" fill="#000000" fill-rule="nonzero" stroke-width="1"/><path d="M231.00959,179.56577h0.0005l0.00022,-6.10891c0.00019,-5.16945 0.00299,-6.12189 0.01816,-6.19346c0.09752,-0.46 0.47264,-0.79835 0.94126,-0.84896c0.16079,-0.01736 0.3299,0.00361 0.48949,0.0607c0.12269,0.0439 0.15446,0.06336 0.56033,0.34321c0.19483,0.13432 0.5687,0.39201 0.83084,0.57262c0.26214,0.18062 0.68817,0.4742 0.94676,0.65241c0.25858,0.17819 0.64116,0.44168 0.85016,0.58551c0.42001,0.28903 0.56099,0.398 0.72601,0.56116c0.53766,0.53163 0.8574,1.23449 0.90943,1.99904c0.00826,0.12166 0.01304,1.67244 0.01316,4.2837l0.00019,4.093v4.47411v3.54554l-0.63439,0.39137c-0.34892,0.21526 -0.70976,0.43742 -0.80185,0.4937c-0.5457,0.33355 -1.07526,0.48624 -1.68743,0.48656c-0.58449,0.00026 -1.11812,-0.14449 -1.61392,-0.4379c-0.23431,-0.13865 -0.39965,-0.26867 -0.61588,-0.48433c-0.45969,-0.45847 -0.72411,-0.95209 -0.87673,-1.63674l-0.04881,-0.21897l-0.00375,-2.8424z" fill="#000000" fill-rule="nonzero" stroke-width="1"/></g></g></svg>