<svg viewBox="0,0,384,230" height="230" width="384" xmlns:xlink="http://www.w3.org/1999/xlink" xmlns="http://www.w3.org/2000/svg" version="1.1"><g transform="translate(-48,-65)"><g style="mix-blend-mode: normal" stroke-dashoffset="0" stroke-dasharray="" stroke-miterlimit="10" stroke-linejoin="miter" stroke-linecap="butt" stroke="none" fill-rule="nonzero" data-paper-data="{&quot;isPaintingLayer&quot;:true}"><path stroke-width="0" fill="none" d="M48,295v-230h384v230z"></path><path stroke-width="1" fill="#ffffff" d="M303.38634,188.98818c0,3.59401 -3.72078,7.974 -8.0057,7.974c-2.73829,0 -4.22787,-1.9523 -4.81102,-4.64622c-1.76848,2.9855 -4.07574,4.68425 -6.92179,4.68425c-2.61786,0 -5.6604,-1.78749 -5.6604,-8.15782c0,-2.21218 0.46906,-4.42437 1.26773,-6.44639c-1.87624,1.32477 -3.82854,1.36914 -5.12796,1.20434c-3.31511,6.86474 -8.78535,13.34916 -11.86592,13.34916c-2.5101,0 -4.11377,-4.72228 -4.85539,-10.57284c-2.37065,6.26257 -5.92662,10.54749 -9.42555,10.54749c-3.15664,0 -4.68425,-2.37699 -4.68425,-5.97099c0,-3.32778 1.79383,-8.53814 1.79383,-11.07993c0,-0.57682 -0.13945,-1.06489 -0.64654,-1.06489c-1.71143,0 -7.30211,7.63805 -9.565,16.99388c-0.21551,0.88741 -1.42619,1.12194 -2.44037,1.12194c-2.1488,0 -2.71294,-2.33262 -2.68124,-4.81102c-2.13612,3.15664 -4.38,4.85539 -7.06124,4.85539c-2.33896,0 -4.13913,-1.52761 -4.81736,-4.65256c-1.76214,2.9855 -4.0694,4.68425 -6.92179,4.68425c-3.20735,0 -5.31178,-2.42136 -5.64138,-7.0549c-2.90309,5.59068 -8.28459,10.38268 -14.44575,10.38268c-9.03255,0 -14.25559,-6.383 -14.25559,-16.96852c0,-13.30479 10.38268,-23.68748 20.70198,-23.68748c6.24355,0 9.77417,3.18199 9.77417,7.5303c0,4.3483 -3.19467,7.53664 -5.90761,7.53664c-0.67823,0 -1.02052,-0.40567 -1.02052,-0.81768c0,-1.34379 1.97132,-2.9855 1.97132,-6.51612c0,-2.91577 -1.42619,-4.81736 -4.41169,-4.81736c-6.24355,0 -14.66126,9.3685 -14.66126,20.83509c0,7.94231 3.18833,12.96885 9.22905,12.96885c6.65557,0 11.5997,-6.63655 14.05275,-13.50763c1.83187,-5.14697 6.00269,-9.09594 9.73614,-9.09594c2.27557,0 3.9046,1.05221 4.44972,3.46089c1.55297,-2.73195 3.16298,-3.29609 4.64622,-3.29609c1.35013,0 1.94596,0.49441 1.94596,1.45789c0,0.34229 -0.07606,0.73528 -0.21551,1.19166c-1.09025,3.51794 -3.25806,11.20037 -3.25806,14.83874c0,1.31844 0.36764,2.13612 1.12194,2.13612c4.15181,0 8.5318,-12.89278 8.20853,-17.92566c-0.03047,-0.48866 0.24106,-0.94623 0.68457,-1.15363c0.64557,-0.34722 1.36514,-0.53418 2.09809,-0.54512c3.37849,0 2.90943,4.57649 1.76848,9.30512c3.46723,-6.17383 7.13096,-9.46992 9.90095,-9.46992c2.35163,0 3.60034,1.80017 3.60034,4.64622c0,3.87291 -2.0347,8.41137 -2.0347,12.04341c0,1.15363 0.24087,2.0347 1.12194,2.0347c1.90159,0 4.81736,-3.82854 6.23088,-8.87409c0.3363,-1.20518 0.53199,-2.44524 0.58315,-3.69542c0.15847,-3.28975 1.20434,-6.15481 4.58917,-6.15481c1.45155,0 1.81285,0.38032 1.81285,0.93812c0,0.96981 -0.26622,1.13462 -0.32327,4.34196c-0.08874,5.59068 0.38032,13.40621 1.97765,13.40621c1.23603,0 4.49409,-4.56382 6.72529,-9.60937c-2.66223,-1.33111 -3.87291,-4.07574 -3.87291,-6.74431c0,-3.45456 1.98399,-6.73797 5.42587,-6.73797c2.26289,0 3.66373,1.71143 3.66373,4.5448c0,1.80651 -0.49441,4.24055 -1.82553,7.4986c1.85088,0.4437 4.31027,-0.45638 6.40202,-3.20101c2.09175,-2.74463 4.63354,-4.43704 7.26407,-4.43704c2.27557,0 3.9046,1.05221 4.44338,3.46089c1.5593,-2.73195 3.16298,-3.31511 4.65256,-3.31511c1.38182,0 1.93962,0.50075 1.93962,1.52127c0,0.32327 -0.0824,0.70359 -0.20917,1.12828c-1.09658,3.5116 -3.27074,11.21304 -3.27074,14.84508c0,1.45155 0.33595,2.37699 1.16631,2.37699c1.44521,0 3.20101,-2.20584 4.50043,-5.91395c0.10142,-0.29158 0.29792,-0.43103 0.51343,-0.43103c0.4754,0 0.88107,0.57682 0.88107,1.52761zM219.4755,180.81135c0,-2.05372 -0.53878,-3.73346 -1.96498,-3.73346c-3.2644,0 -6.35131,7.53664 -6.35131,12.04974c0,2.59884 0.67823,4.34196 2.40868,4.34196c2.97282,0 5.90761,-8.07542 5.90761,-12.65825zM273.9624,174.11141c0,-1.10292 -0.24721,-1.89525 -1.05221,-1.89525c-0.80501,0 -1.4769,1.55297 -1.4769,3.39117c0,1.48958 0.37398,3.16298 1.40718,4.39267c0.46272,-1.35013 1.12194,-4.04405 1.12194,-5.88859zM292.16062,180.81135c0,-2.06639 -0.50709,-3.73346 -1.93328,-3.73346c-3.28975,0 -6.37667,7.6951 -6.37667,12.04974c0,2.33896 0.67823,4.34196 2.40868,4.34196c3.01719,0 5.90127,-8.07542 5.90127,-12.65825z"></path></g></g></svg>