<svg version="1.1" xmlns="http://www.w3.org/2000/svg" xmlns:xlink="http://www.w3.org/1999/xlink" width="384" height="230" viewBox="0,0,384,230"><g transform="translate(-48,-65)"><g data-paper-data="{&quot;isPaintingLayer&quot;:true}" fill-rule="nonzero" stroke-linecap="butt" stroke-linejoin="miter" stroke-miterlimit="10" stroke-dasharray="" stroke-dashoffset="0" style="mix-blend-mode: normal"><path d="M48,295v-230h384v230z" fill="none" stroke="none" stroke-width="0"/><path d="M191.84475,218.26231c0,-11.519 0,-71.71445 0,-77.12515c0,-0.76731 0.50242,-1.29851 1.25005,-1.29851c5.94489,0 80.08674,0 93.11295,0c1.25939,0 1.94751,0.70383 1.94751,1.68221c0,5.89799 0,62.52823 0,75.84613c0,1.78715 -1.04811,2.79437 -2.45912,2.79437c-8.0608,0 -81.46893,0 -92.47344,0c-0.89567,0 -1.37794,-1.14876 -1.37794,-1.89905z" fill="none" stroke="#ffffff" stroke-width="14.5"/><path d="M249.62766,217.87859v-6.77883h21.61551v6.77883z" fill="#ffffff" stroke="none" stroke-width="0"/><g fill="#ffffff" stroke="none" stroke-width="0"><path d="M223.13787,196.54947v-5.75561c0,0 2.87216,-8.42966 16.42267,-8.28808c14.68958,0.15348 16.95986,8.28808 16.95986,8.28808v5.75561z"/><path d="M247.17533,170.38063c0,4.06878 -3.21251,7.36717 -7.17533,7.36717c-3.96282,0 -7.17533,-3.2984 -7.17533,-7.36717c0,-4.06878 3.21251,-7.36717 7.17533,-7.36717c3.96282,0 7.17533,3.2984 7.17533,7.36717z"/></g><g fill-opacity="0.58433" fill="#ffffff" stroke="none" stroke-width="0"><path d="M208.63373,196.54947v-4.30683c0,0 2.14919,-6.30778 12.28882,-6.20183c10.99197,0.11485 12.69079,6.20183 12.69079,6.20183v4.30683z"/><path d="M226.62057,176.96776c0,3.0446 -2.40387,5.51273 -5.36917,5.51273c-2.96532,0 -5.36917,-2.46813 -5.36917,-5.51273c0,-3.0446 2.40387,-5.51273 5.36917,-5.51273c2.96532,0 5.36917,2.46813 5.36917,5.51273z"/></g><g fill-opacity="0.58433" fill="#ffffff" stroke="none" stroke-width="0"><path d="M246.92772,196.74132v-4.30683c0,0 2.14919,-6.30778 12.28882,-6.20183c10.99197,0.11485 12.69079,6.20183 12.69079,6.20183v4.30683z"/><path d="M264.91455,177.15961c0,3.0446 -2.40387,5.51273 -5.36917,5.51273c-2.96532,0 -5.36917,-2.46813 -5.36917,-5.51273c0,-3.0446 2.40387,-5.51273 5.36917,-5.51273c2.96532,0 5.36917,2.46814 5.36917,5.51273z"/></g></g></g></svg>