<svg version="1.1" xmlns="http://www.w3.org/2000/svg" xmlns:xlink="http://www.w3.org/1999/xlink" width="384" height="230" viewBox="0,0,384,230"><g transform="translate(-48,-65)"><g data-paper-data="{&quot;isPaintingLayer&quot;:true}" fill-rule="nonzero" stroke-linecap="butt" stroke-linejoin="miter" stroke-miterlimit="10" stroke-dasharray="" stroke-dashoffset="0" style="mix-blend-mode: normal"><path d="M48,295v-230h384v230z" fill="none" stroke="none" stroke-width="0"/><path d="M185.25,223.50224c0,-13.0965 0,-81.53557 0,-87.68725c0,-0.87239 0.57122,-1.47634 1.42124,-1.47634c6.75903,0 91.05443,0 105.86454,0c1.43186,0 2.21422,0.80022 2.21422,1.91259c0,6.7057 0,71.09132 0,86.23307c0,2.0319 -1.19165,3.17705 -2.79589,3.17705c-9.16471,0 -92.6259,0 -105.13745,0c-1.01833,0 -1.56665,-1.30608 -1.56665,-2.15912z" fill="none" stroke="#ffffff" stroke-width="14.5"/><path d="M250.94614,223.06598v-7.70717h24.5757v7.70717z" fill="#ffffff" stroke="none" stroke-width="0"/><g fill="#ffffff" stroke="none" stroke-width="0"><path d="M220.82864,198.81588v-6.54383c0,0 3.2655,-9.58408 18.67172,-9.42311c16.70128,0.1745 19.28247,9.42311 19.28247,9.42311v6.54383z"/><path d="M248.15797,169.06329c0,4.62599 -3.65245,8.37609 -8.15797,8.37609c-4.50552,0 -8.15797,-3.75011 -8.15797,-8.37609c0,-4.62599 3.65245,-8.37609 8.15797,-8.37609c4.50552,0 8.15797,3.75011 8.15797,8.37609z"/></g><g fill-opacity="0.58433" fill="#ffffff" stroke="none" stroke-width="0"><path d="M204.3382,198.81588v-4.89664c0,0 2.44352,-7.17161 13.97174,-7.05116c12.49729,0.13058 14.42876,7.05116 14.42876,7.05116v4.89664z"/><path d="M224.78829,176.55251c0,3.46155 -2.73307,6.26769 -6.10447,6.26769c-3.37141,0 -6.10447,-2.80614 -6.10447,-6.26769c0,-3.46155 2.73307,-6.26769 6.10447,-6.26769c3.37141,0 6.10447,2.80614 6.10447,6.26769z"/></g><g fill-opacity="0.58433" fill="#ffffff" stroke="none" stroke-width="0"><path d="M247.87645,199.03401v-4.89664c0,0 2.44352,-7.17161 13.97174,-7.05116c12.49729,0.13058 14.42876,7.05116 14.42876,7.05116v4.89664z"/><path d="M268.32654,176.77063c0,3.46155 -2.73307,6.26769 -6.10447,6.26769c-3.37141,0 -6.10447,-2.80614 -6.10447,-6.26769c0,-3.46155 2.73307,-6.26769 6.10447,-6.26769c3.37141,0 6.10447,2.80615 6.10447,6.26769z"/></g></g></g></svg>