<svg version="1.1" xmlns="http://www.w3.org/2000/svg" xmlns:xlink="http://www.w3.org/1999/xlink" width="384" height="230" viewBox="0,0,384,230"><g transform="translate(-48,-65)"><g data-paper-data="{&quot;isPaintingLayer&quot;:true}" fill-rule="nonzero" stroke="none" stroke-linecap="butt" stroke-linejoin="miter" stroke-miterlimit="10" stroke-dasharray="" stroke-dashoffset="0" style="mix-blend-mode: normal"><path d="M48,295v-230h384v230z" fill="none" stroke-width="0"/><path d="M212.3331,225.24293c-3.77276,0 -7.50359,-0.92224 -11.19252,-2.76669c-3.68893,-1.84445 -6.66521,-4.27579 -8.92886,-7.294c2.17983,0 4.40155,-0.85936 6.66521,-2.57805c2.26366,-1.71869 3.39548,-4.21291 3.39548,-7.48264c0,-4.19196 1.46718,-7.75511 4.40155,-10.68949c2.93438,-2.93438 6.49752,-4.40155 10.68949,-4.40155c4.19196,0 7.75511,1.46718 10.68949,4.40155c2.93438,2.93438 4.40155,6.49752 4.40155,10.68949c0,5.53338 -1.97021,10.27028 -5.91066,14.21073c-3.94045,3.94045 -8.67735,5.91066 -14.21073,5.91066zM212.3331,215.18224c2.76669,0 5.13515,-0.98512 7.10536,-2.95533c1.97021,-1.97021 2.95533,-4.33867 2.95533,-7.10536c0,-1.42527 -0.48208,-2.61998 -1.44622,-3.58412c-0.96414,-0.96414 -2.15885,-1.44622 -3.58412,-1.44622c-1.42527,0 -2.61998,0.48208 -3.58412,1.44622c-0.96414,0.96414 -1.44622,2.15885 -1.44622,3.58412c0,1.92831 -0.23057,3.68893 -0.69167,5.28186c-0.46111,1.59293 -1.06895,3.10204 -1.8235,4.52731c0.4192,0.16769 0.83838,0.25152 1.25759,0.25152zM241.25759,195.06086l-13.83345,-13.83345l45.0216,-45.0216c0.92224,-0.92224 2.07502,-1.4043 3.45836,-1.44622c1.38335,-0.04193 2.57805,0.44016 3.58412,1.44622l6.79097,6.79097c1.00607,1.00607 1.5091,2.17983 1.5091,3.52124c0,1.34142 -0.50303,2.51517 -1.5091,3.52124z" fill="#ffffff" stroke-width="1"/></g></g></svg>