<svg version="1.1" xmlns="http://www.w3.org/2000/svg" xmlns:xlink="http://www.w3.org/1999/xlink" width="384" height="230" viewBox="0,0,384,230"><g transform="translate(-48,-65)"><g data-paper-data="{&quot;isPaintingLayer&quot;:true}" fill-rule="nonzero" stroke="none" stroke-linecap="butt" stroke-linejoin="miter" stroke-miterlimit="10" stroke-dasharray="" stroke-dashoffset="0" style="mix-blend-mode: normal"><path d="M48,295v-230h384v230z" fill="none" stroke-width="0"/><path d="M282.98803,129.30736c20.51381,19.41175 17.86676,56.62507 -4.86858,80.65115c-6.11255,6.45958 -13.3829,11.6697 -21.14531,15.45803c-6.29408,3.07174 -13.67611,4.58061 -20.26711,3.01136c-22.24475,-5.29624 4.89481,-22.08891 -7.70474,-33.32504c-11.45127,-10.21211 -25.219,24.045 -40.47286,12.13039c-6.51784,-5.09101 -5.75867,-16.02529 -4.77653,-24.98152c1.64417,-14.99334 8.70336,-30.56741 20.07948,-42.58938c22.73533,-24.02608 58.64184,-29.76674 79.15565,-10.35499zM244.01437,189.29121c4.55635,0 8.25,-3.69365 8.25,-8.25c0,-4.55635 -3.69365,-8.25 -8.25,-8.25c-4.55635,0 -8.25,3.69365 -8.25,8.25c0,4.55635 3.69365,8.25 8.25,8.25z" fill-opacity="0.66633" fill="#ffffff" stroke-width="0"/><path d="M217.74084,172.8488c0,5.79899 -4.68379,10.5 -10.46154,10.5c-5.77775,0 -10.46154,-4.70101 -10.46154,-10.5c0,-5.79899 4.68379,-10.5 10.46154,-10.5c5.77775,0 10.46154,4.70101 10.46154,10.5z" fill="#ffffff" stroke-width="0"/><path d="M232.58699,146.07957c0,5.79899 -4.68379,10.5 -10.46153,10.5c-5.77775,0 -10.46154,-4.70101 -10.46154,-10.5c0,-5.79899 4.68379,-10.5 10.46154,-10.5c5.77775,0 10.46153,4.70101 10.46153,10.5z" fill-opacity="0.92742" fill="#ffffff" stroke-width="0"/><path d="M260.92307,135.31034c0,5.79899 -4.68378,10.5 -10.46153,10.5c-5.77775,0 -10.46154,-4.70101 -10.46154,-10.5c0,-5.79899 4.68379,-10.5 10.46154,-10.5c5.77775,0 10.46153,4.70101 10.46153,10.5z" fill-opacity="0.75806" fill="#ffffff" stroke-width="0"/><path d="M259.86905,231.66941c0,-10.25242 0.15385,-59.84615 0.15385,-59.84615h11.30769c0,0 -0.15385,49.66407 -0.15385,59.69231c0,4.22227 -0.4427,9 -6.07692,9c-4.28807,0 -5.23077,-4.27176 -5.23077,-8.84615z" fill="#ffffff" stroke-width="0"/><path d="M261.60568,153.21184h8.11328c2.60301,0 4.15806,0 5.17222,0.35733c1.52124,0.43979 2.70443,1.40183 3.24531,2.61126c0.43947,0.85209 0.43947,2.11649 0.43947,4.23298c0,0 0.15692,1.16526 -0.51368,2.21c-1.51492,2.36012 -8.34332,11.58843 -8.34332,11.58843h-8.11328c0,0 -6.93836,-9.72549 -8.32726,-11.88929c-0.50377,-0.78483 -0.52973,-1.90914 -0.52973,-1.90914c0,-0.08921 0,-0.17691 0.00003,-0.26312c0.00075,-1.95923 0.01849,-3.15368 0.43944,-3.96986c0.54088,-1.20942 1.72407,-2.17147 3.21151,-2.61126c1.04797,-0.35733 2.60301,-0.35733 5.20602,-0.35733z" fill-opacity="0.79536" fill="#ffffff" stroke-width="1"/></g></g></svg>