<svg version="1.1" xmlns="http://www.w3.org/2000/svg" xmlns:xlink="http://www.w3.org/1999/xlink" width="384" height="230" viewBox="0,0,384,230"><g transform="translate(-48,-65)"><g data-paper-data="{&quot;isPaintingLayer&quot;:true}" fill-rule="nonzero" stroke="none" stroke-linecap="butt" stroke-linejoin="miter" stroke-miterlimit="10" stroke-dasharray="" stroke-dashoffset="0" style="mix-blend-mode: normal"><path d="M48,295v-230h384v230z" fill="none" stroke-width="0"/><path d="M181.65993,205.425c-1.09946,-1.92405 -1.64919,-4.05426 -1.64919,-6.18446h37.79392l-18.89696,32.70892c-1.85534,-1.09946 -3.43581,-2.61122 -4.53527,-4.53527l-5.29115,-9.13926z" fill-opacity="0.92251" fill="#ffffff" stroke-width="1"/><path d="M217.80466,199.24054h-37.79392c0.00144,-2.16998 0.56995,-4.3019 1.64919,-6.18446l34.90784,-60.47027c1.09946,-1.92405 2.67993,-3.43581 4.53527,-4.53527l18.89696,32.70892z" fill-opacity="0.60345" fill="#ffffff" stroke-width="1"/><path d="M270.23513,215.04527l-8.04255,-15.80473h37.79667c0,2.1302 -0.54973,4.26041 -1.64919,6.18446l-10.51358,18.2098l-2.19892,3.77939c-1.09946,1.92405 -2.67993,3.43581 -4.53527,4.53527z" fill-opacity="0.92251" fill="#ffffff" stroke-width="1"/><path d="M221.10304,128.05054c1.85534,-1.03074 3.98554,-1.64919 6.18446,-1.64919h25.425c2.19892,0 4.32912,0.54973 6.18446,1.64919l-18.89696,32.70892z" fill-opacity="0.92251" fill="#ffffff" stroke-width="1"/><path d="M281.0923,231.94946c-1.85534,1.03074 -3.98554,1.64919 -6.18446,1.64919h-69.81567c-2.19892,0 -4.32912,-0.54973 -6.18446,-1.64919l18.89696,-32.70892h44.39067z" fill-opacity="0.60345" fill="#ffffff" stroke-width="1"/><path d="M298.27135,193.05608c1.09946,1.92405 1.64919,4.05426 1.64919,6.18446h-37.7252l-22.19534,-38.48108l18.89696,-32.70892c1.85534,1.09946 3.43581,2.61122 4.53527,4.53527l17.45392,30.23513z" fill-opacity="0.60345" fill="#ffffff" stroke-width="1"/></g></g></svg>