<svg version="1.1" xmlns="http://www.w3.org/2000/svg" xmlns:xlink="http://www.w3.org/1999/xlink" width="44.16667" height="44.16667" viewBox="0,0,44.16667,44.16667"><g transform="translate(-217.91669,-157.91666)"><g data-paper-data="{&quot;isPaintingLayer&quot;:true}" fill-rule="nonzero" stroke="none" stroke-linecap="butt" stroke-linejoin="miter" stroke-miterlimit="10" stroke-dasharray="" stroke-dashoffset="0" style="mix-blend-mode: normal"><path d="M217.91669,202.08333v-44.16667h44.16667v44.16667z" fill="none" stroke-width="0.5"/><path d="M240,166.78571c-7.29759,0 -13.21429,5.9167 -13.21429,13.21429c0,7.29759 5.9167,13.21429 13.21429,13.21429c7.29759,0 13.21429,-5.9167 13.21429,-13.21429c0,-7.29759 -5.9167,-13.21429 -13.21429,-13.21429zM240,192.1131c-6.68973,0 -12.1131,-5.42446 -12.1131,-12.1131c0,-6.68863 5.42446,-12.1131 12.1131,-12.1131c6.68863,0 12.1131,5.42336 12.1131,12.1131c0,6.68973 -5.42336,12.1131 -12.1131,12.1131zM251.25307,180c0,5.29122 -3.65265,9.72682 -8.57387,10.92932c-0.29732,-0.57372 -0.58363,-1.11991 -0.82479,-1.58351c0.71027,0.2742 2.1253,0.79065 2.43143,0.67723c0.41405,-0.15857 0.31054,-3.46765 -0.15417,-3.57336c-0.3722,-0.08259 -1.79714,0.9217 -2.35765,1.33134l0.03744,0.17179c0.08589,0.43717 0.15857,1.09348 0.03304,1.37318c-0.0011,0.0044 -0.0022,0.01101 -0.0044,0.01432c-0.01617,0.03823 -0.04196,0.07162 -0.07488,0.0969c-0.31274,0.20702 -1.19039,0.31274 -1.65509,0.20702c-0.02395,-0.0058 -0.04749,-0.01316 -0.07048,-0.02202c-0.76423,0.43607 -2.21339,1.22122 -2.47768,1.06926c-0.36229,-0.20702 -0.41515,-2.94679 -0.36229,-3.62071c0.03854,-0.50655 1.82027,0.31494 2.68911,0.74771c0.19161,-0.17949 0.66292,-0.29952 1.07917,-0.34137c-0.62768,-1.52955 -1.09018,-3.27824 -0.80717,-4.52039c0,0.0022 0.0022,0.0022 0.0022,0.0022c0.39202,0.2731 3.00625,1.15625 4.30565,1.13092c1.2994,-0.02643 3.42911,-0.81818 3.19676,-1.45687c-0.23345,-0.63869 -2.35104,0.56161 -4.56113,0.35679c-1.63637,-0.15196 -1.92488,-0.88536 -1.56369,-1.42054c0.45589,-0.67283 1.28619,0.12774 2.65497,-0.2819c1.37098,-0.40854 3.28926,-1.13973 3.99952,-1.53836c1.64518,-0.91729 -0.68824,-1.2961 -1.23884,-1.04283c-0.52196,0.24226 -2.33783,0.70146 -3.18134,0.90298c0.47131,-1.6694 -0.66402,-4.56884 -1.93479,-5.83631c-0.41405,-0.41405 -1.04723,-0.67393 -1.76521,-0.81048c-0.2753,-0.37881 -0.72018,-0.7389 -1.34896,-1.07586c-1.21561,-0.63599 -2.60437,-0.86159 -3.95878,-0.6431l-0.02643,0.0044l-0.03744,0.0044l0.0044,0.0022c-0.16298,0.03083 -0.26098,0.0881 -0.39313,0.10792c0.16298,0.01762 0.77634,0.30393 1.16396,0.4603c-0.19161,0.07488 -0.45369,0.11893 -0.65631,0.20262c-0.07721,0.01086 -0.15271,0.03159 -0.22464,0.06167c-0.19051,0.0881 -0.33366,0.41295 -0.33036,0.56711c0.925,-0.0947 2.29268,-0.02863 3.29366,0.27089c-0.70917,0.09911 -1.35997,0.28411 -1.82908,0.53077c-0.01762,0.00881 -0.03304,0.01982 -0.05286,0.03083c-0.05946,0.02202 -0.11673,0.04625 -0.16738,0.07268c-1.50533,0.79286 -2.17045,2.64836 -1.77402,4.87167c0.35568,2.00857 1.83348,8.90643 2.52173,12.18357c-4.37503,-1.54167 -7.51232,-5.71077 -7.51232,-10.61438c0,-6.21512 5.03795,-11.25307 11.25307,-11.25307c6.21512,0 11.25307,5.03795 11.25307,11.25307zM236.80104,177.33622c-0.46099,0 -0.8347,0.37371 -0.8347,0.8347c0,0.46099 0.37371,0.8347 0.8347,0.8347c0.46099,0 0.8347,-0.37371 0.8347,-0.8347c0,-0.46099 -0.37371,-0.8347 -0.8347,-0.8347zM237.17324,178.10926c-0.1192,0 -0.21583,-0.09663 -0.21583,-0.21583c0,-0.1192 0.09663,-0.21583 0.21583,-0.21583c0.1192,0 0.21583,0.09663 0.21583,0.21583c0,0.1192 -0.09663,0.21583 -0.21583,0.21583zM242.37527,176.96071c-0.26222,-0.01029 -0.50905,0.12374 -0.64322,0.34926c-0.13417,0.22553 -0.13417,0.50639 0,0.73192c0.13417,0.22553 0.381,0.35956 0.64322,0.34926c0.39531,0 0.71577,-0.32046 0.71577,-0.71577c0,-0.39531 -0.32046,-0.71577 -0.71577,-0.71577zM242.69461,177.62253c-0.10217,0 -0.185,-0.08283 -0.185,-0.185c0,-0.10217 0.08283,-0.185 0.185,-0.185c0.10217,0 0.185,0.08283 0.185,0.185c0,0.10217 -0.08283,0.185 -0.185,0.185zM237.0411,175.75601c0,0 -0.62878,-0.28631 -1.23884,0.09911c-0.61006,0.38321 -0.58804,0.77524 -0.58804,0.77524c0,0 -0.32375,-0.72238 0.53958,-1.07696c0.86554,-0.35238 1.28839,0.20262 1.28839,0.20262zM242.80693,175.69875c0,0 -0.45149,-0.25768 -0.80387,-0.25327c-0.72018,0.00881 -0.91509,0.32595 -0.91509,0.32595c0,0 0.12113,-0.75762 1.04062,-0.60565c0.30018,0.05489 0.55398,0.2543 0.67833,0.53298z" fill="#000000" stroke-width="1"/></g></g></svg>