<svg version="1.1" xmlns="http://www.w3.org/2000/svg" xmlns:xlink="http://www.w3.org/1999/xlink" width="384" height="230" viewBox="0,0,384,230"><g transform="translate(-48,-65)"><g data-paper-data="{&quot;isPaintingLayer&quot;:true}" fill-rule="nonzero" stroke-linecap="butt" stroke-linejoin="miter" stroke-miterlimit="10" stroke-dasharray="" stroke-dashoffset="0" style="mix-blend-mode: normal"><path d="M48,295v-230h384v230z" fill="none" stroke="none" stroke-width="0"/><path d="M192.71591,221.07309c-4.11869,0 -7.46591,-3.33477 -7.46591,-7.46591v-53.50569l24.88636,18.66477v42.30681h-17.42045" fill="#ffffff" stroke="#ffffff" stroke-width="0.5"/><path d="M269.86364,178.76627l24.88636,-18.66477v53.50569c0,4.11869 -3.33477,7.46591 -7.46591,7.46591h-17.42045" fill="#ffffff" stroke="#ffffff" stroke-width="0.5"/><path d="M276.83181,141.18787c7.37881,-5.53722 17.91819,-0.27375 17.91819,8.95909v9.95455l-24.88636,18.66477v-32.35227" fill="#ffffff" stroke="#ffffff" stroke-width="0.5"/><path d="M210.13636,178.76627v-32.35227l29.86364,22.39773l29.86364,-22.39773v32.35227l-29.86364,22.39773" fill="#ffffff" stroke="#ffffff" stroke-width="0.5"/><path d="M185.25,150.14695c0,-9.23284 10.52694,-14.49631 17.91819,-8.95909l6.96819,5.22614v32.35227l-24.88636,-18.66477v-9.95455" fill="#ffffff" stroke="#ffffff" stroke-width="0.5"/></g></g></svg>