<svg version="1.1" xmlns="http://www.w3.org/2000/svg" xmlns:xlink="http://www.w3.org/1999/xlink" width="44.16667" height="44.16667" viewBox="0,0,44.16667,44.16667"><g transform="translate(-217.91667,-157.91666)"><g data-paper-data="{&quot;isPaintingLayer&quot;:true}" fill-rule="nonzero" stroke="none" stroke-linecap="butt" stroke-linejoin="miter" stroke-miterlimit="10" stroke-dasharray="" stroke-dashoffset="0" style="mix-blend-mode: normal"><path d="M217.91667,202.08333v-44.16667h44.16667v44.16667z" fill="none" stroke-width="0.5"/><path d="M248.93455,190.23545h-4.38136v-3.39955c1.43591,-0.95727 2.39318,-2.38091 2.71227,-4.06227h-7.26545v-5.22818h12.71455c0.15955,0.88364 0.24545,1.80409 0.24545,2.76136c0,4.11136 -1.47273,7.57227 -4.02545,9.92864z" fill="#000000" stroke-width="1"/><path d="M227.94818,186.06273v-3.48545h4.49182c1.06773,3.19091 4.05,5.55955 7.56,5.55955c1.81636,0 3.35045,-0.49091 4.55318,-1.30091l4.38136,3.39955c-2.23364,2.06182 -5.28955,3.26455 -8.93455,3.26455c-5.27727,0 -9.83045,-3.03136 -12.05182,-7.43727z" fill="#000000" stroke-width="1"/><path d="M231.44591,183.32591l-3.49773,2.72455c-0.92045,-1.81636 -1.44818,-3.86591 -1.44818,-6.05045c0,-2.18455 0.52773,-4.23409 1.44818,-6.05045h4.49182v3.48545c-0.27,0.81 -0.42955,1.66909 -0.42955,2.565c0,0.89591 0.15955,1.755 0.42955,2.565z" fill="#000000" stroke-width="1"/><path d="M232.44,177.435l-4.49182,-3.48545c2.22136,-4.41818 6.77455,-7.44955 12.05182,-7.44955c3.645,0 6.68864,1.33773 9.03273,3.52227l-3.86591,3.86591c-1.41136,-1.32545 -3.17864,-2.01273 -5.16682,-2.01273c-3.51,0 -6.49227,2.36864 -7.56,5.55955z" fill="#000000" stroke-width="1"/></g></g></svg>