<svg version="1.1" xmlns="http://www.w3.org/2000/svg" xmlns:xlink="http://www.w3.org/1999/xlink" width="384" height="230" viewBox="0,0,384,230"><g transform="translate(-48,-65)"><g data-paper-data="{&quot;isPaintingLayer&quot;:true}" fill-rule="nonzero" stroke="none" stroke-linecap="butt" stroke-linejoin="miter" stroke-miterlimit="10" stroke-dasharray="" stroke-dashoffset="0" style="mix-blend-mode: normal"><path d="M48,295v-230h384v230z" fill="none" stroke-width="0"/><path d="M226.0677,117.56061h27.86459c8.93988,0 14.2806,-0.00001 17.76367,1.50933c5.22461,1.85763 9.28819,5.92123 11.14584,11.02974c1.50933,3.59917 1.50933,8.93988 1.50933,17.87978v64.04107c0,8.93988 0,14.28061 -1.50933,17.87979c-1.85763,5.10851 -5.92123,9.1721 -11.14584,11.02973c-3.48307,1.50933 -8.82379,1.50933 -17.76367,1.50933h-27.86459c-8.93988,0 -14.2806,0.00001 -17.87978,-1.50933c-5.10851,-1.85763 -9.17209,-5.92123 -11.02973,-11.02973c-1.50933,-3.59917 -1.50933,-8.93989 -1.50933,-17.87979v-64.04107c0,-8.93988 0,-14.2806 1.50933,-17.87978c1.85763,-5.10851 5.92122,-9.1721 11.02973,-11.02973c3.59917,-1.50933 8.93988,-1.50933 17.87978,-1.50933z" fill-opacity="0.6744" fill="#ffffff" stroke-width="1"/><path d="M221.71552,125.97602h37.43293c4.53342,0 7.2417,0 9.00797,0.76538c2.6494,0.94201 4.71005,3.00266 5.65206,5.59319c0.76538,1.82514 0.76538,4.53342 0.76538,9.06684v-3.01718c0,4.53342 0,7.24171 -0.76538,9.06685c-0.94201,2.59053 -3.00266,4.65118 -5.65206,5.59318c-1.76627,0.76539 -4.47455,0.76538 -9.00797,0.76538h-37.43293c-4.53342,0 -7.2417,0 -9.06684,-0.76538c-2.59053,-0.94201 -4.65117,-3.00266 -5.59318,-5.59318c-0.76538,-1.82514 -0.76538,-4.53343 -0.76538,-9.06685v3.01718c0,-4.53342 0,-7.2417 0.76538,-9.06684c0.94201,-2.59053 3.00265,-4.65118 5.59318,-5.59318c1.82514,-0.76538 4.53342,-0.76538 9.06684,-0.76538z" fill="#ffffff" stroke-width="1"/><path d="M223.24018,171.73995c0,4.73511 -3.74014,8.57367 -8.35383,8.57367c-4.61369,0 -8.35383,-3.83856 -8.35383,-8.57367c0,-4.73511 3.74014,-8.57367 8.35383,-8.57367c4.61369,0 8.35383,3.83856 8.35383,8.57367z" fill="#ffffff" stroke-width="0"/><path d="M248.78581,171.73995c0,4.7351 -3.74014,8.57367 -8.35383,8.57367c-4.61369,0 -8.35383,-3.83857 -8.35383,-8.57367c0,-4.7351 3.74013,-8.57367 8.35383,-8.57367c4.61369,0 8.35383,3.83856 8.35383,8.57367z" fill="#ffffff" stroke-width="0"/><path d="M274.99046,171.73995c0,4.7351 -3.74014,8.57367 -8.35383,8.57367c-4.61369,0 -8.35383,-3.83857 -8.35383,-8.57367c0,-4.7351 3.74013,-8.57367 8.35383,-8.57367c4.61369,0 8.35383,3.83856 8.35383,8.57367z" fill-opacity="0.71472" fill="#ffffff" stroke-width="0"/><path d="M222.91068,197.24111c0,4.7351 -3.74014,8.57367 -8.35383,8.57367c-4.61369,0 -8.35383,-3.83857 -8.35383,-8.57367c0,-4.7351 3.74013,-8.57367 8.35383,-8.57367c4.61369,0 8.35383,3.83856 8.35383,8.57367z" fill="#ffffff" stroke-width="0"/><path d="M248.45631,197.24111c0,4.7351 -3.74014,8.57367 -8.35383,8.57367c-4.61369,0 -8.35383,-3.83857 -8.35383,-8.57367c0,-4.7351 3.74013,-8.57367 8.35383,-8.57367c4.61369,0 8.35383,3.83856 8.35383,8.57367z" fill="#ffffff" stroke-width="0"/><path d="M274.66095,197.24111c0,4.7351 -3.74014,8.57367 -8.35383,8.57367c-4.61369,0 -8.35383,-3.83857 -8.35383,-8.57367c0,-4.7351 3.74013,-8.57367 8.35383,-8.57367c4.61369,0 8.35383,3.83856 8.35383,8.57367z" fill-opacity="0.71472" fill="#ffffff" stroke-width="0"/><path d="M222.99861,223.53369c0,4.7351 -3.74014,8.57367 -8.35383,8.57367c-4.61369,0 -8.35383,-3.83857 -8.35383,-8.57367c0,-4.7351 3.74013,-8.57367 8.35383,-8.57367c4.61369,0 8.35383,3.83856 8.35383,8.57367z" fill="#ffffff" stroke-width="0"/><path d="M248.54424,223.53369c0,4.7351 -3.74014,8.57367 -8.35383,8.57367c-4.61369,0 -8.35383,-3.83857 -8.35383,-8.57367c0,-4.7351 3.74013,-8.57367 8.35383,-8.57367c4.61369,0 8.35383,3.83856 8.35383,8.57367z" fill="#ffffff" stroke-width="0"/><path d="M274.74889,223.53369c0,4.7351 -3.74014,8.57367 -8.35383,8.57367c-4.61369,0 -8.35383,-3.83857 -8.35383,-8.57367c0,-4.7351 3.74013,-8.57367 8.35383,-8.57367c4.61369,0 8.35383,3.83856 8.35383,8.57367z" fill-opacity="0.71472" fill="#ffffff" stroke-width="0"/></g></g></svg>