<svg version="1.1" xmlns="http://www.w3.org/2000/svg" xmlns:xlink="http://www.w3.org/1999/xlink" width="384" height="230" viewBox="0,0,384,230"><g transform="translate(-48,-65)"><g data-paper-data="{&quot;isPaintingLayer&quot;:true}" fill-rule="nonzero" stroke="none" stroke-linecap="butt" stroke-linejoin="miter" stroke-miterlimit="10" stroke-dasharray="" stroke-dashoffset="0" style="mix-blend-mode: normal"><path d="M48,295v-230h384v230z" fill="none" stroke-width="0"/><path d="M239.98833,133.33333c12.68167,0 14.2625,0.05833 19.24417,0.28c4.96417,0.2275 8.35917,1.015 11.33417,2.17c3.1159,1.16856 5.93752,3.0065 8.26583,5.38417c2.37767,2.32832 4.2156,5.14993 5.38417,8.26583c1.14917,2.96333 1.93667,6.35833 2.17,11.3225c0.22167,4.98167 0.28,6.56833 0.28,19.24417c0,12.67583 -0.05833,14.2625 -0.28,19.23833c-0.23333,4.97 -1.02083,8.35917 -2.17,11.32833c-1.19583,3.06833 -2.78833,5.67 -5.38417,8.26583c-2.32662,2.37697 -5.14617,4.21485 -8.26,5.38417c-2.96917,1.155 -6.37,1.93667 -11.33417,2.17c-4.98167,0.22167 -6.5625,0.28 -19.23833,0.28c-12.67583,0 -14.2625,-0.05833 -19.24417,-0.28c-4.97,-0.2275 -8.35333,-1.015 -11.32833,-2.17c-3.06833,-1.19 -5.67,-2.78833 -8.26,-5.38417c-2.59583,-2.59583 -4.18833,-5.1975 -5.38417,-8.26583c-1.155,-2.96917 -1.93667,-6.35833 -2.17,-11.32833c-0.22167,-4.97583 -0.28,-6.5625 -0.28,-19.2325c0,-12.68167 0.05833,-14.26833 0.28,-19.25583c0.2275,-4.95833 1.015,-8.35333 2.17,-11.31667c1.16856,-3.1159 3.0065,-5.93752 5.38417,-8.26583c2.32832,-2.37767 5.14993,-4.2156 8.26583,-5.38417c2.96917,-1.155 6.35833,-1.93667 11.33417,-2.17c4.97583,-0.22167 6.56833,-0.28 19.2325,-0.28zM235.8175,141.73333c-8.6975,0.00583 -10.36583,0.06417 -14.67083,0.2625c-4.55,0.21 -7.0175,0.96833 -8.6625,1.61c-2.18167,0.84583 -3.73333,1.855 -5.36667,3.48833c-1.63333,1.63333 -2.64833,3.19083 -3.49417,5.36667c-0.64167,1.645 -1.4,4.11833 -1.61,8.66833c-0.22167,4.9175 -0.26833,6.38167 -0.26833,18.8475c0,12.46583 0.04667,13.94167 0.26833,18.85917c0.20417,4.55 0.96833,7.02333 1.60417,8.6625c0.75442,2.02624 1.94994,3.85936 3.5,5.36667c1.5085,1.54586 3.34154,2.73732 5.36667,3.48833c1.645,0.64167 4.1125,1.4 8.6625,1.61c4.9175,0.22167 6.39917,0.27417 18.85917,0.27417c12.46,0 13.93583,-0.0525 18.85333,-0.27417c4.55583,-0.21 7.02917,-0.96833 8.6625,-1.61c2.18167,-0.84583 3.73333,-1.855 5.36667,-3.48833c1.54723,-1.50622 2.7407,-3.33725 3.49417,-5.36083c0.63583,-1.645 1.4,-4.1125 1.60417,-8.6625c0.2275,-4.9175 0.27417,-6.39917 0.27417,-18.85333c0,-12.45417 -0.04667,-13.93 -0.27417,-18.8475c-0.20417,-4.55 -0.9625,-7.02333 -1.60417,-8.6625c-0.84583,-2.18167 -1.855,-3.73333 -3.48833,-5.36667c-1.63333,-1.63333 -3.19083,-2.64833 -5.36667,-3.49417c-1.645,-0.63583 -4.11833,-1.4 -8.66833,-1.60417c-4.9175,-0.2275 -6.39333,-0.26833 -18.85333,-0.26833h-4.18833zM264.91417,149.49167c3.0928,0 5.6,2.5072 5.6,5.6c0,3.0928 -2.5072,5.6 -5.6,5.6c-3.0928,0 -5.6,-2.5072 -5.6,-5.6c0,-3.0928 2.5072,-5.6 5.6,-5.6M240.00583,156.03667c13.09041,0.20423 23.59525,10.87424 23.59525,23.96625c0,13.09201 -10.50484,23.76202 -23.59525,23.96625c-8.65142,0.13498 -16.70407,-4.40323 -21.06921,-11.8739c-4.36514,-7.47066 -4.36514,-16.71405 0,-24.18471c4.36514,-7.47066 12.4178,-12.00888 21.06921,-11.8739M240.00583,164.4425c-8.59218,0 -15.5575,6.96532 -15.5575,15.5575c0,8.59218 6.96532,15.5575 15.5575,15.5575c8.59218,0 15.5575,-6.96532 15.5575,-15.5575c0,-8.59218 -6.96532,-15.5575 -15.5575,-15.5575" fill="#ffffff" stroke-width="1"/></g></g></svg>