<svg version="1.1" xmlns="http://www.w3.org/2000/svg" xmlns:xlink="http://www.w3.org/1999/xlink" width="384" height="230" viewBox="0,0,384,230"><g transform="translate(-48,-65)"><g data-paper-data="{&quot;isPaintingLayer&quot;:true}" fill-rule="nonzero" stroke="none" stroke-linecap="butt" stroke-linejoin="miter" stroke-miterlimit="10" stroke-dasharray="" stroke-dashoffset="0" style="mix-blend-mode: normal"><path d="M48,295v-230h384v230z" fill="none" stroke-width="0"/><path d="M175.03976,204.41598l0.28,-16.96806c-9.18403,-1.34344 -9.35203,10.9766 -9.35203,10.9766c0.896,7.95147 9.07203,5.99146 9.07203,5.99146M160.25571,165.94384c0,0 22.23208,-9.80004 24.86409,7.84003l-0.336,37.91214h-16.85606c0,0 -7.39203,0.28 -9.68803,-7.89603c0,0 -5.71202,-20.83207 16.80006,-24.80753l0.056,-5.09658c0,0 -4.25602,-4.53602 -11.81604,0zM363.20045,149.08778l-8.84803,56.39221l-14.11205,-60.76022zM320.30429,148.97578l-0.168,15.90406l12.48804,0.84v7.78403l-12.15204,0.672l1.008,23.52008c0,0 0.056,1.84857 3.86401,1.84857c3.80801,0 7.33603,-2.07201 7.33603,-2.07201v11.98348c0.168,3.64001 -5.04002,5.20858 -5.04002,5.20858c-16.68806,2.46345 -15.45606,-8.45659 -15.45606,-8.45659l-0.56,-30.40811h-7.84003l-1.84801,-12.76749l9.68803,0.33544v-17.97551zM349.3124,209.79256h7.50403l2.85601,8.23203l-6.72002,3.97545l-6.83202,-4.70402zM198.67185,165.5524c12.09604,-3.80857 18.53607,-3.75257 20.27207,13.83149l4.31202,30.07211h-11.42404l-0.728,-17.41606l-1.064,-12.37604c-0.28,-8.68003 -8.17603,-6.49602 -10.58404,-5.43146l0.616,35.16757l-10.92004,-0.392l-1.79201,-68.09569l11.08804,-2.91257zM162.99972,158.49581l-15.96006,17.52806l10.58404,38.13614h-11.48004l-8.45603,-29.23211l-8.00803,7.72803l0.112,21.50408l-12.99205,-0.44744v-61.43278l12.99205,-3.30401v26.1521l21.95208,-20.94408zM283.68016,199.43252c5.76802,0.672 10.69604,-4.59258 10.36004,-11.20004c-0.336,-6.66458 -3.02401,-10.8086 -8.45603,-10.92004c-5.43202,-0.11256 -8.73603,6.10346 -8.12003,13.32749c0.504,5.48802 3.92002,8.51259 6.21602,8.79259M284.96816,168.46385c10.52804,0.224 19.54407,9.01603 20.16007,19.65607c0.672,10.69604 -7.84003,20.21607 -18.98407,21.33608c-11.14404,1.12 -20.16007,-7.67147 -20.16007,-19.65607c0,-11.98404 8.51203,-21.50408 18.98407,-21.33608M251.31204,189.51992c-0.448,5.54458 -3.92002,8.56803 -6.21602,8.79259c-5.76802,0.672 -10.69604,-4.53658 -10.36004,-11.20004c0.336,-6.66458 3.02401,-10.8086 8.45603,-10.92004c5.43202,-0.11256 8.73603,6.10346 8.12003,13.32749M243.80801,167.39984c-10.47204,0.168 -19.48807,9.01603 -20.16007,19.65607c-0.616,10.6966 7.89603,20.21663 18.98407,21.33664c11.14404,1.12 20.16007,-7.72803 20.16007,-19.65663c0,-11.98348 -8.51203,-21.50352 -18.98407,-21.33608" fill="#ffffff" stroke-width="1"/></g></g></svg>
