<svg version="1.1" xmlns="http://www.w3.org/2000/svg" xmlns:xlink="http://www.w3.org/1999/xlink" width="384" height="230" viewBox="0,0,384,230"><g transform="translate(-48,-65)"><g data-paper-data="{&quot;isPaintingLayer&quot;:true}" fill-rule="nonzero" stroke="none" stroke-linecap="butt" stroke-linejoin="miter" stroke-miterlimit="10" stroke-dasharray="" stroke-dashoffset="0" style="mix-blend-mode: normal"><path d="M48,295v-230h384v230z" fill="none" stroke-width="0"/><path d="M334.92746,200.28946v-29.8162h6.9598v29.8162z" fill="#ffffff" stroke-width="1"/><path d="M260.28335,194.54854c3.26172,-0.1292 6.36986,-0.89222 9.32198,-2.29393v6.35279c-3.03744,1.24082 -6.19678,1.86976 -9.478,1.88926c-9.4073,0 -15.98193,-5.8433 -15.98193,-14.69723c0,-8.85393 6.01395,-15.37981 15.49194,-15.37981c3.22759,0.01219 6.32842,0.64844 9.30248,1.90633v6.50881c-2.89362,-1.43096 -5.953,-2.15985 -9.18059,-2.18667c-6.1017,0 -8.7418,4.02474 -8.7418,9.15134c0,5.1266 3.42505,8.74911 9.26591,8.74911z" fill="#ffffff" stroke-width="1"/><path d="M169.53543,170.47326c0.87515,-0.02194 1.743,0.04876 2.60109,0.20477c0.86297,0.15845 1.69912,0.40223 2.51089,0.73133c0.81177,0.3291 1.5821,0.7362 2.31099,1.22375c0.72889,0.48755 1.40171,1.04336 2.01602,1.66743c0.61431,0.62407 1.16037,1.3042 1.63573,2.0404c0.47536,0.7362 0.87272,1.51385 1.18963,2.3305c0.31691,0.81665 0.5485,1.65767 0.69476,2.52308c0.14627,0.8654 0.20233,1.73568 0.17064,2.61084v16.49874h-6.87447v-17.17887c0.02194,-0.42173 0.00244,-0.83859 -0.06338,-1.25544c-0.06338,-0.41442 -0.17064,-0.81909 -0.31935,-1.214c-0.1487,-0.39492 -0.33641,-0.76789 -0.56312,-1.12381c-0.22671,-0.35591 -0.48511,-0.68501 -0.78008,-0.98485c-0.29497,-0.29984 -0.61675,-0.568 -0.96535,-0.80202c-0.3486,-0.23402 -0.71914,-0.42905 -1.10918,-0.5875c-0.39004,-0.15602 -0.79227,-0.27303 -1.20669,-0.34616c-0.41198,-0.07557 -0.83127,-0.10482 -1.25057,-0.09263c-0.41442,-0.00975 -0.82396,0.02438 -1.23107,0.10239c-0.40711,0.07557 -0.80202,0.19502 -1.18475,0.35591c-0.38273,0.16089 -0.74352,0.35835 -1.0848,0.59481c-0.33885,0.23646 -0.65088,0.50462 -0.9361,0.8069c-0.28278,0.30228 -0.53387,0.63138 -0.74839,0.98485c-0.21452,0.35591 -0.39248,0.72889 -0.52899,1.11893c-0.13651,0.39248 -0.23402,0.79471 -0.28522,1.20425c-0.05119,0.40954 -0.06338,0.82152 -0.02925,1.23594v17.18131h-6.75015v-17.18375c0.02682,-0.41929 0.01219,-0.83615 -0.04876,-1.25057c-0.06094,-0.41686 -0.16333,-0.81909 -0.30716,-1.214c-0.14383,-0.39492 -0.3291,-0.76789 -0.55093,-1.12381c-0.22184,-0.35591 -0.4778,-0.68257 -0.77033,-0.98485c-0.29009,-0.30228 -0.60944,-0.57044 -0.95804,-0.80446c-0.3486,-0.23402 -0.7167,-0.42905 -1.1043,-0.5875c-0.3876,-0.15845 -0.78983,-0.27547 -1.20181,-0.3486c-0.41442,-0.07313 -0.82884,-0.10239 -1.24813,-0.0902c-0.41442,-0.00975 -0.82396,0.02438 -1.22863,0.10239c-0.40711,0.07801 -0.79958,0.19746 -1.17987,0.35835c-0.38029,0.16089 -0.73864,0.36079 -1.07749,0.59725c-0.33885,0.23646 -0.64844,0.50705 -0.93122,0.80934c-0.28278,0.30228 -0.52899,0.63138 -0.74108,0.98485c-0.21208,0.35591 -0.38273,0.72889 -0.5168,1.11893c-0.13408,0.39004 -0.22427,0.79227 -0.27303,1.20181c-0.04876,0.41198 -0.05363,0.82152 -0.01463,1.2335v17.18131h-6.85497v-16.49874c0,-7.61068 5.22899,-13.33209 12.81772,-13.33209c0.92391,-0.01706 1.83807,0.07313 2.74004,0.27303c0.90441,0.19746 1.77225,0.49974 2.60352,0.90197c0.83371,0.40467 1.60648,0.89709 2.32318,1.48216c0.7167,0.58506 1.35539,1.24569 1.91608,1.97946c0.53387,-0.73864 1.15062,-1.40171 1.84782,-1.99165c0.6972,-0.58994 1.4529,-1.0848 2.27199,-1.48947c0.81909,-0.40467 1.6723,-0.70451 2.56452,-0.89953c0.88978,-0.19502 1.79175,-0.28034 2.70347,-0.25596z" fill="#ffffff" stroke-width="1"/><path d="M342.25292,163.35013c0,0.50949 -0.09751,1.00192 -0.29253,1.4724c-0.19502,0.47049 -0.47292,0.88734 -0.83371,1.24813c-0.36079,0.36079 -0.77764,0.63869 -1.24813,0.83371c-0.47049,0.19502 -0.96291,0.29253 -1.4724,0.29253c-0.50949,0 -1.00192,-0.09751 -1.4724,-0.29253c-0.47049,-0.19502 -0.88734,-0.47292 -1.24813,-0.83371c-0.36079,-0.36079 -0.63869,-0.77764 -0.83371,-1.24813c-0.19502,-0.47049 -0.29253,-0.96291 -0.29253,-1.4724c0,-0.50949 0.09751,-1.00192 0.29253,-1.4724c0.19502,-0.47049 0.47292,-0.88734 0.83371,-1.24813c0.36079,-0.36079 0.77764,-0.63869 1.24813,-0.83371c0.47049,-0.19502 0.96291,-0.29253 1.4724,-0.29253c0.50949,0 1.00192,0.09751 1.4724,0.29253c0.47049,0.19502 0.88734,0.47292 1.24813,0.83371c0.36079,0.36079 0.63869,0.77764 0.83371,1.24813c0.19502,0.47049 0.29253,0.96291 0.29253,1.4724z" fill="#ffffff" stroke-width="1"/><path d="M290.14587,194.46078c5.31675,0 8.02509,-4.61955 8.09579,-8.97582c0,-5.49227 -3.05938,-8.99288 -8.02509,-8.99288c-4.6488,0 -8.14698,3.86628 -8.14698,8.99288c0,5.4752 3.12764,8.97582 8.14698,8.97582zM305.07957,185.48496v14.81912h-6.85497v-4.86332c-0.40467,0.7874 -0.91416,1.5041 -1.5236,2.14523c-0.60944,0.64357 -1.29689,1.18719 -2.06234,1.6333c-0.76546,0.44611 -1.57723,0.77764 -2.43532,0.99217c-0.85809,0.21452 -1.73081,0.30472 -2.61571,0.27059c-8.53215,0 -14.4949,-6.24553 -14.4949,-14.99464c-0.01463,-0.49974 -0.00488,-0.99704 0.03169,-1.49434c0.03413,-0.4973 0.09751,-0.99217 0.18283,-1.48216c0.08776,-0.48999 0.19746,-0.9751 0.33397,-1.45534c0.13651,-0.48024 0.29497,-0.95073 0.48024,-1.4139c0.18527,-0.46317 0.39248,-0.9166 0.62407,-1.35783c0.23159,-0.44367 0.48268,-0.87028 0.75814,-1.28714c0.27547,-0.41686 0.57044,-0.81665 0.88734,-1.20181c0.31691,-0.38517 0.65088,-0.75327 1.00436,-1.1043c0.35347,-0.35104 0.72401,-0.68501 1.11162,-0.99704c0.3876,-0.31447 0.79227,-0.607 1.20913,-0.87759c0.41929,-0.27059 0.84834,-0.52168 1.29201,-0.74839c0.44123,-0.22671 0.89709,-0.43148 1.36027,-0.61188c0.46317,-0.18039 0.9361,-0.33885 1.41634,-0.47049c0.48024,-0.13164 0.96535,-0.2389 1.45778,-0.32178c0.48999,-0.08288 0.98485,-0.13895 1.48216,-0.17064c0.4973,-0.03169 0.9946,-0.039 1.49191,-0.0195c9.0587,0 14.863,5.8945 14.863,15.01171z" fill="#ffffff" stroke-width="1"/><path d="M237.18561,176.71879c-3.75902,0 -5.96275,3.13252 -5.96275,7.27914v16.30859h-6.87204v-16.49874c0,-7.61068 5.24605,-13.33209 12.83479,-13.33209h2.46457v6.22847z" fill="#ffffff" stroke-width="1"/><path d="M325.3617,176.71879c-3.74196,0 -5.96275,3.13252 -5.96275,7.27914v16.30859h-6.85497v-16.49874c0,-7.61068 5.24605,-13.33209 12.81772,-13.33209h2.48407v6.22847z" fill="#ffffff" stroke-width="1"/><path d="M211.05042,182.52796c-0.07557,-0.4388 -0.19015,-0.86784 -0.34129,-1.28714c-0.15114,-0.41929 -0.33885,-0.82152 -0.56068,-1.20669c-0.22427,-0.3876 -0.4778,-0.75083 -0.76302,-1.09211c-0.28766,-0.34372 -0.59969,-0.65576 -0.94097,-0.94341c-0.34129,-0.28766 -0.70451,-0.54362 -1.08968,-0.76546c-0.3876,-0.22184 -0.7874,-0.40954 -1.20669,-0.56312c-0.41686,-0.15358 -0.8459,-0.26815 -1.2847,-0.34616c-0.4388,-0.07801 -0.88003,-0.11701 -1.32614,-0.11701c-0.44611,0 -0.88734,0.039 -1.32614,0.11701c-0.4388,0.07801 -0.8654,0.19258 -1.2847,0.34616c-0.41929,0.15358 -0.82152,0.34129 -1.20669,0.56312c-0.38517,0.22427 -0.74839,0.4778 -1.08968,0.76546c-0.34129,0.28766 -0.65576,0.60213 -0.94097,0.94341c-0.28766,0.34129 -0.54118,0.70695 -0.76302,1.09211c-0.22184,0.38517 -0.40954,0.7874 -0.56068,1.20669c-0.15114,0.41929 -0.26572,0.84834 -0.34129,1.28714zM203.84198,170.45376c0.90197,0.02438 1.79419,0.13651 2.67422,0.33397c0.88247,0.20233 1.73568,0.48755 2.55964,0.85809c0.82396,0.37054 1.60404,0.81665 2.34025,1.3432c0.7362,0.52412 1.41146,1.11649 2.03065,1.77712c0.61675,0.66063 1.16525,1.37489 1.64061,2.14279c0.4778,0.77033 0.87272,1.57723 1.18963,2.42557c0.31691,0.84834 0.54606,1.71862 0.68989,2.61084c0.14383,0.89466 0.19746,1.79175 0.16333,2.69616c0.00731,1.10918 -0.06338,2.21105 -0.20965,3.30804h-20.84282c0.64844,4.58542 4.24901,6.87691 9.39024,6.87691c3.62494,-0.16333 7.12069,-0.91416 10.4921,-2.25736v6.00176c-3.51037,1.24813 -7.13044,1.88439 -10.85777,1.90633c-9.25129,0 -15.98193,-5.5654 -15.98193,-14.94345c-0.02925,-0.98242 0.04144,-1.95752 0.20965,-2.92775c0.16821,-0.96779 0.43148,-1.9112 0.78983,-2.8278c0.35835,-0.9166 0.80202,-1.78688 1.33589,-2.61328c0.53387,-0.8264 1.14331,-1.59186 1.83076,-2.29637c0.68745,-0.70451 1.43584,-1.33102 2.25005,-1.88439c0.81177,-0.55093 1.6723,-1.01654 2.57915,-1.39683c0.90685,-0.38029 1.84051,-0.66551 2.80586,-0.85565c0.96291,-0.19015 1.93802,-0.28278 2.92043,-0.2779z" fill="#ffffff" stroke-width="1"/></g></g></svg>