<svg version="1.1" xmlns="http://www.w3.org/2000/svg" xmlns:xlink="http://www.w3.org/1999/xlink" width="384" height="230" viewBox="0,0,384,230"><g transform="translate(-48,-65)"><g data-paper-data="{&quot;isPaintingLayer&quot;:true}" fill-rule="nonzero" stroke="none" stroke-linecap="butt" stroke-linejoin="miter" stroke-miterlimit="10" stroke-dasharray="" stroke-dashoffset="0" style="mix-blend-mode: normal"><path d="M48,295v-230h384v230z" fill="none" stroke-width="0"/><g fill="#ffffff" stroke-width="1"><path d="M185.33796,180.32622h-17.66038v6.77971h16.84423v6.86456h-16.84423v6.46456h17.66038v6.96153h-25.19968v-34.03189h25.19968z"/><path d="M218.92137,189.24732l7.51102,12.24227h-8.56555l-6.62214,-10.79582h-5.41003v10.79582h-7.5393v-34.02785h14.10083c3.78985,0 6.93325,0.99797 9.33726,2.96966c2.46866,1.98381 3.71713,4.74741 3.71713,8.21404c0.07139,4.50322 -2.47566,8.63902 -6.52921,10.60188zM205.83467,183.78073h5.32518c4.59388,0 6.81608,-1.60806 6.81608,-4.75145c0,-3.14339 -2.16563,-4.61004 -6.81608,-4.61004h-5.32518z"/><path d="M262.37537,196.0634l5.0262,5.32923l-0.10505,0.13333c-3.47874,4.25045 -8.13323,6.40396 -13.83013,6.40396c-5.14741,0 -9.54331,-1.60806 -12.92913,-4.79994c-3.38582,-3.19188 -5.10297,-7.45445 -5.10297,-12.67055c0,-5.28882 1.73331,-9.54735 5.09893,-12.77963c3.36561,-3.23228 7.64031,-4.84842 12.71095,-4.84842c5.55549,0 10.10897,2.15755 13.53922,6.408l0.10909,0.13333l-5.08277,5.18377l-0.13333,-0.1899c-1.99998,-2.8552 -5.28607,-4.5323 -8.77161,-4.47671c-2.56269,-0.01429 -5.02289,1.00533 -6.82416,2.82825c-1.93533,1.8424 -2.91713,4.34338 -2.91713,7.58778c0,3.2444 0.9818,5.84639 2.91713,7.73323c1.9231,1.87597 4.52229,2.89583 7.20799,2.82825c3.6848,0 6.69891,-1.55958 8.96554,-4.6262z"/><path d="M294.66183,167.58295l13.25236,33.90664h-7.80192l-2.47674,-6.09689h-13.16751l-2.42421,6.09689h-7.80596l0.10101,-0.26262l13.21599,-33.76523h7.0787zM291.0942,177.88989l-4.09288,10.77966h8.1898z"/><path d="M338.36229,195.13816l7.51101,12.25843h-8.56555l-6.62214,-10.79986h-5.41003v10.79986h-7.5393v-34.03189h14.11295c3.78985,0 6.87264,0.98585 9.33726,2.96966c2.46461,1.98381 3.71713,4.74741 3.71713,8.21404c0.06442,4.50163 -2.48708,8.63225 -6.54133,10.58976zM325.27559,189.68368h5.32518c4.5858,0 6.81203,-1.60806 6.81203,-4.75145c0,-3.14339 -2.16159,-4.606 -6.81203,-4.606h-5.32518z"/><path d="M357.14589,201.48959v-31.07839h7.49081v31.07839z"/><path d="M364.6195,163.74195l-8.20803,-3.46383l3.46383,-8.20803l8.20803,3.46383z"/><path d="M129.44776,185.88171l9.64028,-18.41997h7.67667v34.02785h-7.57566v-19.43005h-0.08889l-7.30092,13.13519h-4.90095l-7.30496,-13.11499h-0.09293v19.3937h-7.58374v-34.01169h7.67667l9.69685,18.41997z"/></g></g></g></svg>