<svg version="1.1" xmlns="http://www.w3.org/2000/svg" xmlns:xlink="http://www.w3.org/1999/xlink" width="384" height="230" viewBox="0,0,384,230"><g transform="translate(-48,-65)"><g data-paper-data="{&quot;isPaintingLayer&quot;:true}" fill-rule="nonzero" stroke="none" stroke-linecap="butt" stroke-linejoin="miter" stroke-miterlimit="10" stroke-dasharray="" stroke-dashoffset="0" style="mix-blend-mode: normal"><path d="M48,295v-230h384v230z" fill="none" stroke-width="0"/><path d="M231.06828,132.13769l-0.51281,0.31017c-0.81565,0.49341 -1.58407,1.04509 -2.30113,1.64788l1.47909,-1.04038c0,0 -7.95121,4.31893 -8.00349,15.55714c-0.03211,6.90293 0.01742,21.06615 0.01742,21.06615v9.14588c0,6.38786 3.33862,12.31128 8.80333,15.61909l3.44296,2.13013c0,0 -4.61986,3.22218 -10.21743,6.79323c-17.28176,11.02514 -24.6469,4.39022 -25.48686,3.32621c-2.50656,-3.17518 -3.92829,-7.14598 -3.92829,-11.31455v-30.75459c0,-6.38991 3.34065,-12.31493 8.80816,-15.62206l27.38626,-16.56536c0.16979,-0.10265 0.34073,-0.20229 0.51281,-0.29895z" data-paper-data="{&quot;index&quot;:null}" fill="#ffffff" stroke-width="1"/><path d="M284.27723,204.38339c-1.39933,2.88306 -3.8148,4.41879 -7.4416,6.61411l-27.3863,16.57716c-5.81206,3.518 -13.09681,3.518 -18.90864,0l-26.75139,-16.19284c5.70092,3.14623 12.67141,3.02391 18.27373,-0.3672l27.3863,-16.57693c5.46471,-3.30781 8.80333,-9.23123 8.80333,-15.61909l-0.04762,-1.37253c0,0 12.98176,8.21905 17.60875,11.17227c10.69058,6.82335 9.17257,14.30404 8.46345,15.76505z" data-paper-data="{&quot;index&quot;:null}" fill="#ffffff" stroke-width="1"/><path d="M285.5266,164.4642v30.75459c0,0.19992 -0.0032,0.39916 -0.00982,0.59816c-0.20106,-6.15986 -3.5018,-11.82015 -8.79831,-15.02412l-27.3863,-16.56529c-5.80955,-3.51389 -13.08928,-3.51389 -18.89883,0l-2.54527,2.57205c0,0 0,-0.31593 0,-0.7201c0,-2.1525 0,-20.42398 0,-20.42398c0,-6.38997 0.90496,-11.11486 6.37241,-14.42204l0.54407,-0.32909c2.89877,-1.68302 8.89814,-2.03277 14.52762,1.37242l27.3863,16.56534c5.46744,3.30713 8.80812,9.23215 8.80812,15.62205z" data-paper-data="{&quot;index&quot;:null}" fill="#ffffff" stroke-width="1"/></g></g></svg>