<svg version="1.1" xmlns="http://www.w3.org/2000/svg" xmlns:xlink="http://www.w3.org/1999/xlink" width="44.16667" height="44.16667" viewBox="0,0,44.16667,44.16667"><g transform="translate(-217.91669,-157.91666)"><g data-paper-data="{&quot;isPaintingLayer&quot;:true}" fill-rule="nonzero" stroke="none" stroke-linejoin="miter" stroke-miterlimit="10" stroke-dasharray="" stroke-dashoffset="0" style="mix-blend-mode: normal"><path d="M217.91669,202.08333v-44.16667h44.16667v44.16667z" fill="none" stroke-width="0.5" stroke-linecap="butt"/><path d="M232.33619,170.47428c1.85674,0.04351 4.59232,-0.30721 4.59571,1.90819c0.00165,1.07263 -0.79594,1.04673 -1.51677,1.64607c-1.93002,1.60477 0.82456,1.80449 1.82431,1.81382c0.99973,0.00935 1.53347,-0.86704 2.34504,-1.6915c0.81157,-0.82446 1.19777,-2.30724 2.49882,-3.22923c1.30105,-0.92201 1.71693,-0.95893 2.38348,-0.23065c0.66656,0.72826 -0.00881,1.50872 -0.30754,2.49882c-0.29873,0.99008 -1.68207,1.37641 -1.03797,1.96061c0.64411,0.5842 1.78958,0.18481 2.69104,-0.46132c0.90145,-0.64614 2.14998,-2.90995 3.95966,-4.30565c1.80967,-1.3957 2.34707,0.08948 2.36951,0.53821c0.02244,0.44871 0.19325,1.55278 -0.4054,2.25067c-0.59865,0.69789 -3.04967,1.336 -6.67865,6.06355c-2.23776,2.91518 -3.30672,5.19578 -5.39604,8.52743c-2.89607,4.61808 -4.53392,2.04457 -1.84528,-2.48833c0.66488,-1.67906 3.11419,-4.25654 3.71851,-5.25274c0.74245,-1.2239 0.45449,-1.79659 0.02122,-2.01288c-0.76264,-0.38074 -1.65059,0.29004 -2.22298,1.55156c-1.31243,3.21614 -5.05474,2.02827 -2.82384,-0.14328c2.12513,-2.56362 -0.12254,-1.85493 -0.84575,-1.56919c-6.56234,2.59284 -7.31968,2.3164 -7.74458,1.43289c-0.38718,-0.80507 0.40173,-2.02503 1.54123,-3.62416c1.13951,-1.59913 1.72775,-1.53997 2.50231,-2.68403c0.96399,-1.42385 -2.23605,-2.55996 0.37395,-2.49882z" fill="#000000" stroke-width="0" stroke-linecap="round"/></g></g></svg>