<svg version="1.1" xmlns="http://www.w3.org/2000/svg" xmlns:xlink="http://www.w3.org/1999/xlink" width="384" height="230" viewBox="0,0,384,230"><g transform="translate(-48,-65)"><g data-paper-data="{&quot;isPaintingLayer&quot;:true}" fill-rule="nonzero" stroke="none" stroke-linecap="butt" stroke-linejoin="miter" stroke-miterlimit="10" stroke-dasharray="" stroke-dashoffset="0" style="mix-blend-mode: normal"><path d="M48,295v-230h384v230z" fill="none" stroke-width="0"/><path d="M143.36811,211.37776c-4.01005,0.70418 -8.09064,0.9153 -12.31181,1.4776l-12.87516,-37.70965v39.3281c-4.01005,0.42199 -7.66839,0.98481 -11.46758,1.54763v-72.04289h10.69416l14.63339,40.87651v-40.87651h11.327zM165.52984,170.36147c4.36227,0 11.04585,-0.21113 15.0559,-0.21113v11.25646c-4.99538,0 -10.83447,0 -15.0559,0.21113v16.74463c6.61356,-0.42199 13.22685,-0.98533 19.91018,-1.19645v10.83395l-31.16716,2.46293v-66.48442h31.16716v11.25672h-19.91018zM227.30082,155.23553h-11.6787v51.78074c-3.79918,0 -7.59837,0 -11.2562,0.14032v-51.92106h-11.6787v-11.25698h34.61413zM245.59282,169.58778h15.40786v11.25646h-15.40786v25.53893h-11.04637v-62.40461h31.44935v11.25672h-20.40298zM284.28781,196.53324c6.40243,0.14032 12.87464,0.63363 19.1365,0.98481v11.11614c-10.06052,-0.63363 -20.12131,-1.26596 -30.39296,-1.4776v-63.17804h11.25646zM312.922,209.40815c3.58806,0.21138 7.38725,0.42251 11.0456,0.84397v-66.27356h-11.0456zM373.28645,143.97856l-14.28221,34.26269l14.28221,37.7802c-4.22169,-0.56282 -8.44286,-1.33677 -12.6643,-2.04043l-8.09038,-20.82445l-8.2307,19.1365c-4.08138,-0.70418 -8.02114,-0.9153 -12.10095,-1.47812l14.49282,-32.9962l-13.08628,-33.84018h12.10043l7.38725,18.92538l7.88004,-18.92538z" fill="#ffffff" stroke-width="1"/></g></g></svg>