<svg version="1.1" xmlns="http://www.w3.org/2000/svg" xmlns:xlink="http://www.w3.org/1999/xlink" width="384" height="230" viewBox="0,0,384,230"><g transform="translate(-48,-65)"><g data-paper-data="{&quot;isPaintingLayer&quot;:true}" fill-rule="nonzero" stroke="none" stroke-linecap="butt" stroke-linejoin="miter" stroke-miterlimit="10" stroke-dasharray="" stroke-dashoffset="0" style="mix-blend-mode: normal"><path d="M48,295v-230h384v230z" fill="none" stroke-width="0"/><path d="M157.72298,206.71652c-3.41435,0.59957 -6.88876,0.77933 -10.48286,1.2581l-10.96252,-32.1078v33.48582c-3.41435,0.3593 -6.52924,0.83851 -9.76404,1.31773v-61.34075h9.10552l12.45957,34.80422v-34.80422h9.64435zM176.59254,171.79329c3.71424,0 9.40497,-0.17977 12.81931,-0.17977v9.58429c-4.25331,0 -9.22499,0 -12.81931,0.17977v14.25718c5.63111,-0.3593 11.26197,-0.83896 16.95248,-1.01871v9.22454l-26.53721,2.09706v-56.60801h26.53721v9.58451h-16.95248zM229.1873,158.91435h-9.9438v44.08859c-3.2348,0 -6.46962,0 -9.58406,0.11948v-44.20807h-9.9438v-9.58473h29.47212zM244.76198,171.13453h13.11898v9.58429h-13.11898v21.74506h-9.40541v-53.13427h26.77748v9.58451h-17.37207zM277.70875,194.07719c5.45133,0.11948 10.96209,0.5395 16.29373,0.83851v9.46482c-8.56601,-0.5395 -17.13225,-1.0779 -25.87802,-1.2581v-53.7928h9.58429zM302.08927,205.03951c3.05505,0.17998 6.28985,0.35974 9.40475,0.7186v-56.42848h-9.40475zM353.48645,149.32963l-12.16056,29.17289l12.16056,32.16786c-3.59455,-0.47921 -7.18865,-1.13819 -10.78299,-1.73732l-6.88854,-17.73093l-7.00801,16.29373c-3.47508,-0.59957 -6.82958,-0.77933 -10.30333,-1.25854l12.33988,-28.09454l-11.14229,-28.81315h10.30289l6.28985,16.11397l6.70944,-16.11397z" fill="#ffffff" stroke-width="1"/></g></g></svg>