<svg viewBox="0,0,384,230" height="230" width="384" xmlns:xlink="http://www.w3.org/1999/xlink" xmlns="http://www.w3.org/2000/svg" version="1.1"><g transform="translate(-48,-65)"><g style="mix-blend-mode: normal" stroke-dashoffset="0" stroke-dasharray="" stroke-miterlimit="10" stroke-linejoin="miter" data-paper-data="{&quot;isPaintingLayer&quot;:true}"><path stroke-linecap="butt" stroke-width="0" stroke="none" fill-rule="nonzero" fill="none" d="M48,295v-230h384v230z"></path><path stroke-linecap="round" stroke-width="0.25" stroke="#ffffff" fill-rule="evenodd" fill="#ffffff" d="M363.30783,175.67482l-0.17475,-5.32987h0.17475l5.67937,20.57679h3.58237l5.67937,-20.57679h0.17475l-0.17475,5.32987v19.61567h3.62606v-31.28022h-5.11143l-5.89781,21.2321h-0.17475l-5.85412,-21.2321h-5.15512v31.28022h3.62606zM101.79475,175.28163l-0.17475,-5.46093h0.17475l13.63048,25.46978h3.75712v-31.28022h-3.66975v18.82929l0.17475,5.46093h-0.17475l-12.93149,-24.29022h-4.45612v31.28022h3.66975zM197.64152,184.40095c0.0105,-0.149 0.01894,-0.29813 0.02534,-0.44736c0.01456,-0.33494 0.02184,-0.70628 0.02184,-1.11403c-0.0001,-0.07544 -0.00068,-0.15087 -0.00175,-0.2263c-0.04019,-3.12627 -0.92064,-5.61384 -2.64134,-7.46269c-1.18225,-1.25732 -2.71543,-2.12985 -4.4002,-2.50416c-0.99943,-0.23139 -2.02268,-0.34401 -3.04851,-0.33552c-0.40613,-0.00035 -0.81204,0.01918 -1.21626,0.05854c-1.56127,0.13672 -3.06811,0.6406 -4.39758,1.47052c-1.61644,1.01937 -2.86881,2.42465 -3.75712,4.21584c-0.43648,0.88478 -0.76503,1.81882 -0.9786,2.78202c-0.24154,1.10219 -0.36022,2.22775 -0.35387,3.35607c-0.0008,0.58109 0.02953,1.16179 0.09087,1.73963c0.14984,1.49495 0.55502,2.95313 1.19791,4.31108c0.85919,1.79119 2.097,3.19647 3.71343,4.21584c0.8727,0.54728 1.82807,0.95002 2.8292,1.19267c0.9547,0.22977 1.93376,0.34272 2.9157,0.33639c0.15643,0 0.31285,-0.00233 0.4692,-0.00699c0.9454,-0.02796 1.82119,-0.14242 2.62736,-0.34338c1.1323,-0.26764 2.19737,-0.76553 3.1289,-1.46266c1.58731,-1.20869 2.64309,-2.75959 3.16734,-4.65271l-3.23287,-0.87375c-0.43687,1.165 -1.12131,2.11884 -2.05331,2.86153c-0.932,0.74269 -2.25719,1.11403 -3.97556,1.11403c-0.33568,0.00046 -0.67113,-0.01762 -1.00481,-0.05417c-1.64966,-0.14401 -3.18161,-0.91405 -4.28137,-2.15204c-0.35468,-0.3995 -0.66059,-0.83976 -0.91132,-1.3115c-0.38794,-0.72521 -0.669,-1.54916 -0.84317,-2.47184c-0.14603,-0.80573 -0.21682,-1.62329 -0.21145,-2.44213c-0.00131,-0.53159 0.02406,-1.06292 0.07602,-1.59197c0.20446,-2.02768 0.81987,-3.63043 1.84623,-4.80824c0.74955,-0.87571 1.72976,-1.52353 2.8292,-1.86982c0.75342,-0.23097 1.53793,-0.34443 2.32592,-0.33639c0.10953,0 0.21905,0.00174 0.32853,0.00524c0.66055,0.02097 1.26694,0.10689 1.81915,0.25776c0.94001,0.23831 1.79335,0.73784 2.46135,1.44081c0.67422,0.728 1.15674,1.61228 1.40411,2.57319c0.16904,0.6437 0.26229,1.30496 0.27785,1.9703h-13.63048v3.01443h17.34392c0.01573,-0.13922 0.02913,-0.28863 0.04019,-0.44823zM286.24317,187.64518l15.20323,-14.46055v-0.17475h-4.71824l-10.48499,10.0918v-19.09142h-3.66975v31.28022h3.66975zM206.89452,192.59322c0.31572,0.4526 0.7057,0.88161 1.16995,1.28703c0.41697,0.36011 0.86261,0.68564 1.33247,0.97336c0.64259,0.39577 1.34261,0.68963 2.07515,0.87113c0.73617,0.18077 1.49188,0.2697 2.2499,0.26475c0.42797,0.00073 0.85563,-0.0229 1.28092,-0.07077c1.41513,-0.14582 2.77415,-0.6311 3.96158,-1.4146c0.67315,-0.44879 1.28421,-0.98435 1.8174,-1.59284c0.67295,-0.77577 1.23061,-1.64447 1.65575,-2.57931c0.42717,-0.93039 0.74219,-1.90829 0.93841,-2.91308c0.20946,-1.07683 0.31219,-2.17169 0.30669,-3.2687c0.00343,-0.91443 -0.06523,-1.8277 -0.20533,-2.73134c-0.18233,-1.2004 -0.53234,-2.36924 -1.03976,-3.47228c-0.13046,-0.27978 -0.27183,-0.55435 -0.42377,-0.82307c-0.73821,-1.33522 -1.78344,-2.47568 -3.04938,-3.32724c-1.48537,-0.99025 -3.21831,-1.48537 -5.19881,-1.48537c-0.50718,-0.00165 -1.01373,0.03603 -1.51508,0.11271c-1.01304,0.14809 -1.98456,0.50386 -2.85366,1.045c-0.63085,0.39785 -1.17636,0.81725 -1.63653,1.2582c-0.40991,0.38626 -0.77005,0.82213 -1.07209,1.29752h-0.17475l0.17475,-3.01443v-8.99962h-3.66975v31.28022h3.495v-3.01443h0.17475c0.06535,0.10789 0.13412,0.21366 0.2062,0.31717zM157.93749,189.06851c0.06174,2.19602 0.74473,3.87682 2.04894,5.04241c0.84451,0.75107 1.8594,1.28491 2.95677,1.55527c0.7762,0.19221 1.57348,0.28615 2.3731,0.2796c0.26926,0.00017 0.53848,-0.00711 0.80734,-0.02184c0.78171,-0.04311 1.45188,-0.15233 2.0105,-0.32766c0.29226,-0.09133 0.58109,-0.19333 0.86589,-0.30581c0.38456,-0.15111 0.75926,-0.32621 1.12189,-0.52425l-1.00481,-3.05812c-0.1326,0.06619 -0.26723,0.12825 -0.40367,0.18611c-0.36544,0.15422 -0.74155,0.28183 -1.12539,0.38183c-0.55338,0.14562 -1.10675,0.21844 -1.66012,0.21844c-0.73977,0 -1.38344,-0.09378 -1.93099,-0.28135c-0.49899,-0.16216 -0.95257,-0.43999 -1.32373,-0.81084c-0.16676,-0.17032 -0.31469,-0.35809 -0.44124,-0.56007c-0.23999,-0.38212 -0.41124,-0.82278 -0.51376,-1.32198c-0.07953,-0.40164 -0.11817,-0.81032 -0.11533,-1.21975v-11.97036h8.30062v-3.32025h-8.30062v-6.11624h-3.66975v6.11624h-5.28618v3.32025h5.28618v12.40724c-0.0001,0.1104 0.00136,0.22079 0.00437,0.33115zM355.13828,191.7518h-15.77117v-27.74153h-3.71343v31.28022h19.4846zM129.07756,194.48226c-1.64556,-1.00481 -2.9125,-2.40281 -3.80081,-4.194c-0.62387,-1.27558 -1.03022,-2.64643 -1.20228,-4.05594c-0.0881,-0.69053 -0.13159,-1.38602 -0.13019,-2.08214c0,-2.33 0.44416,-4.38331 1.33247,-6.15993c0.88831,-1.77662 2.15525,-3.16734 3.80081,-4.17215c1.64556,-1.00481 3.57509,-1.50722 5.78859,-1.50722c0.98565,-0.00628 1.96864,0.1031 2.92881,0.32591c1.01749,0.23726 1.99037,0.63609 2.88162,1.18131c1.631,1.00481 2.89065,2.39553 3.77896,4.17215c0.88831,1.77662 1.33247,3.82993 1.33247,6.15993c0,2.33 -0.44416,4.38331 -1.33247,6.15993c-0.88831,1.77662 -2.14797,3.16734 -3.77896,4.17215c-1.13271,0.68851 -2.3907,1.14556 -3.7012,1.3447c-0.69761,0.11042 -1.40294,0.16477 -2.10923,0.16252c-1.01612,0.00652 -2.02916,-0.11233 -3.01618,-0.35387c-0.97731,-0.24154 -1.91215,-0.63044 -2.77241,-1.15335zM233.92744,194.48226c-1.64556,-1.00481 -2.9125,-2.40281 -3.80081,-4.194c-0.62387,-1.27558 -1.03022,-2.64643 -1.20228,-4.05594c-0.0881,-0.69053 -0.13159,-1.38602 -0.13019,-2.08214c0,-2.33 0.44416,-4.38331 1.33247,-6.15993c0.88831,-1.77662 2.15525,-3.16734 3.80081,-4.17215c1.64556,-1.00481 3.57509,-1.50722 5.78859,-1.50722c0.98565,-0.00628 1.96864,0.1031 2.92881,0.32591c1.01749,0.23726 1.99037,0.63609 2.88162,1.18131c1.631,1.00481 2.89065,2.39553 3.77896,4.17215c0.88831,1.77662 1.33247,3.82993 1.33247,6.15993c0,2.33 -0.44416,4.38331 -1.33247,6.15993c-0.88831,1.77662 -2.14797,3.16734 -3.77896,4.17215c-1.13271,0.68851 -2.3907,1.14556 -3.7012,1.3447c-0.69761,0.11042 -1.40294,0.16477 -2.10923,0.16252c-1.01612,0.00652 -2.02916,-0.11233 -3.01618,-0.35387c-0.97731,-0.24154 -1.91215,-0.63044 -2.77241,-1.15335zM260.13992,194.48226c-1.64556,-1.00481 -2.9125,-2.40281 -3.80081,-4.194c-0.62387,-1.27558 -1.03022,-2.64643 -1.20228,-4.05594c-0.0881,-0.69053 -0.13159,-1.38602 -0.13019,-2.08214c0,-2.33 0.44416,-4.38331 1.33247,-6.15993c0.88831,-1.77662 2.15525,-3.16734 3.80081,-4.17215c1.64556,-1.00481 3.57509,-1.50722 5.78859,-1.50722c0.98565,-0.00628 1.96864,0.1031 2.92881,0.32591c1.01749,0.23726 1.99037,0.63609 2.88162,1.18131c1.631,1.00481 2.89065,2.39553 3.77896,4.17215c0.88831,1.77662 1.33247,3.82993 1.33247,6.15993c0,2.33 -0.44416,4.38331 -1.33247,6.15993c-0.88831,1.77662 -2.14797,3.16734 -3.77896,4.17215c-1.13271,0.68851 -2.3907,1.14556 -3.7012,1.3447c-0.69761,0.11042 -1.40294,0.16477 -2.10923,0.16252c-1.01612,0.00652 -2.02916,-0.11233 -3.01618,-0.35387c-0.97731,-0.24154 -1.91215,-0.63044 -2.77241,-1.15335zM134.52102,192.61856c-1.86377,-0.02817 -3.63113,-0.83329 -4.87552,-2.22107c-0.34351,-0.37738 -0.64363,-0.79209 -0.89472,-1.23635c-0.42522,-0.75026 -0.73133,-1.60566 -0.91831,-2.5662c-0.15077,-0.80606 -0.22392,-1.62472 -0.21844,-2.44475c0,-1.21917 0.14009,-2.31485 0.42027,-3.28704c0.30001,-1.09843 0.85164,-2.11194 1.61119,-2.96026c0.70398,-0.7878 1.58629,-1.39568 2.57319,-1.77284c0.84751,-0.31129 1.74465,-0.46555 2.64746,-0.45522c0.11508,0.00009 0.23015,0.00242 0.34513,0.00699c1.86377,0.02817 3.63113,0.83329 4.87552,2.22107c0.34351,0.37738 0.64363,0.79209 0.89472,1.23635c0.42522,0.75026 0.73133,1.60566 0.91831,2.5662c0.15077,0.80606 0.22392,1.62472 0.21844,2.44475c0,1.21917 -0.14009,2.31485 -0.42027,3.28704c-0.30001,1.09843 -0.85164,2.11194 -1.61119,2.96026c-0.70398,0.7878 -1.58629,1.39568 -2.57319,1.77284c-0.84751,0.31129 -1.74465,0.46555 -2.64746,0.45522c-0.11508,-0.00009 -0.23015,-0.00242 -0.34513,-0.00699zM239.3709,192.61856c-1.86377,-0.02817 -3.63113,-0.83329 -4.87552,-2.22107c-0.34351,-0.37738 -0.64363,-0.79209 -0.89472,-1.23635c-0.42522,-0.75026 -0.73133,-1.60566 -0.91831,-2.5662c-0.15077,-0.80606 -0.22392,-1.62472 -0.21844,-2.44475c0,-1.21917 0.14009,-2.31485 0.42027,-3.28704c0.30001,-1.09843 0.85164,-2.11194 1.61119,-2.96026c0.70398,-0.7878 1.58629,-1.39568 2.57319,-1.77284c0.84751,-0.31129 1.74465,-0.46555 2.64746,-0.45522c0.11508,0.00009 0.23015,0.00242 0.34513,0.00699c1.86377,0.02817 3.63113,0.83329 4.87552,2.22107c0.34351,0.37738 0.64363,0.79209 0.89472,1.23635c0.42522,0.75026 0.73133,1.60566 0.91831,2.5662c0.15077,0.80606 0.22392,1.62472 0.21844,2.44475c0,1.21917 -0.14009,2.31485 -0.42027,3.28704c-0.30001,1.09843 -0.85164,2.11194 -1.61119,2.96026c-0.70398,0.7878 -1.58629,1.39568 -2.57319,1.77284c-0.84751,0.31129 -1.74465,0.46555 -2.64746,0.45522c-0.11508,-0.00009 -0.23015,-0.00242 -0.34513,-0.00699zM265.58337,192.61856c-1.86377,-0.02817 -3.63113,-0.83329 -4.87552,-2.22107c-0.34351,-0.37738 -0.64363,-0.79209 -0.89472,-1.23635c-0.42522,-0.75026 -0.73133,-1.60566 -0.91831,-2.5662c-0.15077,-0.80606 -0.22392,-1.62472 -0.21844,-2.44475c0,-1.21917 0.14009,-2.31485 0.42027,-3.28704c0.30001,-1.09843 0.85164,-2.11194 1.61119,-2.96026c0.70398,-0.7878 1.58629,-1.39568 2.57319,-1.77284c0.84751,-0.31129 1.74465,-0.46555 2.64746,-0.45522c0.11508,0.00009 0.23015,0.00242 0.34513,0.00699c1.86377,0.02817 3.63113,0.83329 4.87552,2.22107c0.34351,0.37738 0.64363,0.79209 0.89472,1.23635c0.42522,0.75026 0.73133,1.60566 0.91831,2.5662c0.15077,0.80606 0.22392,1.62472 0.21844,2.44475c0,1.21917 -0.14009,2.31485 -0.42027,3.28704c-0.30001,1.09843 -0.85164,2.11194 -1.61119,2.96026c-0.70398,0.7878 -1.58629,1.39568 -2.57319,1.77284c-0.84751,0.31129 -1.74465,0.46555 -2.64746,0.45522c-0.11508,-0.00009 -0.23015,-0.00242 -0.34513,-0.00699zM210.83863,192.17294c-0.92915,-0.38485 -1.75295,-0.98607 -2.40281,-1.75361c-0.37315,-0.43033 -0.69022,-0.90625 -0.94365,-1.41635c-0.35591,-0.71065 -0.61483,-1.51508 -0.77676,-2.41329c-0.13949,-0.80557 -0.20704,-1.62196 -0.20184,-2.43951c0,-1.35955 0.16135,-2.56329 0.48406,-3.6112c0.28669,-0.97745 0.77681,-1.88323 1.43819,-2.65794c0.54318,-0.63685 1.20493,-1.16209 1.94846,-1.54654c0.90066,-0.44765 1.89517,-0.67381 2.90085,-0.65968c0.15271,-0.00014 0.30539,0.00422 0.45784,0.01311c1.70476,0.07112 3.29995,0.85983 4.39146,2.17127c0.41326,0.48482 0.75514,1.02619 1.0153,1.6077c0.31047,0.68269 0.53706,1.45072 0.67978,2.30408c0.12675,0.78664 0.18812,1.58244 0.18349,2.37922c0.00058,0.44123 -0.01749,0.88228 -0.05417,1.32198c-0.07339,0.86559 -0.22193,1.65692 -0.44561,2.37398c-0.28005,0.94247 -0.74919,1.81801 -1.37878,2.57319c-0.62082,0.74818 -1.41054,1.33815 -2.30408,1.72129c-0.80727,0.3308 -1.67288,0.49572 -2.54523,0.48493c-0.83711,0.00896 -1.668,-0.14475 -2.4465,-0.4526zM301.88328,195.11573l-9.69861,-13.9363l-2.70862,2.49018l8.16955,11.62086h4.23768z"></path></g></g></svg>