<svg viewBox="0,0,384,230" height="230" width="384" xmlns:xlink="http://www.w3.org/1999/xlink" xmlns="http://www.w3.org/2000/svg" version="1.1"><g transform="translate(-48,-65)"><g style="mix-blend-mode: normal" stroke-dashoffset="0" stroke-dasharray="" stroke-miterlimit="10" stroke-linejoin="miter" stroke-linecap="butt" stroke="none" data-paper-data="{&quot;isPaintingLayer&quot;:true}"><path stroke-width="0" fill-rule="nonzero" fill="none" d="M48,295v-230h384v230z"></path><path stroke-width="1" fill-rule="evenodd" fill="#ffffff" d="M297.32184,168.42835c-4.74209,0 -8.59816,-3.95174 -8.59816,-8.80771c0,-4.66009 3.93807,-8.59816 8.59816,-8.59816c4.66009,0 8.59816,3.93579 8.59816,8.59816c0,4.85597 -3.85835,8.80771 -8.59816,8.80771z"></path><path stroke-width="1" fill-rule="evenodd" fill="#ffffff" d="M288.87856,171.51914h16.88656v27.27041h-31.14471l-5.92191,-12.80955l-1.84035,0.42364v12.37908h-12.00554c-0.33026,0.42364 -0.66963,0.84501 -1.02722,1.24816c-5.14979,5.8217 -12.52029,8.89654 -21.32116,8.89654c-8.9922,0 -16.46747,-3.07712 -21.61954,-8.91476c-1.62577,-1.85937 -2.9835,-3.93698 -4.03373,-6.17246c-3.38916,3.50759 -8.08341,5.36161 -13.63862,5.36161h-6.37744v11.9076h-12.75489v-49.88984h19.13233c5.57343,0 10.26769,1.4782 13.6409,4.94252c1.02688,-2.16377 2.33827,-4.18064 3.89935,-5.99708c5.14751,-5.94469 12.67062,-9.09014 21.75164,-9.09014c8.29523,0 15.3127,2.73319 20.39871,7.9217v-10.09231l13.95522,-0.01367v23.68765c3.99957,-1.30054 5.45272,-3.38688 5.64404,-7.8602v-3.50759h13.71834v3.64425c-0.15944,4.44371 -1.58525,10.623 -5.08601,15.00294l7.74404,16.81823v-25.15674zM193.68153,186.05288c3.19556,0 4.42094,-3.27755 4.40955,-6.24079c0,-4.60315 -2.88124,-5.76703 -4.6077,-5.76703h-6.66215v12.00782h6.8512zM232.3744,199.75072c10.75738,0 19.50815,-8.96714 19.50815,-19.98646c0,-10.57289 -8.9307,-19.50815 -19.50815,-19.50815c-10.57745,0 -19.50815,8.93526 -19.50815,19.50815c0,11.01931 8.75076,19.98646 19.50815,19.98646z"></path><path stroke-width="1" fill-rule="evenodd" fill="#ffffff" d="M232.37212,181.2083c8.62777,0 12.99177,1.51464 14.78884,1.97929c-1.50553,6.94458 -7.5641,12.15359 -14.78884,12.15359c-7.22473,0 -13.28103,-5.20901 -14.78884,-12.15359c1.80618,-0.46464 6.16107,-1.97929 14.78884,-1.97929z"></path></g></g></svg>