<svg version="1.1" xmlns="http://www.w3.org/2000/svg" xmlns:xlink="http://www.w3.org/1999/xlink" width="384" height="230" viewBox="0,0,384,230"><g transform="translate(-48,-65)"><g data-paper-data="{&quot;isPaintingLayer&quot;:true}" fill-rule="nonzero" stroke="none" stroke-linecap="butt" stroke-linejoin="miter" stroke-miterlimit="10" stroke-dasharray="" stroke-dashoffset="0" style="mix-blend-mode: normal"><path d="M48,295v-230h384v230z" fill="none" stroke-width="0"/><path d="M238.99825,213.79215v-0.10978c0.10978,-0.13723 0.3019,-0.21956 0.46657,-0.19212c0.79592,-0.02745 1.56438,-0.02745 2.3603,0c0.16467,0 0.35679,0.05489 0.46657,0.19212v0.10978z" fill="#ffffff" stroke-width="1"/><path d="M242.29168,213.68237c-1.09781,-0.02745 -2.19563,-0.02745 -3.29344,0c-1.50949,-0.08234 -3.01898,-0.13723 -4.52847,-0.24701c-4.00701,-0.3019 -7.98658,-0.90569 -11.88381,-1.81139c-13.47564,-3.12876 -25.30456,-9.41373 -35.62399,-18.55302c-0.96059,-0.85081 -1.86628,-1.72905 -2.79942,-2.6073c-0.21956,-0.19212 -0.41168,-0.46657 -0.52146,-0.74102c-0.16467,-0.38423 -0.08234,-0.79592 0.19212,-1.09781c0.27445,-0.3019 0.71358,-0.41168 1.09781,-0.24701c0.24701,0.10978 0.49402,0.21956 0.71358,0.35679c9.85286,6.09285 20.61141,10.539 31.89143,13.17374c3.78745,0.87825 7.60235,1.56438 11.44469,2.05839c5.5165,0.68613 11.0879,0.93314 16.63184,0.74103c2.99153,-0.08234 5.95564,-0.35679 8.91973,-0.74103c6.91622,-0.87825 13.75009,-2.44263 20.3644,-4.63825c3.48555,-1.1527 6.88877,-2.47008 10.20965,-4.00701c0.49401,-0.27445 1.09781,-0.35679 1.64672,-0.21957c0.90569,0.21956 1.4546,1.1527 1.23504,2.0584c-0.02745,0.10978 -0.08234,0.24701 -0.13723,0.35679c-0.21956,0.41168 -0.52146,0.76847 -0.90569,1.04292c-3.15621,2.47008 -6.55943,4.63826 -10.15476,6.44965c-6.77898,3.43066 -14.02454,5.87329 -21.48966,7.273c-4.30891,0.76847 -8.64527,1.23504 -13.00907,1.39971z" fill="#ffffff" stroke-width="1"/><path d="M201.64521,158.05076c0.68613,-0.41168 1.3997,-0.85081 2.14073,-1.23504c1.92117,-0.98803 4.0619,-1.48204 6.23008,-1.37226c1.56438,0.08234 2.99154,0.52146 4.08935,1.67416c1.04292,1.07037 1.42715,2.38774 1.53693,3.8149c0.02745,0.3019 0.02745,0.6038 0.02745,0.93314v14.21666c0,1.23504 -0.16467,1.39971 -1.39971,1.39971h-3.34833c-0.21956,0 -0.43912,0 -0.65868,-0.02745c-0.32934,-0.02745 -0.60379,-0.3019 -0.65868,-0.63124c-0.05489,-0.3019 -0.0549,-0.6038 -0.0549,-0.9057v-12.70717c0.02745,-0.52146 -0.02745,-1.01548 -0.16467,-1.50949c-0.21956,-0.85081 -0.98803,-1.45461 -1.86628,-1.5095c-1.61927,-0.10978 -3.23855,0.21957 -4.72059,0.9057c-0.21956,0.05489 -0.35679,0.27445 -0.32934,0.49401v14.43623c0,0.27445 0,0.52146 -0.05489,0.79592c0,0.38423 -0.3019,0.65868 -0.68613,0.65868v0c-0.41168,0.02745 -0.82336,0.02745 -1.26248,0.02745h-2.9092c-1.01548,0 -1.23504,-0.247 -1.23504,-1.26248v-12.98163c0,-0.46657 -0.02745,-0.96059 -0.13723,-1.42715c-0.19212,-0.93314 -0.98803,-1.59183 -1.92117,-1.64672c-1.64672,-0.10978 -3.32089,0.21956 -4.80293,0.93314c-0.21956,0.05489 -0.35679,0.30191 -0.3019,0.52147v14.62834c0,1.01548 -0.21956,1.23503 -1.23504,1.23503h-3.67767c-0.96059,0 -1.20759,-0.27445 -1.20759,-1.20759v-19.04704c0,-0.21956 0.02745,-0.43912 0.08234,-0.65868c0.10978,-0.32934 0.43913,-0.52146 0.76847,-0.52146h3.43066c0.49401,0 0.79592,0.3019 0.96059,0.76846c0.13723,0.38423 0.21956,0.74103 0.35679,1.1527c0.27445,0 0.43912,-0.19212 0.63124,-0.3019c1.50949,-0.93314 3.10132,-1.72905 4.88527,-2.0584c1.37226,-0.27445 2.74453,-0.27445 4.11679,0c1.28993,0.27445 2.44263,1.04292 3.18365,2.14073c0.05489,0.08234 0.10978,0.13723 0.16467,0.19212c-0.02745,0.02745 0.00001,0.02745 0.02745,0.08234z" fill="#ffffff" stroke-width="1"/><path d="M258.5393,171.71852c0.16467,-0.5489 0.32934,-1.07037 0.49401,-1.61927c1.26249,-4.25402 2.52497,-8.4806 3.78745,-12.73462l0.16467,-0.49401c0.13723,-0.49401 0.60379,-0.79591 1.09781,-0.79591h4.17169c1.04292,0 1.26248,0.30189 0.90569,1.28992l-1.64672,4.36381c-1.83884,4.77548 -3.67766,9.57841 -5.5165,14.35388c-0.05489,0.16467 -0.13723,0.32935 -0.19212,0.49402c-0.19212,0.57635 -0.76847,0.96058 -1.37227,0.90569c-1.2076,-0.02745 -2.41518,-0.02745 -3.62278,0c-0.85081,0.02745 -1.34482,-0.35678 -1.64672,-1.12525c-0.68613,-1.81139 -1.39972,-3.65023 -2.08585,-5.46162c-1.64672,-4.30891 -3.32088,-8.61782 -4.96759,-12.95417c-0.16467,-0.32934 -0.27445,-0.71358 -0.35679,-1.07037c-0.08234,-0.5489 0.10978,-0.82335 0.65868,-0.82335c1.56438,-0.02745 3.12876,0 4.6657,0c0.65868,0 0.96059,0.43912 1.12526,1.01547c0.3019,1.04292 0.60379,2.11329 0.93314,3.15621c1.12525,3.8149 2.22307,7.65723 3.34832,11.47213c-0.02745,0.02745 0,0.02745 0.05489,0.02745z" fill="#ffffff" stroke-width="1"/><path d="M161.08106,159.09368c0.19212,-0.05489 0.35679,-0.16468 0.46657,-0.32935c0.49401,-0.49401 1.01548,-0.96059 1.56438,-1.39971c1.42715,-1.09781 3.2111,-1.64672 4.99505,-1.50949c0.71358,0.02745 0.96059,0.24701 1.01548,0.93314c0.05489,0.93314 0.02745,1.89372 0.02745,2.82686c0.02745,0.38423 0,0.74103 -0.05489,1.12526c-0.10978,0.49401 -0.3019,0.68613 -0.79592,0.74102c-0.38423,0.02745 -0.74102,0 -1.12526,-0.02745c-1.83883,-0.16467 -3.62278,0.19212 -5.35183,0.76847c-0.38423,0.13723 -0.38423,0.41168 -0.38423,0.71358v13.17374c0,0.24701 0,0.46657 -0.02745,0.71358c-0.02745,0.35679 -0.3019,0.63124 -0.65869,0.63124c-0.19212,0.02745 -0.41168,0.02745 -0.60379,0.02745h-3.56789c-0.19212,0 -0.41168,0 -0.60379,-0.02745c-0.35679,-0.02745 -0.63125,-0.32934 -0.65869,-0.68613c-0.02745,-0.21956 -0.02745,-0.43913 -0.02745,-0.65869v-18.66279c0,-1.26248 0.13723,-1.39971 1.39971,-1.39971h2.63475c0.71358,0 1.04292,0.24701 1.23504,0.93314c0.19212,0.68613 0.35679,1.37226 0.52146,2.11329z" fill="#ffffff" stroke-width="1"/><path d="M289.47014,186.92321c1.81139,0.05489 3.59533,0.16467 5.35183,0.63124c0.49401,0.13723 0.96058,0.3019 1.42715,0.52146c0.63124,0.24701 1.04292,0.85081 1.12526,1.50949c0.10978,0.76847 0.13723,1.56438 0.08234,2.3603c-0.35679,4.69314 -1.81139,9.22162 -4.22658,13.25608c-0.87825,1.4546 -1.94861,2.77197 -3.18365,3.92468c-0.24701,0.24701 -0.5489,0.43912 -0.87824,0.5489c-0.52146,0.13723 -0.85081,-0.13723 -0.87825,-0.65868c0.02745,-0.27445 0.08234,-0.54891 0.19212,-0.82336c0.96058,-2.57986 1.89373,-5.13227 2.63475,-7.79447c0.43912,-1.4546 0.74103,-2.93664 0.93314,-4.44613c0.05489,-0.5489 0.08234,-1.09781 0.02745,-1.64672c-0.02745,-0.93314 -0.63124,-1.72905 -1.53694,-2.00351c-0.8508,-0.27445 -1.72906,-0.43912 -2.63475,-0.49401c-2.52497,-0.10978 -5.04994,0 -7.54746,0.32934l-3.32088,0.41168c-0.35679,0.02745 -0.68613,0 -0.87825,-0.32935c-0.19212,-0.32934 -0.10978,-0.65868 0.08234,-0.98803c0.21956,-0.3019 0.49401,-0.57636 0.82336,-0.76847c2.03095,-1.4546 4.30891,-2.33285 6.7241,-2.9092c1.86628,-0.38423 3.76,-0.57635 5.68117,-0.63124z" fill="#ffffff" stroke-width="1"/><path d="M277.97057,166.77837v9.8803c-0.05489,0.5489 -0.3019,0.79591 -0.85081,0.82335c-1.48205,0.02745 -2.93665,0.02745 -4.41869,0c-0.5489,0 -0.79591,-0.27445 -0.8508,-0.79591c-0.02745,-0.16467 -0.02745,-0.35679 -0.02745,-0.52146v-18.99215c0.02745,-0.85081 0.24701,-1.09781 1.09781,-1.09781h3.95212c0.8508,0 1.09782,0.247 1.09782,1.09781v9.60586z" fill="#ffffff" stroke-width="1"/><path d="M171.78473,166.72347v-9.74308c0.02745,-0.65868 0.27445,-0.90569 0.93314,-0.93314c1.42715,-0.02745 2.85431,-0.02745 4.28146,0c0.63124,0 0.82336,0.19212 0.87825,0.82335c0.02745,0.24701 0.02745,0.46657 0.02745,0.71358v18.27856c0,0.3019 -0.02745,0.6038 -0.05489,0.9057c-0.02745,0.35679 -0.3019,0.60379 -0.65869,0.63124c-0.16467,0.02745 -0.3019,0.02745 -0.46657,0.02745h-3.8149c-0.13723,0 -0.24701,0 -0.38423,-0.02745c-0.38423,-0.02745 -0.71357,-0.32934 -0.74102,-0.71357c-0.02745,-0.21956 -0.02745,-0.43913 -0.02745,-0.65869c0.02745,-3.04643 0.02745,-6.17519 0.02745,-9.30396z" fill="#ffffff" stroke-width="1"/><path d="M174.96838,146.22184c0.43912,-0.02745 0.87825,0.05489 1.28993,0.19212c1.48204,0.49401 2.25052,1.78394 2.11329,3.45811c-0.10978,1.42715 -1.18015,2.57986 -2.60731,2.79942c-0.60379,0.10978 -1.23504,0.10978 -1.83883,0c-1.56438,-0.3019 -2.71708,-1.4546 -2.6073,-3.43066c0.16467,-1.94861 1.4546,-3.01898 3.65022,-3.01898z" fill="#ffffff" stroke-width="1"/><path d="M274.92413,146.22184c0.5489,-0.05489 1.09782,0.05489 1.61928,0.27445c1.07036,0.41168 1.81139,1.39972 1.86628,2.55242c0.21956,2.49752 -1.4546,3.76 -3.67767,3.70511c-0.3019,0 -0.60379,-0.05489 -0.90569,-0.10978c-1.70161,-0.41168 -2.57986,-1.72905 -2.41519,-3.62277c0.13723,-1.50949 1.31738,-2.63475 2.93664,-2.77198c0.19212,-0.02745 0.38423,-0.05489 0.57635,-0.02745z" fill="#ffffff" stroke-width="1"/><path d="M150.6244,171.30684c-0.52146,1.7565 -1.50949,3.34832 -2.85431,4.58336c-1.83883,1.64672 -4.03446,2.25052 -6.44964,2.00351c-1.72905,-0.16467 -3.40322,-0.82336 -4.77549,-1.89373c-0.19212,0.16467 -0.10978,0.38424 -0.10978,0.57635v7.82191c0,1.70161 0,1.70161 -1.72905,1.70161c-0.98803,0 -1.97606,-0.02745 -2.96409,0c-0.63124,0.02745 -1.18015,-0.08234 -1.53693,-0.65869c-0.02745,-9.57841 -0.02745,-19.2117 -0.02745,-28.81755c0.43912,-0.49401 1.01548,-0.57635 1.64672,-0.5489c0.82336,0.02745 1.67416,0 2.49752,0c0.74103,0 1.01548,0.24701 1.23504,0.93314c0.08234,0.27445 0.13723,0.5489 0.21956,0.82336c0,0.02745 0.05489,0.05489 0.10978,0.08234c0.21956,-0.10978 0.41168,-0.24701 0.57635,-0.41168c2.47008,-1.83883 5.18717,-2.49752 8.20615,-1.83884c2.63475,0.60379 4.3638,2.33285 5.48905,4.69315c0.57635,1.28993 0.96059,2.68964 1.07037,4.11679c0.19212,2.30541 0.13723,4.58336 -0.6038,6.83388zM144.99812,164.96698c-0.05489,-0.96059 -0.3019,-1.92117 -0.71358,-2.79942c-0.46657,-1.07037 -1.4546,-1.8114 -2.6073,-1.97607c-1.64672,-0.32934 -3.2111,0 -4.72059,0.71358c-0.35679,0.13723 -0.57635,0.46657 -0.54891,0.85081c0.02745,1.64672 0,3.29343 0,4.94015v4.9676c-0.02745,0.32934 0.16467,0.63125 0.46657,0.76847c1.23504,0.65868 2.6073,0.96058 4.00701,0.87824c0.93314,0 1.81139,-0.35679 2.52497,-0.96059c0.63124,-0.57635 1.07037,-1.34481 1.26248,-2.19562c0.49401,-1.67416 0.49401,-3.43066 0.32934,-5.18716z" fill="#ffffff" stroke-width="1"/><path d="M349.82234,165.13165v3.15621c-0.02745,0.02745 -0.05489,0.08234 -0.05489,0.10978v-0.05489c-0.16467,0.10978 -0.13723,0.24701 -0.10978,0.41168v0.38423h0.02745c-0.38423,3.78745 -2.77197,8.15125 -8.53548,8.83738c-1.72906,0.24701 -3.48555,0.13723 -5.15972,-0.27445c-3.15621,-0.79592 -5.35183,-2.71708 -6.44964,-5.76351c-1.26249,-3.34832 -1.28993,-7.026 -0.02745,-10.37433c1.28993,-3.513 3.95212,-5.48906 7.65723,-6.03796c1.7565,-0.27445 3.51299,-0.21956 5.24205,0.19212c3.70511,0.93314 5.98308,3.32088 6.99855,6.94366c0.13723,0.49401 0.24701,1.01548 0.3019,1.53693c0,0.02745 0.02745,0.02745 0.02745,0.05489h-0.05489v0.27445h0.02745c-0.02745,0 -0.02745,0.02745 -0.02745,0.02745v0.21956c-0.05489,0.13723 0,0.3019 0.10978,0.41168v-0.10978c0,0.02745 0.02745,0.02745 0.02745,0.05489zM343.59226,166.77837c0.02745,-0.49401 0,-0.98804 -0.02745,-1.48205c-0.05489,-1.07037 -0.32935,-2.14073 -0.79592,-3.10131c-0.49401,-1.01548 -1.39971,-1.72905 -2.49752,-1.94861c-0.52146,-0.10978 -1.04293,-0.10979 -1.56439,-0.0549c-1.1527,0.08234 -2.19563,0.71358 -2.79942,1.70161c-0.32934,0.5489 -0.60379,1.18015 -0.74102,1.81139c-0.38423,1.59183 -0.35679,3.2111 -0.21956,4.83037c0.08234,0.93314 0.32934,1.86628 0.74102,2.71708c0.46657,1.07037 1.42716,1.83883 2.57986,2.05839c0.52146,0.10978 1.04292,0.10979 1.56438,0.0549c1.04292,-0.08234 2.00351,-0.63125 2.6073,-1.48205c0.35679,-0.49401 0.6038,-1.01548 0.76847,-1.59182c0.32934,-1.12526 0.46657,-2.3054 0.38423,-3.51299z" fill="#ffffff" stroke-width="1"/><path d="M302.75367,147.45688v28.92734c-0.02745,0.79592 -0.24701,1.04292 -1.01548,1.04292c-0.96058,0.02745 -1.92117,0 -2.9092,0h-0.65868c-0.46657,0 -0.8508,-0.3019 -0.96058,-0.74102c-0.05489,-0.32934 -0.16467,-0.65869 -0.3019,-0.96059c-0.24701,0.05489 -0.35679,0.24701 -0.54891,0.35679c-2.55241,1.89372 -5.35183,2.3603 -8.34337,1.42715c-2.19563,-0.65868 -3.70511,-2.19563 -4.74803,-4.19913c-0.90569,-1.81139 -1.37227,-3.8149 -1.37227,-5.84584c-0.05489,-2.16818 0.13723,-4.30892 0.96058,-6.33987c0.8508,-2.11329 2.16818,-3.89723 4.28147,-4.88526c3.01898,-1.39971 6.01052,-1.09781 8.86483,0.57635c0.19212,0.10978 0.32934,0.27445 0.57635,0.3019c0.13723,-0.19212 0.0549,-0.38423 0.0549,-0.57635v-8.89227c0,-1.04292 0.19212,-1.23504 1.23503,-1.23504h3.81489c0.82336,0 1.04293,0.19212 1.07037,1.04292zM296.66081,166.61369c0,-1.67416 -0.02745,-3.32088 0.02745,-5.02249c0.02745,-0.35679 -0.16467,-0.68613 -0.49402,-0.79591c-1.31738,-0.60379 -2.77197,-0.87825 -4.22657,-0.74103c-1.2076,0.08234 -2.30541,0.76847 -2.88176,1.83884c-0.24701,0.43912 -0.41168,0.87825 -0.54891,1.34482c-0.41168,1.67416 -0.5489,3.43066 -0.32934,5.15972c0.08234,0.96059 0.32934,1.89372 0.76847,2.77197c0.57635,1.12526 1.67416,1.89372 2.93664,2.03095c1.48205,0.21956 2.99154,-0.08234 4.30891,-0.82336c0.3019,-0.13723 0.49402,-0.43912 0.43913,-0.76846v-4.99505z" fill="#ffffff" stroke-width="1"/><path d="M224.91881,168.39764c-0.13723,2.47008 1.37226,4.47359 3.70512,4.94016c1.70161,0.3019 3.4581,0.30189 5.15971,-0.0549c0.79592,-0.16467 1.56438,-0.32934 2.3603,-0.52146c0.79592,-0.19212 1.12526,0.05489 1.12526,0.87825c0,0.68613 -0.02745,1.37227 0,2.03096c0.02745,0.71358 -0.3019,1.09781 -0.93314,1.34482c-1.04292,0.41168 -2.14073,0.68614 -3.23854,0.87825c-2.08584,0.32934 -4.19914,0.41168 -6.28498,-0.05489c-3.65023,-0.76847 -6.06541,-2.93664 -7.02599,-6.58687c-0.74103,-2.85431 -0.85081,-5.73606 0.05489,-8.56293c1.28993,-4.14424 4.11679,-6.53198 8.45315,-7.026c1.83883,-0.24701 3.70512,-0.05489 5.46161,0.52146c3.59534,1.28993 5.07738,4.77548 4.11679,8.23359c-0.38423,1.37226 -1.28992,2.36029 -2.52496,3.07387c-1.07037,0.57635 -2.22307,0.93314 -3.43067,1.09781c-2.05839,0.32934 -4.17169,0.3019 -6.23008,-0.08234c-0.24701,-0.05489 -0.52146,-0.08234 -0.76847,-0.10978zM225.35794,164.8023c1.07037,0.16467 2.16818,0.24701 3.23855,0.24701c0.60379,0.05489 1.20759,0 1.78394,-0.13723c0.96059,-0.19212 1.7565,-0.6038 2.08584,-1.59183c0.13723,-0.46657 0.16468,-0.96059 0.08234,-1.42715c-0.08234,-0.76847 -0.5489,-1.42716 -1.26248,-1.72906c-0.46657,-0.19212 -0.96059,-0.30189 -1.4546,-0.32934c-1.7565,-0.10978 -3.48555,0.57635 -4.30891,2.57985c-0.24701,0.60379 -0.43913,1.23504 -0.52146,1.89373c-0.05489,0.43912 -0.05489,0.43912 0.35679,0.49401z" fill="#ffffff" stroke-width="1"/><path d="M312.77119,168.45253c-0.10978,-0.05489 -0.24701,-0.05489 -0.38423,-0.05489c0.05489,0.57635 0.16467,1.12526 0.3019,1.67416c0.49401,1.86628 1.7565,2.93665 3.62278,3.29344c1.86628,0.32934 3.78745,0.247 5.62628,-0.19212c0.60379,-0.13723 1.18014,-0.27445 1.78394,-0.43912c0.79591,-0.19212 1.12526,0.08234 1.15271,0.87825v1.97606c0,0.85081 -0.19212,1.12526 -0.98803,1.42715c-1.89373,0.71358 -3.89724,1.09781 -5.90074,1.12526c-1.37227,0.05489 -2.77197,-0.08234 -4.11679,-0.41168c-3.12876,-0.85081 -5.32439,-2.74453 -6.28497,-5.8733c-0.93314,-3.04643 -1.07036,-6.14774 -0.10978,-9.19417c1.42716,-4.61081 4.94015,-6.94366 9.55096,-7.05344c1.37227,-0.05489 2.77197,0.10978 4.08935,0.52146c2.3603,0.79592 3.92468,2.33285 4.50103,4.80292c0.21956,0.98803 0.21956,2.03095 0.02745,3.01898c-0.3019,1.59183 -1.31737,2.93664 -2.77197,3.65023c-1.42716,0.76847 -3.01898,1.07037 -4.61081,1.18015c-1.83884,0.13723 -3.67767,0 -5.48906,-0.32934zM312.52419,164.39062c-0.05489,0.24701 0.05489,0.35679 0.3019,0.38423c1.09781,0.16467 2.19563,0.24701 3.32088,0.27445c0.57635,0.02745 1.1527,-0.02745 1.70161,-0.13723c1.01547,-0.19212 1.92117,-0.6038 2.19563,-1.70161c0.35679,-1.48204 -0.10978,-3.01898 -2.03096,-3.32088c-0.13723,0 -0.24701,-0.05489 -0.38423,-0.05489c-1.59182,-0.16467 -2.99153,0.21956 -4.00701,1.56438c-0.65868,0.87825 -0.9057,1.92117 -1.09781,2.99153z" fill="#ffffff" stroke-width="1"/></g></g></svg>