<svg version="1.1" xmlns="http://www.w3.org/2000/svg" xmlns:xlink="http://www.w3.org/1999/xlink" width="384" height="230" viewBox="0,0,384,230"><g transform="translate(-48,-65)"><g data-paper-data="{&quot;isPaintingLayer&quot;:true}" fill-rule="nonzero" stroke="none" stroke-linecap="butt" stroke-linejoin="miter" stroke-miterlimit="10" stroke-dasharray="" stroke-dashoffset="0" style="mix-blend-mode: normal"><path d="M48,295v-230h384v230z" fill="none" stroke-width="0"/><path d="M318.02096,213.80729c-2.30177,0.28772 -3.74038,0.28772 -4.31582,0.57544c-1.15089,0.57544 -3.74038,1.15089 -6.90532,1.15089c-4.0281,0 -7.76849,-1.43861 -10.93342,-3.74038h-2.30177c-0.86316,0 -1.43861,0 -2.30178,-0.28772c-3.16494,1.15089 -6.04215,1.15089 -7.76848,1.15089h-0.57544c-4.0281,0.28772 -8.05621,-0.57544 -11.50887,-2.30177c-1.72633,0.57544 -3.16494,0.86316 -4.89127,0.86316l-10.6457,0.28772c-4.89127,0 -9.2071,-1.72633 -12.65976,-4.89127c-1.43861,0 -2.87722,-0.28772 -4.0281,-0.57544c-1.72633,2.01405 -4.0281,3.74038 -6.90532,5.17899c-5.46671,2.5895 -11.50887,2.87722 -17.2633,0.57544c-0.57544,-0.28772 -1.43861,-0.57544 -2.01405,-0.86316l-6.6176,0.86316h-2.01405c-0.86316,0.28772 -1.43861,0.86317 -2.01405,1.15089c-4.31583,2.01405 -8.34393,2.01405 -10.07026,2.01405h-1.43861c-4.89127,0 -9.78254,-1.43861 -13.52292,-4.0281c-1.15089,0.28772 -2.5895,0.57544 -3.74038,0.57544c-2.5895,1.72633 -5.75443,2.87722 -9.20709,3.16494h-1.15088c-9.49481,0 -17.2633,-7.19304 -18.12647,-16.68785v-0.28772c0,-1.43861 -0.28772,-4.60355 0,-8.05621c0,-1.72633 0.28772,-4.31582 0.28772,-4.89127c0,-2.30177 0.57544,-4.60355 1.43861,-6.90532c-0.57544,-2.30177 -0.28772,-4.60355 0,-6.90532v-0.86317c0.28772,-2.01405 0.86316,-6.04215 2.87722,-10.07026c3.74038,-6.90532 10.6457,-11.22114 18.41419,-11.22114c2.5895,-1.43861 5.17899,-2.01405 8.05621,-2.01405h0.86317c5.75443,0.28772 10.93342,3.16494 14.09836,7.76849c2.5895,-2.30177 5.75443,-3.74038 9.20709,-4.31583c6.90532,-0.86316 12.65976,-1.15088 17.55102,-0.28772c2.5895,-2.30177 6.04215,-4.02811 9.49481,-4.31583l7.48077,-1.15089h2.30177c4.31583,0 8.63165,1.72633 12.08431,4.60355h0.57544l10.93342,-0.28772c4.60355,0 8.63165,-0.28772 9.49481,-0.28772h1.43861c4.0281,0 8.34393,1.43861 11.50886,4.0281c3.16494,-2.30177 6.90532,-3.45266 10.93342,-3.45266h3.74038c2.87722,-1.72633 6.04216,-2.87722 9.49482,-2.87722l9.20709,-0.28772h0.28772c9.78254,0 17.83875,8.05621 18.12647,17.83874c0,4.60355 -1.43861,8.63165 -4.31583,12.08431v8.34393c2.5895,2.87722 4.02811,6.6176 4.31583,10.6457c0.57544,9.78254 -6.90532,18.12647 -16.97558,18.98963z" fill-opacity="0.30771" fill="#ffffff" stroke-width="1"/><path d="M317.44552,203.44931c-3.74038,0.28772 -6.04215,0.57544 -6.6176,0.86316l-0.28772,0.28772c-0.86316,0.28772 -2.01406,0.86316 -3.45266,0.86316c-1.72633,0 -3.74038,-0.57544 -5.17899,-2.01405c-0.57544,-0.57544 -1.15089,-1.15088 -1.43861,-1.72633h-6.6176c-1.15089,0 -2.30177,-0.28772 -3.16494,-0.86317c-0.28772,0.28772 -0.86317,0.28772 -1.15089,0.57544c-2.30177,1.15089 -4.31583,1.15089 -5.75443,1.15089h-1.43861c-4.31583,0 -7.76849,-1.43861 -10.07026,-4.0281c-1.43861,1.43861 -3.45266,2.30177 -5.46671,2.30177l-10.6457,0.28772c-3.74038,0 -7.19304,-2.87722 -7.76849,-6.32988c-1.43861,0.86316 -2.87722,1.43861 -4.60355,1.43861c-1.72633,0 -3.45266,-0.57544 -4.89127,-1.43861c-0.28772,-0.28772 -0.57545,-0.57544 -0.86317,-0.57544c-0.86316,0.57544 -2.01405,0.57544 -3.16494,0.57544h-0.86317c-1.15089,3.45266 -3.16494,5.75443 -6.32987,7.19304c-1.43861,0.57544 -3.16494,1.15089 -4.60355,1.15089c-1.43861,0 -3.16494,-0.28772 -4.60355,-0.86317c-1.43861,-0.57544 -2.5895,-1.43861 -3.45266,-2.30177c-0.57544,0.28772 -1.15088,0.28772 -1.72633,0.57544l-8.34393,1.15089h-1.15089c-0.86316,0 -1.43861,0 -2.30177,-0.28772c-1.15089,1.15089 -2.5895,1.72633 -3.74038,2.30178c-2.30177,1.15089 -4.31583,1.15088 -5.75443,1.15088h-1.43861c-5.17899,0 -9.20709,-2.30177 -11.50886,-5.46671c-2.30177,1.43861 -5.17899,2.30178 -7.76849,2.30178h-1.72633c0,0.28772 -0.28772,0.28772 -0.28772,0.57544c-1.43861,1.43861 -3.45266,2.5895 -5.46671,2.5895h-0.57544c-4.0281,0 -7.48077,-3.16494 -7.76849,-7.48076v-0.28772c0,-1.43861 -0.28772,-4.02811 0,-6.90532c0,-2.01405 0.28772,-5.17899 0.28772,-5.17899c0,-2.01405 0.86316,-3.74038 2.01405,-5.17899c-1.15089,-2.30177 -1.43861,-4.89127 -0.86316,-7.76849v-0.57544c0.28772,-1.72633 0.57544,-4.31583 1.72633,-6.90532c2.01405,-3.74038 5.75443,-5.75443 10.07026,-5.75443h2.01405c1.43861,-1.15089 3.16494,-2.01405 5.17899,-2.01405c4.31583,0 7.76849,3.74038 7.76849,8.05621v3.16494c1.43861,-0.57544 3.16494,-0.86316 4.89127,-0.86316c0.86316,0 1.43861,0 2.30178,0.28772c1.15089,-1.43861 2.87722,-2.30177 4.60355,-2.58949c0.28772,-0.57544 0.57544,-0.86317 0.86316,-1.43861c1.15089,-1.72633 3.16494,-2.87722 5.17899,-3.16494c1.72633,-0.28772 5.17899,-0.57544 9.20709,-0.57544c4.60355,0 8.34393,0.57544 11.22114,2.01405c0.86316,-3.16494 3.16494,-5.46671 6.6176,-6.04215l7.48076,-1.15089h1.15089c2.30177,0 4.31583,0.86316 5.75443,2.5895c0.57544,0.57544 1.43861,1.72633 1.72633,2.5895l0.28772,0.86316c1.43861,-0.86316 2.87722,-1.43861 4.60355,-1.43861l11.22114,-0.28772c5.46671,0 10.35798,-0.28772 10.35798,-0.57544h0.57544c2.01405,0 4.31582,0.86317 5.75443,2.30178c1.15089,1.15089 2.01406,2.5895 2.30178,4.31583h0.57544c0.86316,0 1.43861,0 2.30177,0.28772c1.15089,-1.43861 2.87722,-2.30178 4.60355,-2.5895c1.43861,-2.01405 4.02811,-3.74038 6.90532,-3.74038h7.48076c1.43861,-1.72633 3.45266,-2.87722 6.04215,-2.87722h9.20709c4.31583,0 7.76849,3.45266 8.05621,7.76849c0,3.16494 -1.72633,6.04215 -4.31583,7.19304v17.55102c2.30177,1.15089 4.02811,3.74038 4.31583,6.6176c0.28772,4.31583 -3.16494,8.05621 -7.48077,8.34393z" fill-opacity="0.46094" fill="#ffffff" stroke-width="1"/><path d="M241.48701,178.41753l-5.75443,0.86316l2.01405,-10.35798z" fill-opacity="0" fill="#f9a83a" stroke-width="1"/><path d="M168.98115,178.99297c3.45266,0.57544 10.6457,1.72633 10.6457,8.91937c0,2.01405 -1.15089,4.31582 -2.87722,5.75443c-2.01405,1.72633 -4.60355,2.5895 -7.19304,2.01405c-2.01405,-0.28772 -3.74038,-1.15089 -4.89127,-2.01405v3.16494c0,0.86316 -0.86317,1.72633 -1.72633,1.72633c-0.86316,0 -1.72633,-0.86317 -1.72633,-1.72633c0,-0.28772 -0.28772,-2.87722 0,-6.32988c0.28772,-2.01405 0.28772,-5.46671 0.28772,-5.46671c0,-0.86316 0.86317,-1.72633 1.72633,-1.72633c0.86316,0 1.72633,0.86316 1.72633,1.72633v0.57544c0,0.86316 0.28772,2.30177 0.57544,3.45266c0.57544,1.15089 2.30178,2.01406 2.87722,2.30178c0.57544,0 0.86316,0.28772 1.43861,0.28772c1.72633,0.28772 3.45266,0 4.60355,-1.15089c1.15089,-0.86316 1.72633,-2.01405 1.72633,-3.16494c0,-2.87722 -3.16494,-3.74038 -7.76848,-4.60355c-4.31583,-0.86316 -6.04216,-4.31583 -5.46671,-9.78254v-0.57544c0.28772,-2.87722 0.86317,-7.76849 6.32988,-6.90532c2.01405,0 3.74038,1.43861 5.17899,2.87722v-3.16494c0,-0.86316 0.86316,-1.72633 1.72633,-1.72633c0.86316,0 1.72633,0.86317 1.72633,1.72633c0,0.28772 -0.57544,11.22114 -0.57544,11.22114c-0.28772,0.86316 -1.15089,1.72633 -2.01405,1.43861c-0.86316,-0.28772 -1.43861,-0.86316 -1.43861,-1.43861v-1.15089c-0.28772,-0.86316 -0.28772,-1.72633 -0.86316,-2.87722c-0.57544,-1.72633 -1.72633,-2.5895 -2.30178,-3.16494c-0.57544,-0.57544 -1.15089,-0.86316 -1.72633,-0.86316c-1.72633,0 -2.01405,0.86316 -2.58949,4.31582v0.57544c-0.57544,4.0281 0.57544,5.46671 2.58949,5.75443M217.31839,174.10171c0.86316,-1.15089 1.43861,-2.30178 1.43861,-2.87722v-0.57544c-0.86316,-1.43861 -4.89127,-1.72633 -9.49481,-1.72633v8.05621c1.72633,-0.28772 3.45266,-0.57544 4.60355,-1.15089l0.86316,-0.28772c0.28772,0 1.15089,-0.28772 1.43861,-0.57544c0.57544,-0.28772 0.86317,-0.57544 1.15089,-0.86316M227.38864,189.63867c0.86316,0.28772 1.43861,1.15089 0.28772,1.72633c-0.57544,2.5895 -1.72633,3.45266 -3.16494,4.31582c-1.72633,0.86316 -3.16494,0.28772 -4.31583,0c-1.43861,-0.57544 -2.30178,-2.01405 -2.5895,-2.5895c-0.57544,-1.43861 -0.86316,-4.89127 -0.86316,-5.75443c-0.28772,-4.31583 -0.86316,-6.04216 -1.43861,-6.90532c-0.28772,-0.57544 -0.86316,-0.86316 -1.43861,-0.86316h-0.57544c-1.43861,0.57544 -2.87722,0.86317 -4.60355,1.15089v10.07026l2.5895,-0.28772c0.86316,-0.28772 2.01405,0.57545 2.01405,1.43861c0.28772,0.86316 -0.57544,2.01405 -1.43861,2.01405l-8.34393,1.15088c-0.86316,0.28772 -2.01405,-0.57544 -2.01405,-1.43861c-0.28772,-0.86316 0.57544,-2.01405 1.43861,-2.01405l2.30178,-0.28772v-10.07026h-0.86317c-0.86316,0 -1.72633,-0.86316 -1.72633,-1.72633c0,-0.86316 0.86316,-1.72633 1.72633,-1.72633h0.86317v-8.05621c-0.86316,0 -1.72633,0.28772 -2.5895,0.28772c-0.86316,0.28772 -2.01405,-0.57544 -2.01405,-1.43861c-0.28772,-0.86316 0.57544,-2.01405 1.43861,-2.01405c4.0281,-0.57544 16.40013,-2.01405 19.27735,2.87722c1.15089,2.01405 0.57544,4.31582 -1.43861,7.19304c0,0 -0.86317,0.86317 -1.72633,1.43861c1.43861,1.43861 2.5895,4.31582 2.5895,9.49481c0,1.43861 0.28772,3.74038 0.57544,4.31583c0.28772,0.28772 0.57544,0.86316 0.57544,0.86316c0.86316,0.28772 1.43861,0.57544 1.72633,0.28772c0.28772,-0.28772 0.86316,-0.28772 1.43861,-2.30177c0.28772,-0.86316 1.43861,-1.43861 2.30177,-1.15089M290.11197,184.17196c0.86316,0 1.72633,0.57544 1.72633,1.15089v2.87722c-0.28772,0.57544 -0.57544,2.5895 -1.15088,3.74038c-0.57544,0.86316 -0.86317,1.43861 -1.43861,2.01405c-0.86316,0.86316 -1.72633,1.43861 -2.5895,1.72633c-1.15089,0.57544 -2.30177,0.57544 -3.45266,0.57544h-0.86316c-6.32988,0 -8.34393,-5.17899 -8.63165,-7.76849v-8.05621c0.28772,-4.31583 1.72633,-6.90532 3.74038,-8.34393c2.5895,-1.72633 6.04216,-0.28772 6.90532,0.28772c0.86316,0.57544 1.72633,0.86316 2.30177,1.43861v-3.16494c0,-0.86316 0.86317,-1.72633 1.72633,-1.72633c0.86316,0 1.72633,0.86316 1.72633,1.72633v7.76849c0,0.86316 -0.28772,1.43861 -1.15089,1.72633c-0.86316,0 -1.72633,-0.28772 -2.01405,-0.86317c-0.28772,0 -1.72633,-2.5895 -4.0281,-3.45266c-2.01405,-0.57544 -3.16494,-0.86316 -4.0281,-0.28772c-1.15089,0.86316 -1.72633,2.87722 -2.01405,5.75443v7.48077c0,0.86316 0.57544,4.60354 5.17899,4.31582h1.15089c1.15089,0 1.43861,0 2.01405,-0.28772c0.57544,-0.28772 1.15089,-0.57544 1.43861,-0.86316c0.57544,-0.57544 0.86317,-0.86317 1.15089,-1.43861c0.28772,-0.28772 0.57544,-1.43861 0.57544,-2.30177v-2.30178c0,-0.86316 0.86317,-1.72633 1.72633,-1.72633M318.59641,195.68083c0,0.86316 -0.57544,1.72633 -1.43861,2.30178c-4.0281,0.28772 -7.48077,0.57544 -8.34393,1.15089c-1.15089,0.28772 -2.01405,0.57544 -2.5895,0c-0.86316,-0.57544 -0.86316,-1.72633 -0.28772,-2.30178c0.86316,-1.15089 2.5895,-1.15089 4.89127,-1.72633v-13.2352l-10.35798,1.72633v8.91937h2.87722c0.86316,0 1.72633,0.86316 1.72633,1.72633c0,0.86316 -0.86316,1.72633 -1.72633,1.72633l-9.49482,-0.28772c-0.86316,0 -1.72633,-0.86316 -1.72633,-1.72633c0,-0.86316 0.86316,-1.72633 1.72633,-1.72633h2.87722v-23.30545h-2.87722c-0.86316,0 -1.72633,-0.86317 -1.72633,-1.72633c0,-0.86316 0.86316,-1.72633 1.72633,-1.72633h9.20709c0.86316,0 1.72633,0.86317 1.72633,1.72633c0,0.86316 -0.86317,1.72633 -1.72633,1.72633h-2.87722v10.93342l10.35798,-1.72633v-12.08431h-2.87722c-0.86316,0 -1.72633,-0.86316 -1.72633,-1.72633c0,-0.86316 0.86316,-1.72633 1.72633,-1.72633l9.20709,-0.28772c0.86316,0 1.72633,0.86316 1.72633,1.72633c0,0.86316 -0.86317,1.72633 -1.72633,1.72633h-2.5895c0.28772,19.56507 0.28772,25.60723 0.28772,28.48444c0.86316,-0.28772 1.72633,-0.28772 2.30177,-0.28772c0.86316,0 1.72633,0.86316 1.72633,1.72633" fill="#ffffff" stroke-width="1"/><path d="M241.48701,178.41753l-3.74038,-9.49481l-2.01405,10.35798zM250.98182,182.15791c0.86316,-0.28772 1.72633,0.28772 2.01405,0.86316c0.28772,0.86316 -0.28772,2.01406 -1.15089,2.30178c-3.16494,1.15089 -6.32987,2.58949 -7.19304,3.74038c-0.57544,0.57544 -1.72633,0.86317 -2.5895,0.28772c-0.57544,-0.57544 -0.86317,-1.43861 -0.28772,-2.30178c0.86316,-0.86316 1.43861,-1.15089 2.87722,-2.01405l-1.72633,-4.31582l-8.05621,1.43861l-0.28772,2.5895c1.15089,0 1.72633,0.86316 1.72633,1.72633c0,1.15089 -0.86317,1.72633 -1.72633,1.72633l-8.63165,-0.28772c-1.15089,0 -1.72633,-0.86317 -1.72633,-1.72633c0,-1.15089 0.86317,-1.72633 1.72633,-1.72633l5.17899,0.28772c0.86316,-4.0281 3.45266,-16.97558 4.0281,-20.14052c-2.30177,0.28772 -5.17899,0.57544 -5.17899,0.57544c-1.15089,0.28772 -2.01405,-0.57544 -2.01405,-1.43861c-0.28772,-1.15089 0.57544,-2.01405 1.43861,-2.01405l7.48077,-0.86317c0.57544,0 1.15089,0.28772 1.43861,0.57544c0.28772,0 0.57544,0.57545 0.57544,0.86317l6.6176,15.82469l2.30177,5.46671c1.72633,-0.86316 2.5895,-1.15089 3.16494,-1.43861" fill="#ffffff" stroke-width="1"/><path d="M271.69778,164.60689c0.57544,0 1.15088,0.28772 1.15088,0.86316c0.57544,0.57544 0.57544,0.86317 0.57544,1.43861c-0.28772,2.30177 -0.28772,6.32987 -0.28772,6.32987c0,0.57544 -0.28772,1.43861 -0.86316,1.72633c-0.86316,0.57544 -1.72633,0.28772 -2.30178,-0.57544c0,-0.28772 -0.28772,-0.86316 -0.28772,-2.5895v-3.45266c-1.72633,0 -4.31583,0.28772 -7.19304,0.28772v22.73001h3.45266c0.86316,0 1.72633,0.86316 1.72633,1.72633c0,0.86316 -0.86317,1.72633 -1.72633,1.72633l-10.6457,0.28772c-0.86316,0 -1.72633,-0.86316 -1.72633,-1.72633c0,-0.86316 0.86317,-1.72633 1.72633,-1.72633h3.74038v-22.73001h-7.48076c0.57544,2.30177 1.15089,6.90532 1.15089,6.90532c0,0.86316 -0.57544,1.72633 -1.43861,1.72633c-0.86316,0.28772 -2.01405,-0.57544 -2.01405,-1.43861l-1.43861,-8.63165c-0.28772,-0.57544 0,-1.15089 0.28772,-1.43861c0.57544,-0.28772 0.86316,-0.57544 1.43861,-0.57544l11.22114,-0.28772c5.75443,-0.28772 10.93342,-0.57544 10.93342,-0.57544M198.32876,185.89829c0.86316,0 1.72633,0.86317 1.72633,1.43861v2.87722c-0.28772,0.57544 -0.57544,2.5895 -1.15089,3.74038c-0.57544,0.86316 -0.86316,1.43861 -1.43861,2.01405c-0.86316,0.86316 -1.72633,1.43861 -2.5895,1.72633c-1.15089,0.57544 -2.30177,0.57544 -3.45266,0.57544h-0.86317c-6.6176,0 -8.63165,-5.17899 -8.91937,-7.76849v-8.05621c0.28772,-4.31583 1.72633,-6.90532 3.74038,-8.34393c2.87722,-1.43861 6.04215,-0.28772 7.19304,0.28772c0.86316,0.28772 1.72633,0.86316 2.30178,1.43861v-3.16494c0,-0.86316 0.86316,-1.72633 1.72633,-1.72633c0.86316,0 1.72633,0.86316 1.72633,1.72633v7.76849c0,0.86316 -0.28772,1.43861 -1.15089,1.72633c-0.86316,0 -1.72633,-0.28772 -2.01405,-0.86317c0,0 -1.72633,-2.5895 -4.0281,-3.45266c-2.01405,-0.57544 -3.16494,-0.86316 -4.0281,-0.28772c-1.15089,0.86316 -1.72633,2.87722 -2.01405,5.75443v7.48076c0,0.86316 0.57544,4.31582 5.17899,4.31582h1.15089c1.15089,0 1.43861,0 2.01405,-0.28772c0.57544,-0.28772 1.15089,-0.57544 1.43861,-0.86316c0.57544,-0.57544 0.86317,-0.86316 1.15089,-1.43861c0.28772,-0.57544 0.57544,-1.72633 0.57544,-2.30178v-2.5895c0,-0.86316 0.86317,-1.72633 1.72633,-1.72633" fill="#ffffff" stroke-width="1"/></g></g></svg>