<svg viewBox="0,0,384,230" height="230" width="384" xmlns:xlink="http://www.w3.org/1999/xlink" xmlns="http://www.w3.org/2000/svg" version="1.1"><g transform="translate(-48,-65)"><g style="mix-blend-mode: normal" stroke-dashoffset="0" stroke-dasharray="" stroke-miterlimit="10" stroke-linejoin="miter" stroke-linecap="butt" stroke-width="0" stroke="none" fill-rule="nonzero" data-paper-data="{&quot;isPaintingLayer&quot;:true}"><path fill="none" d="M48,295v-230h384v230z"></path><path fill="#ffffff" d="M201.65909,224.19962c0,-21.22101 0,-76.61341 0,-88.375c0,-4.29068 3.42407,-8.32462 6.94221,-8.32462c6.04578,0 43.07386,0 43.07386,0l26.66575,26.1428c0,0 0,60.12049 0,69.60227c0,4.70663 -2.80202,9.25493 -7.29643,9.25493c-16.0379,0 -53.62591,0 -62.34375,0c-3.52689,0 -7.04164,-3.13977 -7.04164,-8.30038zM218.38203,196.84887l42.60745,-0.15261l0.06757,-28.36093l-42.45951,0.03526z"></path><path fill="#ffffff" d="M224.5,192.16462v-18.42857h31v18.42857z"></path></g></g></svg>
