<svg version="1.1" xmlns="http://www.w3.org/2000/svg" xmlns:xlink="http://www.w3.org/1999/xlink" width="384" height="230" viewBox="0,0,384,230"><g transform="translate(-48,-65)"><g data-paper-data="{&quot;isPaintingLayer&quot;:true}" fill-rule="nonzero" stroke="none" stroke-linecap="butt" stroke-linejoin="miter" stroke-miterlimit="10" stroke-dasharray="" stroke-dashoffset="0" style="mix-blend-mode: normal"><path d="M48,295v-230h384v230z" fill="none" stroke-width="0"/><path d="M239.99897,122.7606c31.61795,0 57.24453,25.62794 57.24453,57.23974c0,31.61522 -25.62657,57.24179 -57.24384,57.24179c-31.61385,0 -57.24316,-25.62657 -57.24316,-57.24179c0,-31.61385 25.62931,-57.24247 57.24316,-57.24247zM265.06845,200.41c-15.08885,-9.22119 -33.79303,-11.36825 -55.59852,-6.38443c-1.9249,0.43748 -3.12317,2.35144 -2.68365,4.27223c0.43748,1.9208 2.35144,3.12386 4.27155,2.68638c19.9257,-4.55249 36.84512,-2.69322 50.28523,5.51631c1.68155,1.03217 3.88261,0.499 4.90794,-1.18255c1.03217,-1.68155 0.499,-3.87577 -1.18255,-4.90794zM273.25747,189.7301c1.29192,-2.09579 0.62887,-4.84369 -1.46965,-6.13561c-17.66996,-10.85831 -43.51459,-13.91381 -64.30362,-7.60594c-2.35622,0.71774 -3.68711,3.20588 -2.97621,5.56621c0.71637,2.35622 3.2093,3.68643 5.56963,2.97348c18.19972,-5.52451 41.65463,-2.7855 57.04151,6.67426c2.09852,1.29192 4.84642,0.62887 6.13835,-1.47307zM273.86173,173.49903c2.536,1.51066 5.83075,0.67194 7.33457,-1.87226c1.51066,-2.54078 0.67672,-5.82664 -1.87295,-7.33662c-21.24087,-12.60959 -54.85481,-13.79556 -75.07512,-7.65721c-2.83061,0.85992 -4.42604,3.84911 -3.56885,6.67904c0.85718,2.82856 3.84843,4.42535 6.67699,3.56749c17.61459,-5.3461 48.05341,-4.33854 66.50263,6.61957z" fill="#ffffff" stroke-width="1"/></g></g></svg>