<svg version="1.1" xmlns="http://www.w3.org/2000/svg" xmlns:xlink="http://www.w3.org/1999/xlink" width="384" height="230" viewBox="0,0,384,230"><g transform="translate(-48,-65)"><g data-paper-data="{&quot;isPaintingLayer&quot;:true}" fill-rule="nonzero" stroke="none" stroke-linecap="butt" stroke-linejoin="miter" stroke-miterlimit="10" stroke-dasharray="" stroke-dashoffset="0" style="mix-blend-mode: normal"><path d="M48,295v-230h384v230z" fill="none" stroke-width="0"/><g fill="#ffffff" stroke-width="1"><path d="M240,223.45833c-5.10463,0 -9.91609,-0.98299 -14.43437,-2.94896c-4.51829,-1.96597 -8.46748,-4.63901 -11.84757,-8.0191c-3.38009,-3.38009 -6.05313,-7.32928 -8.0191,-11.84757c-1.96597,-4.51829 -2.94896,-9.32975 -2.94896,-14.43437c0,-5.10463 0.98299,-9.91609 2.94896,-14.43438c1.96597,-4.51829 4.639,-8.46748 8.0191,-11.84757c3.38009,-3.38009 7.32928,-6.05312 11.84757,-8.0191c4.51829,-1.96597 9.32975,-2.94896 14.43437,-2.94896c4.27685,0 8.38125,0.68981 12.31319,2.06944c3.93194,1.37963 7.62245,3.38009 11.07153,6.00139l5.79444,-5.79444l5.79444,5.79444l-5.79444,5.79444c2.6213,3.44907 4.62176,7.13958 6.00139,11.07153c1.37963,3.93194 2.06944,8.03634 2.06944,12.31319c0,5.10463 -0.98299,9.91609 -2.94896,14.43437c-1.96597,4.51829 -4.63901,8.46748 -8.0191,11.84757c-3.38009,3.38009 -7.32928,6.05313 -11.84757,8.0191c-4.51829,1.96597 -9.32975,2.94896 -14.43437,2.94896zM240,215.18056c8.00185,0 14.83102,-2.82824 20.4875,-8.48472c5.65648,-5.65648 8.48472,-12.48565 8.48472,-20.4875c0,-8.00185 -2.82824,-14.83102 -8.48472,-20.4875c-5.65648,-5.65648 -12.48565,-8.48472 -20.4875,-8.48472c-8.00185,0 -14.83102,2.82824 -20.4875,8.48472c-5.65648,5.65648 -8.48472,12.48565 -8.48472,20.4875c0,8.00185 2.82824,14.83102 8.48472,20.4875c5.65648,5.65648 12.48565,8.48472 20.4875,8.48472z"/><path d="M227.58333,144.81944v-8.27778h24.83333v8.27778z"/><path d="M244.28287,190.44437l-8.27722,0.09618l-0.28853,-24.83166l8.27722,-0.09618z"/></g></g></g></svg>