<svg version="1.1" xmlns="http://www.w3.org/2000/svg" xmlns:xlink="http://www.w3.org/1999/xlink" width="384" height="230" viewBox="0,0,384,230"><g transform="translate(-48,-65)"><g data-paper-data="{&quot;isPaintingLayer&quot;:true}" fill-rule="nonzero" stroke="none" stroke-linecap="butt" stroke-linejoin="miter" stroke-miterlimit="10" stroke-dasharray="" stroke-dashoffset="0" style="mix-blend-mode: normal"><path d="M48,295v-230h384v230z" fill="none" stroke-width="0"/><path d="M240,132.43626c5.79235,0 11.45597,1.02976 16.86217,2.96055c13.64418,5.02002 24.32782,15.70368 29.34787,29.34786c1.93079,5.4062 2.96055,11.06982 2.96055,16.86217c0,5.79235 -1.02978,11.45594 -2.96055,16.86214c-5.02002,13.64418 -15.70369,24.32788 -29.34787,29.3479c-5.4062,1.93079 -11.06982,2.96051 -16.86217,2.96051c-5.79235,0 -11.45597,-1.02975 -16.86217,-2.96051c-13.64418,-5.02002 -24.32785,-15.70372 -29.34787,-29.3479c-1.93079,-5.4062 -2.96055,-11.06979 -2.96055,-16.86214c0,-5.79235 1.02975,-11.45597 2.96055,-16.86217c5.02002,-13.64418 15.70369,-24.32785 29.34787,-29.34786c5.4062,-1.93079 11.06982,-2.96055 16.86217,-2.96055z" fill-opacity="0.58569" fill="#ffffff" stroke-width="1"/><path d="M234.68262,132.63868l0.01895,-2.64001c0.00867,-1.20815 0.0153,-2.13203 0.05645,-2.91353c0.07643,-0.7457 0.15183,-1.34927 0.29728,-1.81019c0.57951,-1.52387 1.76054,-2.68809 3.29259,-3.24566c0.60561,-0.20887 1.21045,-0.31113 1.85006,-0.30654c0.63961,0.0046 1.27846,0.11579 1.84547,0.33307c1.52387,0.57951 2.68808,1.76055 3.24566,3.29259c0.13882,0.46296 0.24109,1.0678 0.27126,1.81428c0.02993,0.782 0.02329,1.70588 0.01462,2.91404l-0.01912,2.66319c0,0 -3.98367,-0.08787 -5.86097,-0.10535c-1.73606,-0.01616 -5.01226,0.00411 -5.01226,0.00411z" fill="#ffffff" stroke-width="1"/><path d="M268.22674,141.2862l2.24229,-2.90908c0.73513,-0.9588 1.29729,-1.692 1.80116,-2.29078c0.51046,-0.54896 0.93441,-0.98511 1.32829,-1.26522c1.38092,-0.86665 3.02503,-1.08375 4.58358,-0.60522c0.60913,0.19836 1.15339,0.48133 1.661,0.87052c0.5076,0.38918 0.95033,0.86298 1.27181,1.37811c0.86665,1.38093 1.08374,3.02503 0.60522,4.58358c-0.16827,0.45308 -0.45125,0.99735 -0.8771,1.61117c-0.44747,0.64203 -1.00962,1.37523 -1.74476,2.33402l-2.71602,3.5424c0,0 -2.95849,-2.80711 -4.37196,-4.08029c-1.27346,-1.14707 -3.78351,-3.16921 -3.78351,-3.16921z" fill="#ffffff" stroke-width="1"/><path d="M233.69794,182.95342l21.31197,-26.70268c0.61652,-0.8041 1.08796,-1.41898 1.51053,-1.92115c0.42808,-0.46038 0.78364,-0.82616 1.11396,-1.06107c1.15811,-0.72682 2.53693,-0.90888 3.84399,-0.50757c0.51085,0.16636 0.96729,0.40366 1.39299,0.73005c0.42569,0.32639 0.79699,0.72373 1.0666,1.15574c0.72682,1.1581 0.90887,2.53694 0.50757,3.84399c-0.14113,0.37998 -0.37843,0.83643 -0.73557,1.35121c-0.37526,0.53843 -0.84672,1.15332 -1.46324,1.95741l-21.31197,26.70268c-0.61652,0.8041 -1.08797,1.41898 -1.51053,1.92115c-0.40444,0.47852 -0.78365,0.82616 -1.11397,1.06108c-1.1581,0.72682 -2.53693,0.90888 -3.84399,0.50757c-0.48719,-0.14822 -0.9673,-0.40366 -1.39299,-0.73005c-0.42569,-0.32639 -0.77334,-0.70559 -1.06659,-1.15575c-0.72682,-1.1581 -0.90888,-2.53693 -0.50757,-3.84398c0.14113,-0.37998 0.40208,-0.81829 0.73557,-1.35121c0.37526,-0.53843 0.84672,-1.15333 1.46323,-1.95741z" fill="#ffffff" stroke-width="1"/><path d="M240,174.53224c0.8334,0 1.64827,0.14816 2.4261,0.42596c1.9631,0.72227 3.50025,2.25942 4.22253,4.22253c0.2778,0.77784 0.42596,1.59271 0.42596,2.4261c0,0.8334 -0.14816,1.64826 -0.42596,2.4261c-0.72227,1.9631 -2.25942,3.50026 -4.22253,4.22253c-0.77784,0.2778 -1.59271,0.42595 -2.4261,0.42595c-0.8334,0 -1.64827,-0.14816 -2.4261,-0.42595c-1.9631,-0.72227 -3.50025,-2.25943 -4.22253,-4.22253c-0.2778,-0.77784 -0.42596,-1.5927 -0.42596,-2.4261c0,-0.8334 0.14816,-1.64827 0.42596,-2.4261c0.72227,-1.9631 2.25942,-3.50025 4.22253,-4.22253c0.77784,-0.2778 1.59271,-0.42596 2.4261,-0.42596z" fill-opacity="0.69069" fill="#ffffff" stroke-width="1"/></g></g></svg>