<svg version="1.1" xmlns="http://www.w3.org/2000/svg" xmlns:xlink="http://www.w3.org/1999/xlink" width="384" height="230" viewBox="0,0,384,230"><g transform="translate(-48,-65)"><g data-paper-data="{&quot;isPaintingLayer&quot;:true}" fill-rule="nonzero" stroke="none" stroke-linecap="butt" stroke-linejoin="miter" stroke-miterlimit="10" stroke-dasharray="" stroke-dashoffset="0" style="mix-blend-mode: normal"><path d="M48,295v-230h384v230z" fill="none" stroke-width="0"/><g fill="#ffffff" stroke-width="1"><path d="M178.76703,156.79833c0,3.52692 -3.18496,6.38655 -7.11413,6.38655c-3.9283,0 -7.11413,-2.85964 -7.11413,-6.38655c0,-3.52688 3.18583,-6.38653 7.11413,-6.38653c3.92917,0 7.11413,2.85965 7.11413,6.38653"/><path d="M161.29943,172.80552l4.36555,-6.79056c0,0 6.14343,4.76871 8.00351,6.38655c1.8592,1.61695 5.17447,4.36554 5.09314,8.81154c-0.08133,4.446 -1.37473,8.32708 -2.42589,10.9952c-1.05029,2.66726 -7.92217,16.73374 -7.92217,16.73374l-10.50985,-6.54831c0,0 10.10757,-9.34938 13.98602,-15.0363c1.21295,-1.77876 2.66726,-6.46701 -1.45518,-8.89289c-4.12331,-2.42502 -9.13512,-5.65896 -9.13512,-5.65896"/><path d="M174.80009,168.76302c0,0 5.7394,-3.71842 11.39922,-19.24096c1.61609,0.56581 9.78138,2.7486 9.78138,2.7486l-2.66813,4.93134c0,0 12.20815,-3.71841 22.71713,-3.71841c0,0 5.74027,-0.24224 10.18714,1.21294c4.44602,1.4552 8.97421,4.4469 10.10582,9.29691c1.13161,4.85002 2.34368,21.0197 0.08046,35.6511c0,0 -0.48536,3.39659 -3.63796,6.38741c-3.1526,2.99082 -6.95234,4.446 -13.66243,4.446c-6.71012,0 -10.26761,-1.2934 -10.26761,-1.2934l1.37473,-5.6598c0,0 4.12331,1.53651 7.35636,1.53651c3.23394,0 5.98252,-1.37386 7.43771,-3.07126c0,0 1.29427,-1.94056 1.37474,-3.55752c0.08045,-1.61694 0.16179,-32.66025 -0.1618,-33.71145c-0.32356,-1.05115 -0.72759,-5.01266 -5.74027,-5.98251c-5.01181,-0.96984 -8.97332,-0.32358 -10.18627,-0.08046c-1.21208,0.24226 -8.81155,2.10147 -12.61129,3.63712c1.45518,0.48533 4.28509,1.21292 4.28509,1.21292c0,0 -1.2934,2.6681 -3.63796,5.25493c3.23394,-0.08046 24.73723,0 24.73723,0v4.8509h-13.82336v6.46699h13.66246v4.85091h-13.66246v10.26672c0,0 2.26323,0 5.57762,-2.58679c-0.24223,-1.77875 -0.16179,-2.02186 -0.96983,-4.60869c2.10232,-0.48448 6.30609,-1.93965 6.30609,-1.93965l5.25493,13.01618l-7.84261,3.07126l-1.45517,-5.25493c0,0 -2.34369,2.66813 -8.08396,4.36643c-7.99213,2.36381 -13.09577,2.26323 -14.47049,2.18279c0,0 -3.88019,0.16006 -6.22475,-0.89027c-2.34544,-1.05028 -5.74027,-3.4753 -5.74027,-10.4285c0,-2.34369 0.56581,-4.28422 0.56581,-4.28422l9.86271,0.08046c0,0 -0.48448,3.47706 -0.48448,4.36554c0,0.88939 -0.72847,4.68912 6.38566,4.6078c0,-5.09227 -0.08046,-12.04548 -0.08046,-12.04548l-14.06647,-0.08046v-4.8509h13.98602v-6.1443h-3.5575c0,0 -3.88019,3.63884 -6.06298,5.82161l-4.04198,-3.55751c0,0 4.66463,-4.85002 7.84173,-11.88369c-1.85921,0.72759 -5.09314,2.18277 -5.09314,2.18277c0,0 -2.2641,2.91035 -5.09313,5.9012c-2.021,-1.13162 -6.95322,-3.47618 -6.95322,-3.47618"/><path d="M260.00882,164.5596l-0.08046,4.60868h45.3529c0,0 4.93048,-2.99172 4.93048,-5.90208c0,-2.91037 -3.79888,-3.71841 -6.38654,-3.88019c-2.5868,-0.16179 -9.8627,-0.24223 -15.84524,0.48535c-5.98163,0.72759 -19.72541,2.34368 -27.97115,4.68824M248.77137,175.71571v-19.80588h11.07566v2.50635c0,0 15.84522,-2.18277 17.54265,-2.18277v-5.6598h12.53081v4.28507c0,0 8.00351,-0.72761 13.25843,-0.72761c5.25491,0 11.39748,0.88852 13.7429,1.69741c2.34543,0.80893 5.17446,2.82991 5.17446,7.0337c0,4.20375 -3.15349,8.56929 -9.45866,12.77306c-1.9405,-1.94053 -3.39483,-3.3144 -3.39483,-3.3144l0.08047,1.85921h-19.24009v6.54833h22.06909v5.17359h-22.06909v15.4412h29.99219v6.38654h-71.38442v-6.38654h28.45653v-15.27943h-19.64497v-5.33537h19.72545v-6.46786h-17.2191v1.45518h-11.23744v0h-0.00002h-0.00002h-0.00002z"/><path d="M311.18717,193.74414c0,3.4823 -3.14911,6.30521 -7.0328,6.30521c-3.88369,0 -7.0328,-2.82291 -7.0328,-6.30521c0,-3.48227 3.14911,-6.3052 7.0328,-6.3052c3.88369,0 7.0328,2.82293 7.0328,6.3052"/></g></g></g></svg>