<svg version="1.1" xmlns="http://www.w3.org/2000/svg" xmlns:xlink="http://www.w3.org/1999/xlink" width="384" height="230" viewBox="0,0,384,230"><g transform="translate(-48,-65)"><g data-paper-data="{&quot;isPaintingLayer&quot;:true}" fill-rule="nonzero" stroke="none" stroke-linecap="butt" stroke-linejoin="miter" stroke-miterlimit="10" stroke-dasharray="" stroke-dashoffset="0" style="mix-blend-mode: normal"><path d="M48,295v-230h384v230z" fill="none" stroke-width="0"/><path d="M240,128.47229c6.07002,0 12.00515,1.07912 17.67051,3.10247c14.29826,5.26067 25.49405,16.45648 30.75475,30.75474c2.02335,5.66536 3.10247,11.60049 3.10247,17.67051c0,6.07002 -1.07915,12.00512 -3.10247,17.67048c-5.26067,14.29826 -16.45649,25.49411 -30.75475,30.75478c-5.66536,2.02335 -11.60049,3.10243 -17.67051,3.10243c-6.07002,0 -12.00515,-1.07911 -17.67051,-3.10243c-14.29826,-5.26067 -25.49408,-16.45653 -30.75475,-30.75478c-2.02335,-5.66536 -3.10247,-11.60045 -3.10247,-17.67048c0,-6.07002 1.07911,-12.00515 3.10247,-17.67051c5.26067,-14.29826 16.45649,-25.49408 30.75475,-30.75474c5.66536,-2.02335 11.60049,-3.10247 17.67051,-3.10247z" fill-opacity="0.58569" fill="#ffffff" stroke-width="1"/><path d="M240,168.02783c1.41034,0 2.78933,0.25073 4.10564,0.72084c3.32212,1.22229 5.9234,3.82357 7.14569,7.14569c0.47011,1.31632 0.72084,2.69531 0.72084,4.10564c0,1.41034 -0.25073,2.78932 -0.72084,4.10564c-1.22229,3.32212 -3.82357,5.92341 -7.14569,7.1457c-1.31632,0.47011 -2.69531,0.72083 -4.10564,0.72083c-1.41034,0 -2.78933,-0.25073 -4.10564,-0.72083c-3.32212,-1.22229 -5.92341,-3.82358 -7.14569,-7.1457c-0.47011,-1.31632 -0.72084,-2.6953 -0.72084,-4.10564c0,-1.41034 0.25073,-2.78933 0.72084,-4.10564c1.22229,-3.32212 3.82357,-5.92341 7.14569,-7.14569c1.31632,-0.47011 2.69531,-0.72084 4.10564,-0.72084z" fill="#ffffff" stroke-width="1"/><path d="M235.44789,182.85102c-0.80349,-0.61727 -1.41794,-1.08932 -1.91969,-1.51238c-0.45997,-0.42854 -0.8254,-0.78445 -1.06001,-1.115c-0.7257,-1.15879 -0.90644,-2.53779 -0.50387,-3.84447c0.16685,-0.51069 0.4046,-0.9669 0.73139,-1.39228c0.32679,-0.42538 0.7245,-0.7963 1.15678,-1.06548c1.1588,-0.7257 2.5378,-0.90644 3.84448,-0.50387c0.37984,0.1415 0.83606,0.37923 1.3505,0.73687c0.53806,0.3758 1.1525,0.84783 1.956,1.46512l27.49298,20.28224c0.80351,0.61728 1.41795,1.08932 1.9197,1.51237c0.47813,0.4049 0.8254,0.78445 1.06001,1.115c0.72569,1.15879 0.90644,2.5378 0.50387,3.84448c-0.14871,0.48704 -0.40461,0.96689 -0.7314,1.39227c-0.3268,0.42538 -0.70634,0.77266 -1.15678,1.06548c-1.1588,0.7257 -2.53779,0.90644 -3.84448,0.50387c-0.37984,-0.14149 -0.8179,-0.40286 -1.35048,-0.73686c-0.53807,-0.3758 -1.1525,-0.84783 -1.956,-1.46512l-27.49298,-20.28224z" data-paper-data="{&quot;index&quot;:null}" fill-opacity="0.62618" fill="#ffffff" stroke-width="1"/></g></g></svg>