<svg viewBox="0,0,384,230" height="230" width="384" xmlns:xlink="http://www.w3.org/1999/xlink" xmlns="http://www.w3.org/2000/svg" version="1.1"><g transform="translate(-48,-65)"><g style="mix-blend-mode: normal" stroke-dashoffset="0" stroke-dasharray="" stroke-miterlimit="10" stroke-linejoin="miter" stroke-linecap="butt" stroke="none" fill-rule="nonzero" data-paper-data="{&quot;isPaintingLayer&quot;:true}"><path stroke-width="0" fill="none" d="M48,295v-230h384v230z"></path><path stroke-width="1" fill="#ffffff" fill-opacity="0.4932" d="M282.78608,153.22499c-0.04911,0.2087 -0.08594,0.41741 -0.14732,0.62611c-0.18415,0.77343 -0.56473,2.60266 -0.94531,6.17518c0,0.06138 0,0.11049 -0.01228,0.14732c2.09932,8.44637 -1.43637,13.59031 -3.78122,15.93516c-0.14732,0.1596 -0.30692,0.30692 -0.47879,0.45424c-2.29574,2.08704 -6.31022,4.57921 -12.30125,4.57921c-2.98324,0 -5.77005,-0.66294 -8.20084,-1.87834c0.06138,3.35154 0.09821,7.96758 0.09821,14.37602c2.20981,0.77343 4.23546,2.02566 5.9542,3.67073c3.41292,3.27788 5.27898,7.66066 5.27898,12.33808c0,6.94861 -4.0022,12.98875 -10.44747,15.75101c-0.1596,0.07366 -0.33147,0.14732 -0.49107,0.2087c-2.1607,0.82254 -4.59149,1.22767 -7.43968,1.22767c-1.03124,0 -2.13615,-0.04911 -3.33926,-0.1596c-0.7366,-0.03683 -1.81695,-0.02455 -3.09373,0.01228c-2.3203,0.25781 -5.5859,0.51562 -9.9564,0.76116c-0.08594,0 -0.17187,0.01228 -0.27009,0.01228c-0.577,0.02455 -1.12946,0.03683 -1.66963,0.03683c-7.82026,0 -13.52892,-2.47989 -16.97868,-7.35374c-0.07366,-0.09821 -0.13504,-0.19643 -0.19643,-0.29464c-3.51114,-5.24215 -3.60935,-11.87157 -0.27009,-17.28559c0.02455,-0.06138 0.06138,-0.11049 0.09821,-0.17187c2.12387,-3.33926 5.22987,-5.72094 9.25663,-7.12049c0.04911,-2.3694 0.03683,-5.34036 -0.03683,-8.86378c-2.0011,0.83482 -4.30912,1.32588 -6.89951,1.32588c-6.83812,0 -12.4854,-4.06359 -14.44968,-10.23877c-0.40513,-1.25222 -0.78571,-3.08145 -1.66963,-7.20642c-0.03683,-0.14732 -0.06138,-0.29464 -0.08594,-0.44196l-1.81695,-10.15283c-0.06138,-0.22098 -0.14732,-0.47879 -0.24553,-0.77343c-0.94531,-2.6886 -1.38727,-4.97206 -1.38727,-7.18187c0,-2.7377 0.79799,-6.87495 4.57921,-10.99992c1.90289,-2.08704 5.36492,-4.78791 10.93854,-5.65956c0.6875,-0.11049 1.38727,-0.17187 2.08704,-0.17187h13.57803c0.30692,0 0.61384,0.01228 0.92075,0.03683c5.18077,0.18415 9.82136,0.17187 13.79901,-0.01228c5.56135,-0.24553 11.11041,-0.72433 16.54899,-1.4241c0.61384,-0.19643 1.27678,-0.39285 1.98883,-0.56473c0.67522,-0.17187 1.36271,-0.28236 2.05021,-0.35602c5.22987,-0.47879 10.10372,1.03124 13.89723,4.27229c4.70198,4.03903 6.77674,10.15283 5.53679,16.36484z"></path><path stroke-width="1" fill="#ffffff" d="M269.54195,150.57814c-0.50334,2.01706 -0.93548,4.75108 -1.29519,8.20697c-0.14609,1.72856 -0.07489,3.13179 0.21607,4.21214c0.50089,1.80099 0.46774,2.98938 -0.10803,3.56393c-0.79307,0.71941 -1.8722,1.07912 -3.23982,1.07912c-1.58492,0 -2.6309,-0.4702 -3.13179,-1.41305c-0.07489,-2.89976 -0.03806,-5.62027 0.10803,-8.1591c0.14118,-3.11828 0.21607,-4.74986 0.21607,-4.89472c-0.07489,0 -0.1817,-0.07243 -0.3241,-0.21853c-6.69694,0.29096 -12.99612,0.7231 -18.89875,1.3001c-0.14487,0.7231 -0.14487,1.87588 0,3.46203c0.28605,2.23681 0.43214,3.53569 0.43214,3.89417c-0.28727,2.23681 -0.43214,5.55398 -0.43214,9.95518c0.28605,1.87588 0.43214,9.91957 0.43214,24.12986v7.90006c0,1.22644 0.17801,2.09195 0.53526,2.59652h6.63065c1.21171,-0.14364 2.19139,0.14487 2.9415,0.86428c0.74765,0.72064 1.12209,1.58369 1.12209,2.59038c0,1.58247 -0.75502,2.69965 -2.26751,3.34908c-0.93671,0.35848 -2.59161,0.43214 -4.96715,0.21607c-1.15155,-0.07366 -2.84451,-0.07366 -5.07642,0c-2.01583,0.25044 -5.25443,0.50212 -9.71824,0.75502c-3.88803,0.14364 -6.26357,-0.39654 -7.12785,-1.6193c-0.577,-0.86305 -0.577,-1.76416 0,-2.69965c1.00669,-1.58247 3.63513,-2.37554 7.8841,-2.37554c1.51126,0 2.44552,-0.12522 2.80645,-0.37689c0.35971,-0.25167 0.54017,-0.73783 0.54017,-1.45724c0,-0.64575 0,-1.25591 0,-1.83168c0,-1.07667 0,-2.65791 0,-4.74126c0.21607,-3.66214 0.21607,-9.12404 0,-16.3808c-0.2885,-10.41678 -0.14487,-19.5752 0.43214,-27.47894c-0.07243,-0.0712 -0.18047,-0.17924 -0.32656,-0.3241c-2.60634,0.14487 -6.80498,0.07243 -12.59589,-0.2173c-0.65189,0 -2.8617,0.14609 -6.62451,0.43337c0.93548,6.55208 1.51126,11.48363 1.72733,14.79465c0,0.43214 -0.07243,1.40445 -0.21607,2.91572c-0.07243,1.07912 -0.97231,1.6193 -2.69965,1.6193c-0.93671,0 -1.47566,-0.32165 -1.6193,-0.96372c-0.07243,-0.14118 -0.50457,-2.07108 -1.29642,-5.78355c-0.43214,-2.4271 -1.04475,-5.85476 -1.83537,-10.28174c0,-0.28236 -0.2529,-1.17488 -0.75502,-2.67632c-0.42968,-1.21417 -0.64453,-2.14228 -0.64453,-2.78436c0,-0.49843 0.34006,-1.12577 1.02633,-1.87342c0.68381,-0.74888 1.71014,-1.23258 3.07777,-1.44742c0.21607,0 0.55613,0 1.02633,0c0.46651,0 0.84464,0 1.13314,0c8.56791,0 12.31108,0 11.23073,0c5.83143,0.2173 11.01466,0.2173 15.54967,0c6.47841,-0.28605 12.8844,-0.86305 19.22163,-1.72733c0.43214,-0.21607 1.07912,-0.43214 1.94217,-0.64698c1.58492,-0.14364 2.88011,0.21607 3.88926,1.08035c1.00669,0.86182 1.3664,2.01461 1.07912,3.45466z"></path></g></g></svg>