<svg version="1.1" xmlns="http://www.w3.org/2000/svg" xmlns:xlink="http://www.w3.org/1999/xlink" width="384" height="230" viewBox="0,0,384,230"><g transform="translate(-48,-65)"><g data-paper-data="{&quot;isPaintingLayer&quot;:true}" stroke="none" stroke-linecap="butt" stroke-linejoin="miter" stroke-miterlimit="10" stroke-dasharray="" stroke-dashoffset="0" style="mix-blend-mode: normal"><path d="M48,295v-230h384v230z" fill="none" fill-rule="nonzero" stroke-width="0"/><path d="M362.09922,169.46746c-3.33804,0 -8.1407,2.82549 -9.1032,9.36163c7.76995,-0.39838 12.02261,-3.27298 12.02261,-6.57849c0,-1.57204 -1.0515,-2.78314 -2.91757,-2.78314M268.65605,170.92716c-0.41495,-1.17857 -3.02683,-2.54435 -6.89707,-0.09699c-2.3025,1.45541 -4.32755,4.13358 -4.92911,7.94673c3.31226,0.25843 6.44406,-0.45547 8.70789,-1.74146c3.37181,-1.91517 3.60813,-4.71304 3.11829,-6.10829M189.23293,170.87253c-0.64146,-1.41735 -3.48659,-2.29821 -6.97626,0.02517c-2.22823,1.4818 -4.18084,4.1256 -4.76522,7.87369c3.28771,0.25658 6.44406,-0.36585 8.64282,-1.74084c4.21276,-2.63888 3.4246,-5.44166 3.09865,-6.15801M242.71285,168.63448c-0.24124,6.48396 3.71371,7.79266 3.71371,7.79266c2.84759,-9.26464 10.47267,-15.01752 19.98346,-15.00217c10.58746,0.01473 13.24169,6.76448 13.28159,10.41067c0.0798,7.15795 -7.70304,15.45212 -22.95136,14.64369c1.18655,2.79112 3.80517,3.72599 6.61593,3.72599c9.12775,0 21.02084,-7.08368 22.99617,-16.14207l1.61685,-11.98271h10.85325l-0.80781,5.44903c-0.07734,-0.07673 4.38709,-5.093 10.55001,-5.44166c2.7285,-0.15653 5.37476,0.37321 8.07809,2.35529c3.11645,-2.17605 6.62084,-3.02683 10.42356,-3.02683c5.43184,0.00246 11.03003,1.79118 14.64124,4.25328l-6.03831,6.1353c-2.21165,-1.13376 -7.68278,-2.49402 -9.76185,-1.13376c-0.98459,0.64637 -1.31852,2.65853 0.71573,4.00406c1.40814,0.92996 6.74791,3.95925 16.66383,4.46198c0.48002,-3.94452 4.60869,-17.73313 20.52855,-17.73313c8.7748,0 13.23125,5.36002 13.23125,10.3763c0,7.58334 -7.29975,14.32081 -22.59534,15.19062c0.85814,1.70401 2.95685,3.2963 7.54835,3.2963c8.9037,0 16.75345,-6.4146 16.75345,-6.4146l5.49875,5.58592l-0.20134,0.17187c-9.79193,8.35125 -18.94423,9.81648 -24.54058,9.81648c-10.14979,0 -15.78052,-4.81739 -16.64112,-13.23923c0,0 -3.29999,-0.39531 -4.78056,-0.61384c0.93303,4.27292 0.4481,9.14249 -4.94139,11.98517c-5.45394,2.88012 -15.87996,3.54184 -25.94075,-3.43503l4.27844,-6.68468c9.36838,5.16789 14.53197,3.36198 15.9174,1.60641c0.8029,-1.01713 1.17611,-3.05445 -3.61366,-4.86957c-10.49109,-3.97214 -10.80905,-8.86933 -10.6427,-12.71686c-1.70831,-1.6635 -6.95907,-1.04721 -10.85079,2.11651c-3.11891,2.53453 -5.88485,6.65583 -6.66811,12.71686l-1.56467,12.51736h-10.84834l0.98644,-8.083c-1.68375,1.56406 -10.14734,8.84907 -22.51799,8.84907c-9.27446,0 -16.15373,-5.65344 -16.41216,-14.48287c-1.92189,-0.75732 -3.65583,-1.92404 -5.08134,-3.41907c-2.61372,7.82642 -10.06263,18.22298 -19.35919,18.22298c-6.3127,0 -9.46107,-8.55075 -11.01837,-15.18387c-3.47923,5.28268 -13.90525,14.86283 -27.96457,14.86283c-9.27692,0 -16.15619,-5.65344 -16.41523,-14.48225c-1.96688,-0.77395 -3.73667,-1.97632 -5.18078,-3.51974c-3.36198,13.32885 -12.14415,17.97928 -21.12274,17.97928c-6.08067,0 -9.43345,-2.78252 -10.52792,-6.69696c-4.66086,7.00327 -12.16195,6.69696 -12.16195,6.69696c-8.10756,0 -11.38299,-6.24702 -10.13445,-15.20106l1.94218,-12.21904c0.13197,-2.22086 -1.80591,-2.04162 -2.55172,-1.84765c-1.6193,0.4481 -2.6438,0.98951 -4.42945,2.01952l-5.51655,-5.60617c9.34628,-7.70243 17.89457,-7.22977 20.87414,-5.63809c0.83605,0.42784 4.52398,2.68369 3.53938,8.83925l-1.85317,11.81636c-0.70346,5.04083 -0.15653,7.74969 2.3381,7.74969c2.18403,0 6.31515,-2.70886 7.48329,-11.73902l2.02996,-15.65407h11.30381l-2.57198,20.09334c-0.701,5.34468 0,7.3022 2.18403,7.3022c2.49218,0 6.60795,-3.17354 8.26224,-14.52461c0.6789,-4.64368 0.62366,-8.05354 0,-12.87093h11.77339c0.30139,1.65122 -0.22098,10.07552 5.4742,14.35089c2.84759,-9.26464 10.47328,-15.01752 19.98407,-15.00217c10.58746,0.01473 13.24108,6.76448 13.28097,10.41067c0.0798,7.15795 -7.70304,15.45212 -22.95075,14.64369c1.18348,2.78559 3.79781,3.73336 6.60304,3.72599c9.74957,-0.01964 21.01102,-7.43172 23.24969,-16.9818c0.33024,-1.24854 -1.9876,-8.46113 -3.26316,-11.14728h11.0552c2.25278,5.88179 6.31454,23.20242 6.76448,24.78612c0.43276,1.34308 0.95022,1.82862 1.57695,1.83353c1.0423,0.00491 2.16378,-1.22399 2.34793,-1.42778c2.26322,-2.50691 3.77817,-5.57609 4.78486,-8.69991c2.60635,-8.07564 1.82064,-16.5073 1.82064,-16.5073h10.93612c0,0 0.08164,2.65669 -0.06261,6.57419" fill="#ffffff" fill-rule="evenodd" stroke-width="1"/></g></g></svg>