<svg viewBox="0,0,384,230" height="230" width="384" xmlns:xlink="http://www.w3.org/1999/xlink" xmlns="http://www.w3.org/2000/svg" version="1.1"><g transform="translate(-48,-65)"><g style="mix-blend-mode: normal" stroke-dashoffset="0" stroke-dasharray="" stroke-miterlimit="10" stroke-linejoin="miter" stroke-linecap="butt" stroke="none" fill-rule="nonzero" data-paper-data="{&quot;isPaintingLayer&quot;:true}"><path stroke-width="0" fill="none" d="M48,295v-230h384v230z"></path><path stroke-width="1" fill="#ffffff" d="M268.96089,144.67557v1.88465c-2.48591,0.44151 -4.36754,1.22254 -5.64491,2.34307c-1.82993,1.66399 -3.98751,4.2108 -5.40299,7.64047l-28.79945,58.78066h-1.91616l-28.91176,-59.54471c-1.34651,-3.05612 -3.17707,-4.92379 -3.72946,-5.60301c-0.86315,-1.05262 -1.92481,-1.87609 -3.18498,-2.47042c-1.26019,-0.59419 -2.96057,-0.97622 -5.10115,-1.14607v-1.88465h28.13193v1.88465c-3.24544,0.30569 -4.79269,0.84901 -5.75938,1.62997c-0.96674,0.78109 -1.4501,1.78284 -1.45008,3.00525c-0.00002,1.69794 0.79406,4.34663 2.38226,7.94608l21.35137,40.49447l20.87583,-39.98511c1.62264,-3.93903 2.96888,-6.67261 2.96894,-8.20077c-0.00006,-0.98471 -0.50068,-1.92703 -1.50185,-2.82697c-1.00131,-0.89981 -2.13427,-1.53652 -4.51647,-1.91012c-0.17268,-0.03389 -0.46614,-0.08482 -0.8804,-0.15281v-1.88465z"></path><path stroke-width="1" fill="#ffffff" d="M293.72997,144.67557v1.88465c-2.48591,0.44151 -4.36754,1.22254 -5.64491,2.34307c-1.82993,1.66399 -3.98751,4.2108 -5.40299,7.64047l-25.27501,58.78066h-1.91616l-26.70898,-59.54471c-1.34651,-3.05612 -3.17707,-4.92379 -3.72946,-5.60301c-0.86315,-1.05262 -1.92481,-1.87609 -3.18498,-2.47042c-1.26019,-0.59419 -2.40178,-0.97622 -4.54236,-1.14607v-1.88465h27.57313v1.88465c-3.24544,0.30569 -4.79269,0.84901 -5.75938,1.62997c-0.96674,0.78109 -1.4501,1.78284 -1.45008,3.00525c-0.00002,1.69794 0.79406,4.34663 2.38226,7.94608l19.14859,40.49447l17.3514,-39.98511c1.62264,-3.93903 2.96889,-6.67261 2.96894,-8.20077c-0.00005,-0.98471 -0.50068,-1.92703 -1.50185,-2.82697c-1.00131,-0.89981 -2.69306,-1.53652 -5.07526,-1.91012c-0.17268,-0.03389 -0.46614,-0.08482 -0.8804,-0.15281v-1.88465z"></path></g></g></svg>