<svg viewBox="0,0,384,230" height="230" width="384" xmlns:xlink="http://www.w3.org/1999/xlink" xmlns="http://www.w3.org/2000/svg" version="1.1"><g transform="translate(-48,-65)"><g style="mix-blend-mode: normal" stroke-dashoffset="0" stroke-dasharray="" stroke-miterlimit="10" stroke-linejoin="miter" stroke-linecap="butt" stroke="none" fill-rule="nonzero" data-paper-data="{&quot;isPaintingLayer&quot;:true}"><path stroke-width="0" fill="none" d="M48,295v-230h384v230z"></path><path stroke-width="1" fill="#ffffff" d="M280.60116,217.52905c-8.63526,3.29147 -23.96963,2.74934 -31.75299,-3.33019c-8.13186,-6.31187 -3.91104,-15.91522 5.80847,-13.66927c-1.74254,7.39612 2.71062,13.90161 11.26844,14.90841c8.55782,1.0068 12.5463,-2.86551 13.2046,-7.55101c0.73574,-5.26635 -2.98168,-9.29356 -14.28884,-12.31396c-11.73312,-3.09785 -19.09051,-6.11826 -20.05859,-16.49606c-0.85191,-9.64206 6.97017,-16.26372 16.88329,-18.12244c10.06802,-1.89743 20.60072,0.15489 25.71217,4.49189c4.1821,3.52381 3.52381,7.24123 1.5102,9.48717c-2.40084,2.74934 -10.30036,3.13658 -13.47566,-0.77446c1.58765,-3.44636 0.30979,-8.75143 -6.58294,-9.95185c-6.3506,-1.08425 -12.43013,3.05913 -11.5395,9.21611c0.81319,5.80847 8.44165,6.46677 16.53479,9.17739c8.98377,2.98168 18.16116,5.6923 19.12924,16.53479c0.89063,10.0293 -4.6855,15.41181 -12.35269,18.3935zM217.32753,148.91162c0,-4.64678 4.29827,-8.44165 9.56462,-8.44165c5.26635,0 9.56462,3.75615 9.56462,8.44165c0,4.64678 -4.29827,8.44165 -9.56462,8.44165c-5.30507,0 -9.56462,-3.79487 -9.56462,-8.44165zM234.40444,161.96132l0.03872,55.87751h-15.10203v-55.87751c4.80167,2.12977 10.26164,2.12977 15.06331,0zM356.15004,179.73525v38.10358h-15.10203v-37.87124c0,-5.07273 0.19362,-11.42333 -3.60125,-14.0565c-3.13658,-2.20722 -8.90633,-2.74934 -12.97226,0.30979c-4.49189,3.36891 -5.8472,7.58974 -5.8472,16.49606v35.08318h-15.45054v-75.70376h15.48926v22.96283c4.25955,-3.13658 9.40973,-4.80167 14.67607,-4.76295c13.63055,0 22.84666,5.8472 22.80794,19.43902zM174.26739,162.00005h-15.10203c5.57613,17.03819 1.97488,32.14022 -3.75615,48.32649l-16.03139,-48.32649h-15.52798l18.93562,55.80006h15.10203l8.40292,-34.54105l11.88801,34.57978h15.10203zM212.17735,175.55315c-5.49869,5.92464 -9.75823,12.89481 -12.62375,20.44582c-2.86551,-7.55101 -7.16378,-14.48246 -12.62375,-20.44582c5.07273,-4.33699 9.33228,-9.5259 12.62375,-15.33437c3.29147,5.80847 7.55101,10.99738 12.62375,15.33437z"></path></g></g></svg>