<svg viewBox="0,0,384,230" height="230" width="384" xmlns:xlink="http://www.w3.org/1999/xlink" xmlns="http://www.w3.org/2000/svg" version="1.1"><g transform="translate(-48,-65)"><g style="mix-blend-mode: normal" stroke-dashoffset="0" stroke-dasharray="" stroke-miterlimit="10" stroke-linejoin="miter" stroke-linecap="butt" stroke="none" fill-rule="nonzero" data-paper-data="{&quot;isPaintingLayer&quot;:true}"><path stroke-width="0" fill="none" d="M48,295v-230h384v230z"></path><path stroke-width="1" fill="#ffffff" d="M239.9664,142.05599c0,0 33.95906,0.00011 42.46529,2.34441c4.62164,1.20565 8.30496,4.889 9.51061,9.51061c2.34432,8.50641 2.2774,26.18951 2.2774,26.18951c0,0 -0.00006,17.61597 -2.2774,26.05549c-1.20564,4.68854 -4.88897,8.30502 -9.51061,9.57762c-8.50623,2.21035 -42.46529,2.21038 -42.46529,2.21038c0,0 -33.82489,-0.00009 -42.39828,-2.27739c-4.62161,-1.27264 -8.30501,-4.95608 -9.57762,-9.57762c-2.21033,-8.37253 -2.21038,-26.05549 -2.21038,-26.05549c0,0 0.00005,-17.61608 2.21038,-26.1225c1.27262,-4.62161 5.023,-8.37203 9.57762,-9.64464c8.50641,-2.21035 42.39828,-2.21038 42.39828,-2.21038zM229.18254,163.75773v32.48455l28.19886,-16.20877l-28.19886,-16.27578z"></path></g></g></svg>